G75*
%MOIN*%
%OFA0B0*%
%FSLAX25Y25*%
%IPPOS*%
%LPD*%
%AMOC8*
5,1,8,0,0,1.08239X$1,22.5*
%
%ADD10R,0.08100X0.02400*%
%ADD11OC8,0.06000*%
%ADD12R,0.06299X0.05118*%
%ADD13R,0.03937X0.04331*%
%ADD14C,0.00600*%
%ADD15C,0.02700*%
D10*
X0122500Y0062500D03*
X0122500Y0067500D03*
X0122500Y0072500D03*
X0122500Y0077500D03*
X0122500Y0082500D03*
X0122500Y0087500D03*
X0122500Y0092500D03*
X0122500Y0097500D03*
X0141400Y0097500D03*
X0141400Y0092500D03*
X0141400Y0087500D03*
X0141400Y0082500D03*
X0141400Y0077500D03*
X0141400Y0072500D03*
X0141400Y0067500D03*
X0141400Y0062500D03*
X0180000Y0062500D03*
X0180000Y0067500D03*
X0180000Y0072500D03*
X0180000Y0077500D03*
X0180000Y0082500D03*
X0180000Y0087500D03*
X0180000Y0092500D03*
X0180000Y0097500D03*
X0198900Y0097500D03*
X0198900Y0092500D03*
X0198900Y0087500D03*
X0198900Y0082500D03*
X0198900Y0077500D03*
X0198900Y0072500D03*
X0198900Y0067500D03*
X0198900Y0062500D03*
D11*
X0137500Y0122500D03*
X0137500Y0132500D03*
X0127500Y0132500D03*
X0127500Y0122500D03*
X0117500Y0122500D03*
X0117500Y0132500D03*
X0107500Y0132500D03*
X0107500Y0122500D03*
D12*
X0109900Y0094637D03*
X0109900Y0086763D03*
D13*
X0097700Y0087554D03*
X0097700Y0094246D03*
D14*
X0097700Y0087554D02*
X0097900Y0087100D01*
X0109900Y0087100D01*
X0109900Y0086763D01*
X0109900Y0083500D01*
X0118300Y0075100D01*
X0126700Y0075100D01*
X0139300Y0062500D01*
X0141400Y0062500D01*
X0168100Y0062500D01*
X0170500Y0060100D01*
X0173500Y0060100D01*
X0184300Y0060100D01*
X0185500Y0061300D01*
X0185500Y0067900D01*
X0180100Y0067900D01*
X0180000Y0067500D01*
X0180000Y0062500D02*
X0171700Y0062500D01*
X0159100Y0075100D01*
X0151900Y0075100D01*
X0146500Y0074500D02*
X0146500Y0070900D01*
X0145900Y0070300D01*
X0136900Y0070300D01*
X0129700Y0077500D01*
X0129700Y0091900D01*
X0124300Y0097300D01*
X0122500Y0097300D01*
X0122500Y0097500D01*
X0122500Y0097300D02*
X0112300Y0097300D01*
X0109900Y0094900D01*
X0109900Y0094637D01*
X0109900Y0094300D01*
X0097900Y0094300D01*
X0097700Y0094246D01*
X0117100Y0122500D02*
X0117500Y0122500D01*
X0117100Y0122500D02*
X0113500Y0126100D01*
X0113500Y0134500D01*
X0115900Y0136900D01*
X0175300Y0136900D01*
X0198700Y0113500D01*
X0198700Y0097900D01*
X0198900Y0097500D01*
X0198900Y0092500D02*
X0200500Y0092500D01*
X0204100Y0096100D01*
X0204100Y0109900D01*
X0175900Y0138100D01*
X0112900Y0138100D01*
X0107500Y0132700D01*
X0107500Y0132500D01*
X0117500Y0132500D02*
X0117700Y0132100D01*
X0121900Y0127900D01*
X0121900Y0122500D01*
X0130900Y0113500D01*
X0130900Y0079300D01*
X0137500Y0072700D01*
X0141100Y0072700D01*
X0141400Y0072500D01*
X0141400Y0077500D02*
X0157900Y0077500D01*
X0175300Y0094900D01*
X0184300Y0094900D01*
X0185500Y0096100D01*
X0185500Y0114100D01*
X0172900Y0126700D01*
X0132100Y0126700D01*
X0127900Y0122500D01*
X0127500Y0122500D01*
X0136300Y0121300D02*
X0137500Y0122500D01*
X0136300Y0121300D02*
X0136300Y0090700D01*
X0139300Y0087700D01*
X0141100Y0087700D01*
X0141400Y0087500D01*
X0141700Y0082900D02*
X0141400Y0082500D01*
X0141100Y0082300D01*
X0139300Y0082300D01*
X0136300Y0079300D01*
X0136300Y0075700D01*
X0136900Y0075100D01*
X0145900Y0075100D01*
X0146500Y0074500D01*
X0141700Y0067300D02*
X0141400Y0067500D01*
X0141700Y0067300D02*
X0163300Y0067300D01*
X0168100Y0058900D02*
X0169300Y0057700D01*
X0174700Y0057700D01*
X0175900Y0058900D01*
X0202300Y0058900D01*
X0204100Y0060700D01*
X0204100Y0073900D01*
X0200500Y0077500D01*
X0198900Y0077500D01*
X0196900Y0077500D01*
X0192700Y0081700D01*
X0190300Y0079300D02*
X0190300Y0087700D01*
X0186700Y0091300D01*
X0186700Y0114700D01*
X0169300Y0132100D01*
X0137500Y0132100D01*
X0137500Y0132500D01*
X0157300Y0108700D02*
X0162700Y0103300D01*
X0157300Y0108700D02*
X0146500Y0097900D01*
X0141700Y0097900D01*
X0141400Y0097500D01*
X0141700Y0082900D02*
X0161500Y0082900D01*
X0175900Y0097300D01*
X0179500Y0097300D01*
X0180000Y0097500D01*
X0180100Y0097900D01*
X0180100Y0106900D01*
X0190900Y0117700D02*
X0174700Y0133900D01*
X0172300Y0123700D02*
X0157300Y0108700D01*
X0180100Y0072700D02*
X0180000Y0072500D01*
X0180100Y0072700D02*
X0181900Y0072700D01*
X0187900Y0078700D01*
X0190300Y0079300D02*
X0196900Y0072700D01*
X0198700Y0072700D01*
X0198900Y0072500D01*
X0198700Y0067900D02*
X0198900Y0067500D01*
X0199300Y0067300D01*
X0199300Y0062500D01*
X0198900Y0062500D01*
X0198700Y0067900D02*
X0185500Y0067900D01*
X0193300Y0056500D02*
X0205300Y0056500D01*
X0205300Y0082900D01*
X0201100Y0087100D01*
X0199300Y0087100D01*
X0198900Y0087500D01*
X0198700Y0082900D02*
X0196900Y0082900D01*
X0190900Y0088900D01*
X0190900Y0117700D01*
X0198700Y0082900D02*
X0198900Y0082500D01*
X0205300Y0056500D02*
X0205300Y0045100D01*
X0189100Y0028900D01*
D15*
X0189100Y0028900D03*
X0193300Y0056500D03*
X0187900Y0078700D03*
X0192700Y0081700D03*
X0180100Y0106900D03*
X0190900Y0117700D03*
X0174700Y0133900D03*
X0172300Y0123700D03*
X0162700Y0103300D03*
X0151900Y0075100D03*
X0163300Y0067300D03*
X0168100Y0058900D03*
X0173500Y0060100D03*
M02*
