G75*
%MOIN*%
%OFA0B0*%
%FSLAX25Y25*%
%IPPOS*%
%LPD*%
%AMOC8*
5,1,8,0,0,1.08239X$1,22.5*
%
%ADD10R,0.01378X0.09843*%
%ADD11R,0.09843X0.07874*%
%ADD12R,0.08661X0.01181*%
%ADD13R,0.05512X0.06890*%
D10*
X0138750Y0033248D03*
X0141250Y0033248D03*
X0143750Y0033248D03*
X0146250Y0033248D03*
X0148750Y0033248D03*
X0151250Y0033248D03*
X0153750Y0033248D03*
X0156250Y0033248D03*
X0158750Y0033248D03*
X0161250Y0033248D03*
X0163750Y0033248D03*
X0166250Y0033248D03*
X0168750Y0033248D03*
X0171250Y0033248D03*
X0173750Y0033248D03*
X0176250Y0033248D03*
X0178750Y0033248D03*
X0181250Y0033248D03*
X0183750Y0033248D03*
X0186250Y0033248D03*
X0186250Y0051752D03*
X0183750Y0051752D03*
X0181250Y0051752D03*
X0178750Y0051752D03*
X0176250Y0051752D03*
X0173750Y0051752D03*
X0171250Y0051752D03*
X0168750Y0051752D03*
X0166250Y0051752D03*
X0163750Y0051752D03*
X0161250Y0051752D03*
X0158750Y0051752D03*
X0156250Y0051752D03*
X0153750Y0051752D03*
X0151250Y0051752D03*
X0148750Y0051752D03*
X0146250Y0051752D03*
X0143750Y0051752D03*
X0141250Y0051752D03*
X0138750Y0051752D03*
D11*
X0126673Y0042500D03*
X0198327Y0042500D03*
D12*
X0187185Y0127500D03*
X0187185Y0129469D03*
X0187185Y0131437D03*
X0187185Y0133406D03*
X0187185Y0135374D03*
X0167500Y0135374D03*
X0167500Y0133406D03*
X0167500Y0131437D03*
X0167500Y0129469D03*
X0167500Y0127500D03*
D13*
X0177343Y0121201D03*
X0177343Y0141673D03*
M02*
