%
M48
M72
T01C0.0130
T02C0.0197
T03C0.0276
T04C0.0354
T05C0.0400
T06C0.1102
%
T01
X15190Y7510
X16330Y6730
X16810Y5890
X17350Y6010
X18790Y7870
X19270Y8170
X18010Y10690
X19090Y11770
X17470Y13390
X17230Y12370
X16270Y10330
X19330Y5650
X18910Y2890
T02
X18750Y15750
X19250Y15750
X19750Y15750
X20250Y15750
X20750Y15750
X18250Y15750
X17750Y15750
X17250Y15750
X16750Y15750
X16250Y15750
X15750Y15750
X15250Y15750
X14750Y15750
X14250Y15750
X13750Y15750
X13250Y15750
X12750Y15750
X12250Y15750
X11750Y15750
X11250Y15750
X10750Y15750
X10250Y15750
X9750Y15750
X9250Y15750
X8750Y15750
X8250Y15750
X7750Y15750
X7250Y15750
X6750Y15750
X6250Y15750
X5750Y15750
X5250Y15750
X4750Y15750
X4250Y15750
X3750Y15750
X3250Y15750
X2750Y15750
X2250Y15750
X1750Y15750
X1250Y15750
X750Y15750
T03
X13382Y4250
T04
X19118Y4250
T05
X10750Y12250
X10750Y13250
X11750Y13250
X11750Y12250
X12750Y12250
X12750Y13250
X13750Y13250
X13750Y12250
T06
X20000Y1500
X1500Y17750
X15750Y28500
M30
