G75*
%MOIN*%
%OFA0B0*%
%FSLAX25Y25*%
%IPPOS*%
%LPD*%
%AMOC8*
5,1,8,0,0,1.08239X$1,22.5*
%
%ADD10C,0.00300*%
%ADD11C,0.00800*%
%ADD12C,0.00400*%
%ADD13C,0.00600*%
%ADD14C,0.00500*%
D10*
X0007915Y0007650D02*
X0006948Y0008617D01*
X0007915Y0007650D02*
X0008883Y0007650D01*
X0009850Y0008617D01*
X0009366Y0009614D02*
X0008399Y0009614D01*
X0007915Y0010098D01*
X0007915Y0011549D01*
X0006948Y0012561D02*
X0007915Y0013528D01*
X0008883Y0013528D01*
X0009850Y0012561D01*
X0009850Y0011549D02*
X0009850Y0010098D01*
X0009366Y0009614D01*
X0012915Y0009101D02*
X0012915Y0008617D01*
X0013883Y0007650D01*
X0014850Y0007650D02*
X0012915Y0007650D01*
X0013399Y0010105D02*
X0012915Y0010589D01*
X0012915Y0011557D01*
X0013399Y0012040D01*
X0013883Y0012040D01*
X0013883Y0010105D01*
X0014366Y0010105D02*
X0013399Y0010105D01*
X0014366Y0010105D02*
X0014850Y0010589D01*
X0014850Y0011557D01*
X0012915Y0013052D02*
X0014850Y0014019D01*
X0012915Y0014987D01*
X0012915Y0015998D02*
X0012915Y0016482D01*
X0014850Y0016482D01*
X0014850Y0015998D02*
X0014850Y0016966D01*
X0014850Y0017963D02*
X0014850Y0019414D01*
X0014366Y0019898D01*
X0013883Y0019414D01*
X0013883Y0018447D01*
X0013399Y0017963D01*
X0012915Y0018447D01*
X0012915Y0019898D01*
X0012915Y0020909D02*
X0012915Y0021393D01*
X0014850Y0021393D01*
X0014850Y0020909D02*
X0014850Y0021877D01*
X0014366Y0022874D02*
X0014850Y0023357D01*
X0014850Y0024325D01*
X0014366Y0024809D01*
X0013399Y0024809D01*
X0012915Y0024325D01*
X0012915Y0023357D01*
X0013399Y0022874D01*
X0014366Y0022874D01*
X0011948Y0021393D02*
X0011464Y0021393D01*
X0009850Y0021869D02*
X0009850Y0020902D01*
X0009366Y0020418D01*
X0007431Y0022353D01*
X0009366Y0022353D01*
X0009850Y0021869D01*
X0009850Y0023365D02*
X0009850Y0025300D01*
X0009850Y0024332D02*
X0006948Y0024332D01*
X0007915Y0023365D01*
X0007431Y0022353D02*
X0006948Y0021869D01*
X0006948Y0020902D01*
X0007431Y0020418D01*
X0009366Y0020418D01*
X0009850Y0019407D02*
X0009850Y0017472D01*
X0007915Y0019407D01*
X0007431Y0019407D01*
X0006948Y0018923D01*
X0006948Y0017955D01*
X0007431Y0017472D01*
X0011464Y0016482D02*
X0011948Y0016482D01*
X0012915Y0025820D02*
X0012915Y0027271D01*
X0013399Y0027755D01*
X0014850Y0027755D01*
X0014850Y0025820D02*
X0012915Y0025820D01*
X0009850Y0026795D02*
X0009366Y0026311D01*
X0009850Y0026795D02*
X0009850Y0027763D01*
X0009366Y0028246D01*
X0008399Y0028246D01*
X0007915Y0027763D01*
X0007915Y0027279D01*
X0008399Y0026311D01*
X0006948Y0026311D01*
X0006948Y0028246D01*
X0008399Y0029258D02*
X0008399Y0031193D01*
X0007431Y0032204D02*
X0006948Y0032688D01*
X0006948Y0033656D01*
X0007431Y0034139D01*
X0007915Y0034139D01*
X0009850Y0032204D01*
X0009850Y0034139D01*
X0009366Y0035151D02*
X0007431Y0037086D01*
X0009366Y0037086D01*
X0009850Y0036602D01*
X0009850Y0035635D01*
X0009366Y0035151D01*
X0007431Y0035151D01*
X0006948Y0035635D01*
X0006948Y0036602D01*
X0007431Y0037086D01*
X0007915Y0038097D02*
X0006948Y0039065D01*
X0009850Y0039065D01*
X0009850Y0040032D02*
X0009850Y0038097D01*
X0009366Y0041044D02*
X0008399Y0041044D01*
X0008399Y0042495D01*
X0008883Y0042979D01*
X0009366Y0042979D01*
X0009850Y0042495D01*
X0009850Y0041528D01*
X0009366Y0041044D01*
X0008399Y0041044D02*
X0007431Y0042011D01*
X0006948Y0042979D01*
X0007915Y0047421D02*
X0007915Y0048388D01*
X0008399Y0048872D01*
X0009850Y0048872D01*
X0009850Y0047421D01*
X0009366Y0046937D01*
X0008883Y0047421D01*
X0008883Y0048872D01*
X0009850Y0049883D02*
X0009850Y0050851D01*
X0009850Y0050367D02*
X0006948Y0050367D01*
X0006948Y0049883D01*
X0008399Y0051848D02*
X0007915Y0052332D01*
X0007915Y0053299D01*
X0008399Y0053783D01*
X0008883Y0053783D01*
X0008883Y0051848D01*
X0009366Y0051848D02*
X0008399Y0051848D01*
X0009366Y0051848D02*
X0009850Y0052332D01*
X0009850Y0053299D01*
X0009850Y0054794D02*
X0007915Y0056729D01*
X0007915Y0054794D02*
X0009850Y0056729D01*
X0009850Y0060687D02*
X0006948Y0060687D01*
X0007915Y0061171D02*
X0007915Y0062139D01*
X0008399Y0062622D01*
X0009850Y0062622D01*
X0009850Y0063634D02*
X0009850Y0064601D01*
X0009850Y0064118D02*
X0007915Y0064118D01*
X0007915Y0063634D01*
X0006948Y0064118D02*
X0006464Y0064118D01*
X0007915Y0065598D02*
X0009850Y0067533D01*
X0009366Y0068545D02*
X0009850Y0069028D01*
X0009850Y0069996D01*
X0009366Y0070480D01*
X0008399Y0070480D01*
X0007915Y0069996D01*
X0007915Y0069028D01*
X0008399Y0068545D01*
X0009366Y0068545D01*
X0007915Y0067533D02*
X0009850Y0065598D01*
X0007915Y0061171D02*
X0008399Y0060687D01*
X0007915Y0071491D02*
X0007915Y0072942D01*
X0008399Y0073426D01*
X0009850Y0073426D01*
X0009850Y0071491D02*
X0007915Y0071491D01*
X0013399Y0033648D02*
X0012915Y0033164D01*
X0012915Y0031713D01*
X0011948Y0031713D02*
X0014850Y0031713D01*
X0014850Y0033164D01*
X0014366Y0033648D01*
X0013399Y0033648D01*
D11*
X0009094Y0177500D02*
X0009096Y0177653D01*
X0009102Y0177807D01*
X0009112Y0177960D01*
X0009126Y0178112D01*
X0009144Y0178265D01*
X0009166Y0178416D01*
X0009191Y0178567D01*
X0009221Y0178718D01*
X0009255Y0178868D01*
X0009292Y0179016D01*
X0009333Y0179164D01*
X0009378Y0179310D01*
X0009427Y0179456D01*
X0009480Y0179600D01*
X0009536Y0179742D01*
X0009596Y0179883D01*
X0009660Y0180023D01*
X0009727Y0180161D01*
X0009798Y0180297D01*
X0009873Y0180431D01*
X0009950Y0180563D01*
X0010032Y0180693D01*
X0010116Y0180821D01*
X0010204Y0180947D01*
X0010295Y0181070D01*
X0010389Y0181191D01*
X0010487Y0181309D01*
X0010587Y0181425D01*
X0010691Y0181538D01*
X0010797Y0181649D01*
X0010906Y0181757D01*
X0011018Y0181862D01*
X0011132Y0181963D01*
X0011250Y0182062D01*
X0011369Y0182158D01*
X0011491Y0182251D01*
X0011616Y0182340D01*
X0011743Y0182427D01*
X0011872Y0182509D01*
X0012003Y0182589D01*
X0012136Y0182665D01*
X0012271Y0182738D01*
X0012408Y0182807D01*
X0012547Y0182872D01*
X0012687Y0182934D01*
X0012829Y0182992D01*
X0012972Y0183047D01*
X0013117Y0183098D01*
X0013263Y0183145D01*
X0013410Y0183188D01*
X0013558Y0183227D01*
X0013707Y0183263D01*
X0013857Y0183294D01*
X0014008Y0183322D01*
X0014159Y0183346D01*
X0014312Y0183366D01*
X0014464Y0183382D01*
X0014617Y0183394D01*
X0014770Y0183402D01*
X0014923Y0183406D01*
X0015077Y0183406D01*
X0015230Y0183402D01*
X0015383Y0183394D01*
X0015536Y0183382D01*
X0015688Y0183366D01*
X0015841Y0183346D01*
X0015992Y0183322D01*
X0016143Y0183294D01*
X0016293Y0183263D01*
X0016442Y0183227D01*
X0016590Y0183188D01*
X0016737Y0183145D01*
X0016883Y0183098D01*
X0017028Y0183047D01*
X0017171Y0182992D01*
X0017313Y0182934D01*
X0017453Y0182872D01*
X0017592Y0182807D01*
X0017729Y0182738D01*
X0017864Y0182665D01*
X0017997Y0182589D01*
X0018128Y0182509D01*
X0018257Y0182427D01*
X0018384Y0182340D01*
X0018509Y0182251D01*
X0018631Y0182158D01*
X0018750Y0182062D01*
X0018868Y0181963D01*
X0018982Y0181862D01*
X0019094Y0181757D01*
X0019203Y0181649D01*
X0019309Y0181538D01*
X0019413Y0181425D01*
X0019513Y0181309D01*
X0019611Y0181191D01*
X0019705Y0181070D01*
X0019796Y0180947D01*
X0019884Y0180821D01*
X0019968Y0180693D01*
X0020050Y0180563D01*
X0020127Y0180431D01*
X0020202Y0180297D01*
X0020273Y0180161D01*
X0020340Y0180023D01*
X0020404Y0179883D01*
X0020464Y0179742D01*
X0020520Y0179600D01*
X0020573Y0179456D01*
X0020622Y0179310D01*
X0020667Y0179164D01*
X0020708Y0179016D01*
X0020745Y0178868D01*
X0020779Y0178718D01*
X0020809Y0178567D01*
X0020834Y0178416D01*
X0020856Y0178265D01*
X0020874Y0178112D01*
X0020888Y0177960D01*
X0020898Y0177807D01*
X0020904Y0177653D01*
X0020906Y0177500D01*
X0020904Y0177347D01*
X0020898Y0177193D01*
X0020888Y0177040D01*
X0020874Y0176888D01*
X0020856Y0176735D01*
X0020834Y0176584D01*
X0020809Y0176433D01*
X0020779Y0176282D01*
X0020745Y0176132D01*
X0020708Y0175984D01*
X0020667Y0175836D01*
X0020622Y0175690D01*
X0020573Y0175544D01*
X0020520Y0175400D01*
X0020464Y0175258D01*
X0020404Y0175117D01*
X0020340Y0174977D01*
X0020273Y0174839D01*
X0020202Y0174703D01*
X0020127Y0174569D01*
X0020050Y0174437D01*
X0019968Y0174307D01*
X0019884Y0174179D01*
X0019796Y0174053D01*
X0019705Y0173930D01*
X0019611Y0173809D01*
X0019513Y0173691D01*
X0019413Y0173575D01*
X0019309Y0173462D01*
X0019203Y0173351D01*
X0019094Y0173243D01*
X0018982Y0173138D01*
X0018868Y0173037D01*
X0018750Y0172938D01*
X0018631Y0172842D01*
X0018509Y0172749D01*
X0018384Y0172660D01*
X0018257Y0172573D01*
X0018128Y0172491D01*
X0017997Y0172411D01*
X0017864Y0172335D01*
X0017729Y0172262D01*
X0017592Y0172193D01*
X0017453Y0172128D01*
X0017313Y0172066D01*
X0017171Y0172008D01*
X0017028Y0171953D01*
X0016883Y0171902D01*
X0016737Y0171855D01*
X0016590Y0171812D01*
X0016442Y0171773D01*
X0016293Y0171737D01*
X0016143Y0171706D01*
X0015992Y0171678D01*
X0015841Y0171654D01*
X0015688Y0171634D01*
X0015536Y0171618D01*
X0015383Y0171606D01*
X0015230Y0171598D01*
X0015077Y0171594D01*
X0014923Y0171594D01*
X0014770Y0171598D01*
X0014617Y0171606D01*
X0014464Y0171618D01*
X0014312Y0171634D01*
X0014159Y0171654D01*
X0014008Y0171678D01*
X0013857Y0171706D01*
X0013707Y0171737D01*
X0013558Y0171773D01*
X0013410Y0171812D01*
X0013263Y0171855D01*
X0013117Y0171902D01*
X0012972Y0171953D01*
X0012829Y0172008D01*
X0012687Y0172066D01*
X0012547Y0172128D01*
X0012408Y0172193D01*
X0012271Y0172262D01*
X0012136Y0172335D01*
X0012003Y0172411D01*
X0011872Y0172491D01*
X0011743Y0172573D01*
X0011616Y0172660D01*
X0011491Y0172749D01*
X0011369Y0172842D01*
X0011250Y0172938D01*
X0011132Y0173037D01*
X0011018Y0173138D01*
X0010906Y0173243D01*
X0010797Y0173351D01*
X0010691Y0173462D01*
X0010587Y0173575D01*
X0010487Y0173691D01*
X0010389Y0173809D01*
X0010295Y0173930D01*
X0010204Y0174053D01*
X0010116Y0174179D01*
X0010032Y0174307D01*
X0009950Y0174437D01*
X0009873Y0174569D01*
X0009798Y0174703D01*
X0009727Y0174839D01*
X0009660Y0174977D01*
X0009596Y0175117D01*
X0009536Y0175258D01*
X0009480Y0175400D01*
X0009427Y0175544D01*
X0009378Y0175690D01*
X0009333Y0175836D01*
X0009292Y0175984D01*
X0009255Y0176132D01*
X0009221Y0176282D01*
X0009191Y0176433D01*
X0009166Y0176584D01*
X0009144Y0176735D01*
X0009126Y0176888D01*
X0009112Y0177040D01*
X0009102Y0177193D01*
X0009096Y0177347D01*
X0009094Y0177500D01*
X0122343Y0054705D02*
X0122343Y0048406D01*
X0124705Y0048406D01*
X0130217Y0051949D02*
X0130217Y0054705D01*
X0122343Y0054705D01*
X0129626Y0042500D02*
X0132579Y0042500D01*
X0132579Y0050374D01*
X0136516Y0050374D01*
X0136516Y0046437D02*
X0136454Y0046435D01*
X0136393Y0046429D01*
X0136332Y0046420D01*
X0136271Y0046406D01*
X0136212Y0046389D01*
X0136154Y0046368D01*
X0136097Y0046343D01*
X0136042Y0046315D01*
X0135989Y0046284D01*
X0135938Y0046249D01*
X0135889Y0046211D01*
X0135842Y0046170D01*
X0135799Y0046127D01*
X0135758Y0046080D01*
X0135720Y0046031D01*
X0135685Y0045980D01*
X0135654Y0045927D01*
X0135626Y0045872D01*
X0135601Y0045815D01*
X0135580Y0045757D01*
X0135563Y0045698D01*
X0135549Y0045637D01*
X0135540Y0045576D01*
X0135534Y0045515D01*
X0135532Y0045453D01*
X0135531Y0045453D02*
X0135531Y0039547D01*
X0135532Y0039547D02*
X0135534Y0039485D01*
X0135540Y0039424D01*
X0135549Y0039363D01*
X0135563Y0039302D01*
X0135580Y0039243D01*
X0135601Y0039185D01*
X0135626Y0039128D01*
X0135654Y0039073D01*
X0135685Y0039020D01*
X0135720Y0038969D01*
X0135758Y0038920D01*
X0135799Y0038873D01*
X0135842Y0038830D01*
X0135889Y0038789D01*
X0135938Y0038751D01*
X0135989Y0038716D01*
X0136042Y0038685D01*
X0136097Y0038657D01*
X0136154Y0038632D01*
X0136212Y0038611D01*
X0136271Y0038594D01*
X0136332Y0038580D01*
X0136393Y0038571D01*
X0136454Y0038565D01*
X0136516Y0038563D01*
X0136516Y0034626D02*
X0129626Y0034626D01*
X0129626Y0042500D01*
X0124705Y0036594D02*
X0122343Y0036594D01*
X0122343Y0030295D01*
X0130217Y0030295D01*
X0130217Y0033051D01*
X0188484Y0034626D02*
X0195374Y0034626D01*
X0195374Y0042500D01*
X0192421Y0042500D01*
X0192421Y0050374D01*
X0188484Y0050374D01*
X0188484Y0046437D02*
X0188546Y0046435D01*
X0188607Y0046429D01*
X0188668Y0046420D01*
X0188729Y0046406D01*
X0188788Y0046389D01*
X0188846Y0046368D01*
X0188903Y0046343D01*
X0188958Y0046315D01*
X0189011Y0046284D01*
X0189062Y0046249D01*
X0189111Y0046211D01*
X0189158Y0046170D01*
X0189201Y0046127D01*
X0189242Y0046080D01*
X0189280Y0046031D01*
X0189315Y0045980D01*
X0189346Y0045927D01*
X0189374Y0045872D01*
X0189399Y0045815D01*
X0189420Y0045757D01*
X0189437Y0045698D01*
X0189451Y0045637D01*
X0189460Y0045576D01*
X0189466Y0045515D01*
X0189468Y0045453D01*
X0189469Y0045453D02*
X0189469Y0039547D01*
X0189468Y0039547D02*
X0189466Y0039485D01*
X0189460Y0039424D01*
X0189451Y0039363D01*
X0189437Y0039302D01*
X0189420Y0039243D01*
X0189399Y0039185D01*
X0189374Y0039128D01*
X0189346Y0039073D01*
X0189315Y0039020D01*
X0189280Y0038969D01*
X0189242Y0038920D01*
X0189201Y0038873D01*
X0189158Y0038830D01*
X0189111Y0038789D01*
X0189062Y0038751D01*
X0189011Y0038716D01*
X0188958Y0038685D01*
X0188903Y0038657D01*
X0188846Y0038632D01*
X0188788Y0038611D01*
X0188729Y0038594D01*
X0188668Y0038580D01*
X0188607Y0038571D01*
X0188546Y0038565D01*
X0188484Y0038563D01*
X0194783Y0033051D02*
X0194783Y0030295D01*
X0202657Y0030295D01*
X0202657Y0036594D01*
X0200295Y0036594D01*
X0200295Y0048406D02*
X0202657Y0048406D01*
X0202657Y0049882D01*
X0197835Y0054705D01*
X0194783Y0054705D01*
X0194783Y0051949D01*
X0194094Y0015000D02*
X0194096Y0015153D01*
X0194102Y0015307D01*
X0194112Y0015460D01*
X0194126Y0015612D01*
X0194144Y0015765D01*
X0194166Y0015916D01*
X0194191Y0016067D01*
X0194221Y0016218D01*
X0194255Y0016368D01*
X0194292Y0016516D01*
X0194333Y0016664D01*
X0194378Y0016810D01*
X0194427Y0016956D01*
X0194480Y0017100D01*
X0194536Y0017242D01*
X0194596Y0017383D01*
X0194660Y0017523D01*
X0194727Y0017661D01*
X0194798Y0017797D01*
X0194873Y0017931D01*
X0194950Y0018063D01*
X0195032Y0018193D01*
X0195116Y0018321D01*
X0195204Y0018447D01*
X0195295Y0018570D01*
X0195389Y0018691D01*
X0195487Y0018809D01*
X0195587Y0018925D01*
X0195691Y0019038D01*
X0195797Y0019149D01*
X0195906Y0019257D01*
X0196018Y0019362D01*
X0196132Y0019463D01*
X0196250Y0019562D01*
X0196369Y0019658D01*
X0196491Y0019751D01*
X0196616Y0019840D01*
X0196743Y0019927D01*
X0196872Y0020009D01*
X0197003Y0020089D01*
X0197136Y0020165D01*
X0197271Y0020238D01*
X0197408Y0020307D01*
X0197547Y0020372D01*
X0197687Y0020434D01*
X0197829Y0020492D01*
X0197972Y0020547D01*
X0198117Y0020598D01*
X0198263Y0020645D01*
X0198410Y0020688D01*
X0198558Y0020727D01*
X0198707Y0020763D01*
X0198857Y0020794D01*
X0199008Y0020822D01*
X0199159Y0020846D01*
X0199312Y0020866D01*
X0199464Y0020882D01*
X0199617Y0020894D01*
X0199770Y0020902D01*
X0199923Y0020906D01*
X0200077Y0020906D01*
X0200230Y0020902D01*
X0200383Y0020894D01*
X0200536Y0020882D01*
X0200688Y0020866D01*
X0200841Y0020846D01*
X0200992Y0020822D01*
X0201143Y0020794D01*
X0201293Y0020763D01*
X0201442Y0020727D01*
X0201590Y0020688D01*
X0201737Y0020645D01*
X0201883Y0020598D01*
X0202028Y0020547D01*
X0202171Y0020492D01*
X0202313Y0020434D01*
X0202453Y0020372D01*
X0202592Y0020307D01*
X0202729Y0020238D01*
X0202864Y0020165D01*
X0202997Y0020089D01*
X0203128Y0020009D01*
X0203257Y0019927D01*
X0203384Y0019840D01*
X0203509Y0019751D01*
X0203631Y0019658D01*
X0203750Y0019562D01*
X0203868Y0019463D01*
X0203982Y0019362D01*
X0204094Y0019257D01*
X0204203Y0019149D01*
X0204309Y0019038D01*
X0204413Y0018925D01*
X0204513Y0018809D01*
X0204611Y0018691D01*
X0204705Y0018570D01*
X0204796Y0018447D01*
X0204884Y0018321D01*
X0204968Y0018193D01*
X0205050Y0018063D01*
X0205127Y0017931D01*
X0205202Y0017797D01*
X0205273Y0017661D01*
X0205340Y0017523D01*
X0205404Y0017383D01*
X0205464Y0017242D01*
X0205520Y0017100D01*
X0205573Y0016956D01*
X0205622Y0016810D01*
X0205667Y0016664D01*
X0205708Y0016516D01*
X0205745Y0016368D01*
X0205779Y0016218D01*
X0205809Y0016067D01*
X0205834Y0015916D01*
X0205856Y0015765D01*
X0205874Y0015612D01*
X0205888Y0015460D01*
X0205898Y0015307D01*
X0205904Y0015153D01*
X0205906Y0015000D01*
X0205904Y0014847D01*
X0205898Y0014693D01*
X0205888Y0014540D01*
X0205874Y0014388D01*
X0205856Y0014235D01*
X0205834Y0014084D01*
X0205809Y0013933D01*
X0205779Y0013782D01*
X0205745Y0013632D01*
X0205708Y0013484D01*
X0205667Y0013336D01*
X0205622Y0013190D01*
X0205573Y0013044D01*
X0205520Y0012900D01*
X0205464Y0012758D01*
X0205404Y0012617D01*
X0205340Y0012477D01*
X0205273Y0012339D01*
X0205202Y0012203D01*
X0205127Y0012069D01*
X0205050Y0011937D01*
X0204968Y0011807D01*
X0204884Y0011679D01*
X0204796Y0011553D01*
X0204705Y0011430D01*
X0204611Y0011309D01*
X0204513Y0011191D01*
X0204413Y0011075D01*
X0204309Y0010962D01*
X0204203Y0010851D01*
X0204094Y0010743D01*
X0203982Y0010638D01*
X0203868Y0010537D01*
X0203750Y0010438D01*
X0203631Y0010342D01*
X0203509Y0010249D01*
X0203384Y0010160D01*
X0203257Y0010073D01*
X0203128Y0009991D01*
X0202997Y0009911D01*
X0202864Y0009835D01*
X0202729Y0009762D01*
X0202592Y0009693D01*
X0202453Y0009628D01*
X0202313Y0009566D01*
X0202171Y0009508D01*
X0202028Y0009453D01*
X0201883Y0009402D01*
X0201737Y0009355D01*
X0201590Y0009312D01*
X0201442Y0009273D01*
X0201293Y0009237D01*
X0201143Y0009206D01*
X0200992Y0009178D01*
X0200841Y0009154D01*
X0200688Y0009134D01*
X0200536Y0009118D01*
X0200383Y0009106D01*
X0200230Y0009098D01*
X0200077Y0009094D01*
X0199923Y0009094D01*
X0199770Y0009098D01*
X0199617Y0009106D01*
X0199464Y0009118D01*
X0199312Y0009134D01*
X0199159Y0009154D01*
X0199008Y0009178D01*
X0198857Y0009206D01*
X0198707Y0009237D01*
X0198558Y0009273D01*
X0198410Y0009312D01*
X0198263Y0009355D01*
X0198117Y0009402D01*
X0197972Y0009453D01*
X0197829Y0009508D01*
X0197687Y0009566D01*
X0197547Y0009628D01*
X0197408Y0009693D01*
X0197271Y0009762D01*
X0197136Y0009835D01*
X0197003Y0009911D01*
X0196872Y0009991D01*
X0196743Y0010073D01*
X0196616Y0010160D01*
X0196491Y0010249D01*
X0196369Y0010342D01*
X0196250Y0010438D01*
X0196132Y0010537D01*
X0196018Y0010638D01*
X0195906Y0010743D01*
X0195797Y0010851D01*
X0195691Y0010962D01*
X0195587Y0011075D01*
X0195487Y0011191D01*
X0195389Y0011309D01*
X0195295Y0011430D01*
X0195204Y0011553D01*
X0195116Y0011679D01*
X0195032Y0011807D01*
X0194950Y0011937D01*
X0194873Y0012069D01*
X0194798Y0012203D01*
X0194727Y0012339D01*
X0194660Y0012477D01*
X0194596Y0012617D01*
X0194536Y0012758D01*
X0194480Y0012900D01*
X0194427Y0013044D01*
X0194378Y0013190D01*
X0194333Y0013336D01*
X0194292Y0013484D01*
X0194255Y0013632D01*
X0194221Y0013782D01*
X0194191Y0013933D01*
X0194166Y0014084D01*
X0194144Y0014235D01*
X0194126Y0014388D01*
X0194112Y0014540D01*
X0194102Y0014693D01*
X0194096Y0014847D01*
X0194094Y0015000D01*
X0151594Y0285000D02*
X0151596Y0285153D01*
X0151602Y0285307D01*
X0151612Y0285460D01*
X0151626Y0285612D01*
X0151644Y0285765D01*
X0151666Y0285916D01*
X0151691Y0286067D01*
X0151721Y0286218D01*
X0151755Y0286368D01*
X0151792Y0286516D01*
X0151833Y0286664D01*
X0151878Y0286810D01*
X0151927Y0286956D01*
X0151980Y0287100D01*
X0152036Y0287242D01*
X0152096Y0287383D01*
X0152160Y0287523D01*
X0152227Y0287661D01*
X0152298Y0287797D01*
X0152373Y0287931D01*
X0152450Y0288063D01*
X0152532Y0288193D01*
X0152616Y0288321D01*
X0152704Y0288447D01*
X0152795Y0288570D01*
X0152889Y0288691D01*
X0152987Y0288809D01*
X0153087Y0288925D01*
X0153191Y0289038D01*
X0153297Y0289149D01*
X0153406Y0289257D01*
X0153518Y0289362D01*
X0153632Y0289463D01*
X0153750Y0289562D01*
X0153869Y0289658D01*
X0153991Y0289751D01*
X0154116Y0289840D01*
X0154243Y0289927D01*
X0154372Y0290009D01*
X0154503Y0290089D01*
X0154636Y0290165D01*
X0154771Y0290238D01*
X0154908Y0290307D01*
X0155047Y0290372D01*
X0155187Y0290434D01*
X0155329Y0290492D01*
X0155472Y0290547D01*
X0155617Y0290598D01*
X0155763Y0290645D01*
X0155910Y0290688D01*
X0156058Y0290727D01*
X0156207Y0290763D01*
X0156357Y0290794D01*
X0156508Y0290822D01*
X0156659Y0290846D01*
X0156812Y0290866D01*
X0156964Y0290882D01*
X0157117Y0290894D01*
X0157270Y0290902D01*
X0157423Y0290906D01*
X0157577Y0290906D01*
X0157730Y0290902D01*
X0157883Y0290894D01*
X0158036Y0290882D01*
X0158188Y0290866D01*
X0158341Y0290846D01*
X0158492Y0290822D01*
X0158643Y0290794D01*
X0158793Y0290763D01*
X0158942Y0290727D01*
X0159090Y0290688D01*
X0159237Y0290645D01*
X0159383Y0290598D01*
X0159528Y0290547D01*
X0159671Y0290492D01*
X0159813Y0290434D01*
X0159953Y0290372D01*
X0160092Y0290307D01*
X0160229Y0290238D01*
X0160364Y0290165D01*
X0160497Y0290089D01*
X0160628Y0290009D01*
X0160757Y0289927D01*
X0160884Y0289840D01*
X0161009Y0289751D01*
X0161131Y0289658D01*
X0161250Y0289562D01*
X0161368Y0289463D01*
X0161482Y0289362D01*
X0161594Y0289257D01*
X0161703Y0289149D01*
X0161809Y0289038D01*
X0161913Y0288925D01*
X0162013Y0288809D01*
X0162111Y0288691D01*
X0162205Y0288570D01*
X0162296Y0288447D01*
X0162384Y0288321D01*
X0162468Y0288193D01*
X0162550Y0288063D01*
X0162627Y0287931D01*
X0162702Y0287797D01*
X0162773Y0287661D01*
X0162840Y0287523D01*
X0162904Y0287383D01*
X0162964Y0287242D01*
X0163020Y0287100D01*
X0163073Y0286956D01*
X0163122Y0286810D01*
X0163167Y0286664D01*
X0163208Y0286516D01*
X0163245Y0286368D01*
X0163279Y0286218D01*
X0163309Y0286067D01*
X0163334Y0285916D01*
X0163356Y0285765D01*
X0163374Y0285612D01*
X0163388Y0285460D01*
X0163398Y0285307D01*
X0163404Y0285153D01*
X0163406Y0285000D01*
X0163404Y0284847D01*
X0163398Y0284693D01*
X0163388Y0284540D01*
X0163374Y0284388D01*
X0163356Y0284235D01*
X0163334Y0284084D01*
X0163309Y0283933D01*
X0163279Y0283782D01*
X0163245Y0283632D01*
X0163208Y0283484D01*
X0163167Y0283336D01*
X0163122Y0283190D01*
X0163073Y0283044D01*
X0163020Y0282900D01*
X0162964Y0282758D01*
X0162904Y0282617D01*
X0162840Y0282477D01*
X0162773Y0282339D01*
X0162702Y0282203D01*
X0162627Y0282069D01*
X0162550Y0281937D01*
X0162468Y0281807D01*
X0162384Y0281679D01*
X0162296Y0281553D01*
X0162205Y0281430D01*
X0162111Y0281309D01*
X0162013Y0281191D01*
X0161913Y0281075D01*
X0161809Y0280962D01*
X0161703Y0280851D01*
X0161594Y0280743D01*
X0161482Y0280638D01*
X0161368Y0280537D01*
X0161250Y0280438D01*
X0161131Y0280342D01*
X0161009Y0280249D01*
X0160884Y0280160D01*
X0160757Y0280073D01*
X0160628Y0279991D01*
X0160497Y0279911D01*
X0160364Y0279835D01*
X0160229Y0279762D01*
X0160092Y0279693D01*
X0159953Y0279628D01*
X0159813Y0279566D01*
X0159671Y0279508D01*
X0159528Y0279453D01*
X0159383Y0279402D01*
X0159237Y0279355D01*
X0159090Y0279312D01*
X0158942Y0279273D01*
X0158793Y0279237D01*
X0158643Y0279206D01*
X0158492Y0279178D01*
X0158341Y0279154D01*
X0158188Y0279134D01*
X0158036Y0279118D01*
X0157883Y0279106D01*
X0157730Y0279098D01*
X0157577Y0279094D01*
X0157423Y0279094D01*
X0157270Y0279098D01*
X0157117Y0279106D01*
X0156964Y0279118D01*
X0156812Y0279134D01*
X0156659Y0279154D01*
X0156508Y0279178D01*
X0156357Y0279206D01*
X0156207Y0279237D01*
X0156058Y0279273D01*
X0155910Y0279312D01*
X0155763Y0279355D01*
X0155617Y0279402D01*
X0155472Y0279453D01*
X0155329Y0279508D01*
X0155187Y0279566D01*
X0155047Y0279628D01*
X0154908Y0279693D01*
X0154771Y0279762D01*
X0154636Y0279835D01*
X0154503Y0279911D01*
X0154372Y0279991D01*
X0154243Y0280073D01*
X0154116Y0280160D01*
X0153991Y0280249D01*
X0153869Y0280342D01*
X0153750Y0280438D01*
X0153632Y0280537D01*
X0153518Y0280638D01*
X0153406Y0280743D01*
X0153297Y0280851D01*
X0153191Y0280962D01*
X0153087Y0281075D01*
X0152987Y0281191D01*
X0152889Y0281309D01*
X0152795Y0281430D01*
X0152704Y0281553D01*
X0152616Y0281679D01*
X0152532Y0281807D01*
X0152450Y0281937D01*
X0152373Y0282069D01*
X0152298Y0282203D01*
X0152227Y0282339D01*
X0152160Y0282477D01*
X0152096Y0282617D01*
X0152036Y0282758D01*
X0151980Y0282900D01*
X0151927Y0283044D01*
X0151878Y0283190D01*
X0151833Y0283336D01*
X0151792Y0283484D01*
X0151755Y0283632D01*
X0151721Y0283782D01*
X0151691Y0283933D01*
X0151666Y0284084D01*
X0151644Y0284235D01*
X0151626Y0284388D01*
X0151612Y0284540D01*
X0151602Y0284693D01*
X0151596Y0284847D01*
X0151594Y0285000D01*
D12*
X0196653Y0131543D02*
X0196052Y0130943D01*
X0196052Y0129742D01*
X0196653Y0129141D01*
X0199055Y0129141D01*
X0199655Y0129742D01*
X0199655Y0130943D01*
X0199055Y0131543D01*
X0197854Y0131543D01*
X0197854Y0130342D01*
X0198454Y0127860D02*
X0199055Y0127860D01*
X0199655Y0127259D01*
X0199655Y0125458D01*
X0196052Y0125458D01*
X0196052Y0127259D01*
X0196653Y0127860D01*
X0197253Y0127860D01*
X0197854Y0127259D01*
X0197854Y0125458D01*
X0199055Y0124177D02*
X0196653Y0124177D01*
X0196052Y0123576D01*
X0196052Y0121775D01*
X0199655Y0121775D01*
X0199655Y0123576D01*
X0199055Y0124177D01*
X0197854Y0127259D02*
X0198454Y0127860D01*
X0133839Y0024804D02*
X0133839Y0020200D01*
X0135373Y0020200D02*
X0132304Y0020200D01*
X0130769Y0020200D02*
X0127700Y0024804D01*
X0130769Y0024804D02*
X0127700Y0020200D01*
X0132304Y0023269D02*
X0133839Y0024804D01*
D13*
X0188500Y0015000D02*
X0188503Y0015282D01*
X0188514Y0015564D01*
X0188531Y0015846D01*
X0188555Y0016127D01*
X0188586Y0016408D01*
X0188624Y0016687D01*
X0188669Y0016966D01*
X0188721Y0017244D01*
X0188779Y0017520D01*
X0188845Y0017794D01*
X0188917Y0018067D01*
X0188995Y0018338D01*
X0189080Y0018607D01*
X0189172Y0018874D01*
X0189271Y0019139D01*
X0189375Y0019401D01*
X0189487Y0019660D01*
X0189604Y0019917D01*
X0189728Y0020171D01*
X0189858Y0020421D01*
X0189994Y0020668D01*
X0190136Y0020912D01*
X0190284Y0021152D01*
X0190438Y0021389D01*
X0190598Y0021622D01*
X0190763Y0021851D01*
X0190934Y0022075D01*
X0191110Y0022296D01*
X0191292Y0022511D01*
X0191479Y0022723D01*
X0191671Y0022930D01*
X0191868Y0023132D01*
X0192070Y0023329D01*
X0192277Y0023521D01*
X0192489Y0023708D01*
X0192704Y0023890D01*
X0192925Y0024066D01*
X0193149Y0024237D01*
X0193378Y0024402D01*
X0193611Y0024562D01*
X0193848Y0024716D01*
X0194088Y0024864D01*
X0194332Y0025006D01*
X0194579Y0025142D01*
X0194829Y0025272D01*
X0195083Y0025396D01*
X0195340Y0025513D01*
X0195599Y0025625D01*
X0195861Y0025729D01*
X0196126Y0025828D01*
X0196393Y0025920D01*
X0196662Y0026005D01*
X0196933Y0026083D01*
X0197206Y0026155D01*
X0197480Y0026221D01*
X0197756Y0026279D01*
X0198034Y0026331D01*
X0198313Y0026376D01*
X0198592Y0026414D01*
X0198873Y0026445D01*
X0199154Y0026469D01*
X0199436Y0026486D01*
X0199718Y0026497D01*
X0200000Y0026500D01*
X0200282Y0026497D01*
X0200564Y0026486D01*
X0200846Y0026469D01*
X0201127Y0026445D01*
X0201408Y0026414D01*
X0201687Y0026376D01*
X0201966Y0026331D01*
X0202244Y0026279D01*
X0202520Y0026221D01*
X0202794Y0026155D01*
X0203067Y0026083D01*
X0203338Y0026005D01*
X0203607Y0025920D01*
X0203874Y0025828D01*
X0204139Y0025729D01*
X0204401Y0025625D01*
X0204660Y0025513D01*
X0204917Y0025396D01*
X0205171Y0025272D01*
X0205421Y0025142D01*
X0205668Y0025006D01*
X0205912Y0024864D01*
X0206152Y0024716D01*
X0206389Y0024562D01*
X0206622Y0024402D01*
X0206851Y0024237D01*
X0207075Y0024066D01*
X0207296Y0023890D01*
X0207511Y0023708D01*
X0207723Y0023521D01*
X0207930Y0023329D01*
X0208132Y0023132D01*
X0208329Y0022930D01*
X0208521Y0022723D01*
X0208708Y0022511D01*
X0208890Y0022296D01*
X0209066Y0022075D01*
X0209237Y0021851D01*
X0209402Y0021622D01*
X0209562Y0021389D01*
X0209716Y0021152D01*
X0209864Y0020912D01*
X0210006Y0020668D01*
X0210142Y0020421D01*
X0210272Y0020171D01*
X0210396Y0019917D01*
X0210513Y0019660D01*
X0210625Y0019401D01*
X0210729Y0019139D01*
X0210828Y0018874D01*
X0210920Y0018607D01*
X0211005Y0018338D01*
X0211083Y0018067D01*
X0211155Y0017794D01*
X0211221Y0017520D01*
X0211279Y0017244D01*
X0211331Y0016966D01*
X0211376Y0016687D01*
X0211414Y0016408D01*
X0211445Y0016127D01*
X0211469Y0015846D01*
X0211486Y0015564D01*
X0211497Y0015282D01*
X0211500Y0015000D01*
X0211497Y0014718D01*
X0211486Y0014436D01*
X0211469Y0014154D01*
X0211445Y0013873D01*
X0211414Y0013592D01*
X0211376Y0013313D01*
X0211331Y0013034D01*
X0211279Y0012756D01*
X0211221Y0012480D01*
X0211155Y0012206D01*
X0211083Y0011933D01*
X0211005Y0011662D01*
X0210920Y0011393D01*
X0210828Y0011126D01*
X0210729Y0010861D01*
X0210625Y0010599D01*
X0210513Y0010340D01*
X0210396Y0010083D01*
X0210272Y0009829D01*
X0210142Y0009579D01*
X0210006Y0009332D01*
X0209864Y0009088D01*
X0209716Y0008848D01*
X0209562Y0008611D01*
X0209402Y0008378D01*
X0209237Y0008149D01*
X0209066Y0007925D01*
X0208890Y0007704D01*
X0208708Y0007489D01*
X0208521Y0007277D01*
X0208329Y0007070D01*
X0208132Y0006868D01*
X0207930Y0006671D01*
X0207723Y0006479D01*
X0207511Y0006292D01*
X0207296Y0006110D01*
X0207075Y0005934D01*
X0206851Y0005763D01*
X0206622Y0005598D01*
X0206389Y0005438D01*
X0206152Y0005284D01*
X0205912Y0005136D01*
X0205668Y0004994D01*
X0205421Y0004858D01*
X0205171Y0004728D01*
X0204917Y0004604D01*
X0204660Y0004487D01*
X0204401Y0004375D01*
X0204139Y0004271D01*
X0203874Y0004172D01*
X0203607Y0004080D01*
X0203338Y0003995D01*
X0203067Y0003917D01*
X0202794Y0003845D01*
X0202520Y0003779D01*
X0202244Y0003721D01*
X0201966Y0003669D01*
X0201687Y0003624D01*
X0201408Y0003586D01*
X0201127Y0003555D01*
X0200846Y0003531D01*
X0200564Y0003514D01*
X0200282Y0003503D01*
X0200000Y0003500D01*
X0199718Y0003503D01*
X0199436Y0003514D01*
X0199154Y0003531D01*
X0198873Y0003555D01*
X0198592Y0003586D01*
X0198313Y0003624D01*
X0198034Y0003669D01*
X0197756Y0003721D01*
X0197480Y0003779D01*
X0197206Y0003845D01*
X0196933Y0003917D01*
X0196662Y0003995D01*
X0196393Y0004080D01*
X0196126Y0004172D01*
X0195861Y0004271D01*
X0195599Y0004375D01*
X0195340Y0004487D01*
X0195083Y0004604D01*
X0194829Y0004728D01*
X0194579Y0004858D01*
X0194332Y0004994D01*
X0194088Y0005136D01*
X0193848Y0005284D01*
X0193611Y0005438D01*
X0193378Y0005598D01*
X0193149Y0005763D01*
X0192925Y0005934D01*
X0192704Y0006110D01*
X0192489Y0006292D01*
X0192277Y0006479D01*
X0192070Y0006671D01*
X0191868Y0006868D01*
X0191671Y0007070D01*
X0191479Y0007277D01*
X0191292Y0007489D01*
X0191110Y0007704D01*
X0190934Y0007925D01*
X0190763Y0008149D01*
X0190598Y0008378D01*
X0190438Y0008611D01*
X0190284Y0008848D01*
X0190136Y0009088D01*
X0189994Y0009332D01*
X0189858Y0009579D01*
X0189728Y0009829D01*
X0189604Y0010083D01*
X0189487Y0010340D01*
X0189375Y0010599D01*
X0189271Y0010861D01*
X0189172Y0011126D01*
X0189080Y0011393D01*
X0188995Y0011662D01*
X0188917Y0011933D01*
X0188845Y0012206D01*
X0188779Y0012480D01*
X0188721Y0012756D01*
X0188669Y0013034D01*
X0188624Y0013313D01*
X0188586Y0013592D01*
X0188555Y0013873D01*
X0188531Y0014154D01*
X0188514Y0014436D01*
X0188503Y0014718D01*
X0188500Y0015000D01*
X0003500Y0177500D02*
X0003503Y0177782D01*
X0003514Y0178064D01*
X0003531Y0178346D01*
X0003555Y0178627D01*
X0003586Y0178908D01*
X0003624Y0179187D01*
X0003669Y0179466D01*
X0003721Y0179744D01*
X0003779Y0180020D01*
X0003845Y0180294D01*
X0003917Y0180567D01*
X0003995Y0180838D01*
X0004080Y0181107D01*
X0004172Y0181374D01*
X0004271Y0181639D01*
X0004375Y0181901D01*
X0004487Y0182160D01*
X0004604Y0182417D01*
X0004728Y0182671D01*
X0004858Y0182921D01*
X0004994Y0183168D01*
X0005136Y0183412D01*
X0005284Y0183652D01*
X0005438Y0183889D01*
X0005598Y0184122D01*
X0005763Y0184351D01*
X0005934Y0184575D01*
X0006110Y0184796D01*
X0006292Y0185011D01*
X0006479Y0185223D01*
X0006671Y0185430D01*
X0006868Y0185632D01*
X0007070Y0185829D01*
X0007277Y0186021D01*
X0007489Y0186208D01*
X0007704Y0186390D01*
X0007925Y0186566D01*
X0008149Y0186737D01*
X0008378Y0186902D01*
X0008611Y0187062D01*
X0008848Y0187216D01*
X0009088Y0187364D01*
X0009332Y0187506D01*
X0009579Y0187642D01*
X0009829Y0187772D01*
X0010083Y0187896D01*
X0010340Y0188013D01*
X0010599Y0188125D01*
X0010861Y0188229D01*
X0011126Y0188328D01*
X0011393Y0188420D01*
X0011662Y0188505D01*
X0011933Y0188583D01*
X0012206Y0188655D01*
X0012480Y0188721D01*
X0012756Y0188779D01*
X0013034Y0188831D01*
X0013313Y0188876D01*
X0013592Y0188914D01*
X0013873Y0188945D01*
X0014154Y0188969D01*
X0014436Y0188986D01*
X0014718Y0188997D01*
X0015000Y0189000D01*
X0015282Y0188997D01*
X0015564Y0188986D01*
X0015846Y0188969D01*
X0016127Y0188945D01*
X0016408Y0188914D01*
X0016687Y0188876D01*
X0016966Y0188831D01*
X0017244Y0188779D01*
X0017520Y0188721D01*
X0017794Y0188655D01*
X0018067Y0188583D01*
X0018338Y0188505D01*
X0018607Y0188420D01*
X0018874Y0188328D01*
X0019139Y0188229D01*
X0019401Y0188125D01*
X0019660Y0188013D01*
X0019917Y0187896D01*
X0020171Y0187772D01*
X0020421Y0187642D01*
X0020668Y0187506D01*
X0020912Y0187364D01*
X0021152Y0187216D01*
X0021389Y0187062D01*
X0021622Y0186902D01*
X0021851Y0186737D01*
X0022075Y0186566D01*
X0022296Y0186390D01*
X0022511Y0186208D01*
X0022723Y0186021D01*
X0022930Y0185829D01*
X0023132Y0185632D01*
X0023329Y0185430D01*
X0023521Y0185223D01*
X0023708Y0185011D01*
X0023890Y0184796D01*
X0024066Y0184575D01*
X0024237Y0184351D01*
X0024402Y0184122D01*
X0024562Y0183889D01*
X0024716Y0183652D01*
X0024864Y0183412D01*
X0025006Y0183168D01*
X0025142Y0182921D01*
X0025272Y0182671D01*
X0025396Y0182417D01*
X0025513Y0182160D01*
X0025625Y0181901D01*
X0025729Y0181639D01*
X0025828Y0181374D01*
X0025920Y0181107D01*
X0026005Y0180838D01*
X0026083Y0180567D01*
X0026155Y0180294D01*
X0026221Y0180020D01*
X0026279Y0179744D01*
X0026331Y0179466D01*
X0026376Y0179187D01*
X0026414Y0178908D01*
X0026445Y0178627D01*
X0026469Y0178346D01*
X0026486Y0178064D01*
X0026497Y0177782D01*
X0026500Y0177500D01*
X0026497Y0177218D01*
X0026486Y0176936D01*
X0026469Y0176654D01*
X0026445Y0176373D01*
X0026414Y0176092D01*
X0026376Y0175813D01*
X0026331Y0175534D01*
X0026279Y0175256D01*
X0026221Y0174980D01*
X0026155Y0174706D01*
X0026083Y0174433D01*
X0026005Y0174162D01*
X0025920Y0173893D01*
X0025828Y0173626D01*
X0025729Y0173361D01*
X0025625Y0173099D01*
X0025513Y0172840D01*
X0025396Y0172583D01*
X0025272Y0172329D01*
X0025142Y0172079D01*
X0025006Y0171832D01*
X0024864Y0171588D01*
X0024716Y0171348D01*
X0024562Y0171111D01*
X0024402Y0170878D01*
X0024237Y0170649D01*
X0024066Y0170425D01*
X0023890Y0170204D01*
X0023708Y0169989D01*
X0023521Y0169777D01*
X0023329Y0169570D01*
X0023132Y0169368D01*
X0022930Y0169171D01*
X0022723Y0168979D01*
X0022511Y0168792D01*
X0022296Y0168610D01*
X0022075Y0168434D01*
X0021851Y0168263D01*
X0021622Y0168098D01*
X0021389Y0167938D01*
X0021152Y0167784D01*
X0020912Y0167636D01*
X0020668Y0167494D01*
X0020421Y0167358D01*
X0020171Y0167228D01*
X0019917Y0167104D01*
X0019660Y0166987D01*
X0019401Y0166875D01*
X0019139Y0166771D01*
X0018874Y0166672D01*
X0018607Y0166580D01*
X0018338Y0166495D01*
X0018067Y0166417D01*
X0017794Y0166345D01*
X0017520Y0166279D01*
X0017244Y0166221D01*
X0016966Y0166169D01*
X0016687Y0166124D01*
X0016408Y0166086D01*
X0016127Y0166055D01*
X0015846Y0166031D01*
X0015564Y0166014D01*
X0015282Y0166003D01*
X0015000Y0166000D01*
X0014718Y0166003D01*
X0014436Y0166014D01*
X0014154Y0166031D01*
X0013873Y0166055D01*
X0013592Y0166086D01*
X0013313Y0166124D01*
X0013034Y0166169D01*
X0012756Y0166221D01*
X0012480Y0166279D01*
X0012206Y0166345D01*
X0011933Y0166417D01*
X0011662Y0166495D01*
X0011393Y0166580D01*
X0011126Y0166672D01*
X0010861Y0166771D01*
X0010599Y0166875D01*
X0010340Y0166987D01*
X0010083Y0167104D01*
X0009829Y0167228D01*
X0009579Y0167358D01*
X0009332Y0167494D01*
X0009088Y0167636D01*
X0008848Y0167784D01*
X0008611Y0167938D01*
X0008378Y0168098D01*
X0008149Y0168263D01*
X0007925Y0168434D01*
X0007704Y0168610D01*
X0007489Y0168792D01*
X0007277Y0168979D01*
X0007070Y0169171D01*
X0006868Y0169368D01*
X0006671Y0169570D01*
X0006479Y0169777D01*
X0006292Y0169989D01*
X0006110Y0170204D01*
X0005934Y0170425D01*
X0005763Y0170649D01*
X0005598Y0170878D01*
X0005438Y0171111D01*
X0005284Y0171348D01*
X0005136Y0171588D01*
X0004994Y0171832D01*
X0004858Y0172079D01*
X0004728Y0172329D01*
X0004604Y0172583D01*
X0004487Y0172840D01*
X0004375Y0173099D01*
X0004271Y0173361D01*
X0004172Y0173626D01*
X0004080Y0173893D01*
X0003995Y0174162D01*
X0003917Y0174433D01*
X0003845Y0174706D01*
X0003779Y0174980D01*
X0003721Y0175256D01*
X0003669Y0175534D01*
X0003624Y0175813D01*
X0003586Y0176092D01*
X0003555Y0176373D01*
X0003531Y0176654D01*
X0003514Y0176936D01*
X0003503Y0177218D01*
X0003500Y0177500D01*
X0146000Y0285000D02*
X0146003Y0285282D01*
X0146014Y0285564D01*
X0146031Y0285846D01*
X0146055Y0286127D01*
X0146086Y0286408D01*
X0146124Y0286687D01*
X0146169Y0286966D01*
X0146221Y0287244D01*
X0146279Y0287520D01*
X0146345Y0287794D01*
X0146417Y0288067D01*
X0146495Y0288338D01*
X0146580Y0288607D01*
X0146672Y0288874D01*
X0146771Y0289139D01*
X0146875Y0289401D01*
X0146987Y0289660D01*
X0147104Y0289917D01*
X0147228Y0290171D01*
X0147358Y0290421D01*
X0147494Y0290668D01*
X0147636Y0290912D01*
X0147784Y0291152D01*
X0147938Y0291389D01*
X0148098Y0291622D01*
X0148263Y0291851D01*
X0148434Y0292075D01*
X0148610Y0292296D01*
X0148792Y0292511D01*
X0148979Y0292723D01*
X0149171Y0292930D01*
X0149368Y0293132D01*
X0149570Y0293329D01*
X0149777Y0293521D01*
X0149989Y0293708D01*
X0150204Y0293890D01*
X0150425Y0294066D01*
X0150649Y0294237D01*
X0150878Y0294402D01*
X0151111Y0294562D01*
X0151348Y0294716D01*
X0151588Y0294864D01*
X0151832Y0295006D01*
X0152079Y0295142D01*
X0152329Y0295272D01*
X0152583Y0295396D01*
X0152840Y0295513D01*
X0153099Y0295625D01*
X0153361Y0295729D01*
X0153626Y0295828D01*
X0153893Y0295920D01*
X0154162Y0296005D01*
X0154433Y0296083D01*
X0154706Y0296155D01*
X0154980Y0296221D01*
X0155256Y0296279D01*
X0155534Y0296331D01*
X0155813Y0296376D01*
X0156092Y0296414D01*
X0156373Y0296445D01*
X0156654Y0296469D01*
X0156936Y0296486D01*
X0157218Y0296497D01*
X0157500Y0296500D01*
X0157782Y0296497D01*
X0158064Y0296486D01*
X0158346Y0296469D01*
X0158627Y0296445D01*
X0158908Y0296414D01*
X0159187Y0296376D01*
X0159466Y0296331D01*
X0159744Y0296279D01*
X0160020Y0296221D01*
X0160294Y0296155D01*
X0160567Y0296083D01*
X0160838Y0296005D01*
X0161107Y0295920D01*
X0161374Y0295828D01*
X0161639Y0295729D01*
X0161901Y0295625D01*
X0162160Y0295513D01*
X0162417Y0295396D01*
X0162671Y0295272D01*
X0162921Y0295142D01*
X0163168Y0295006D01*
X0163412Y0294864D01*
X0163652Y0294716D01*
X0163889Y0294562D01*
X0164122Y0294402D01*
X0164351Y0294237D01*
X0164575Y0294066D01*
X0164796Y0293890D01*
X0165011Y0293708D01*
X0165223Y0293521D01*
X0165430Y0293329D01*
X0165632Y0293132D01*
X0165829Y0292930D01*
X0166021Y0292723D01*
X0166208Y0292511D01*
X0166390Y0292296D01*
X0166566Y0292075D01*
X0166737Y0291851D01*
X0166902Y0291622D01*
X0167062Y0291389D01*
X0167216Y0291152D01*
X0167364Y0290912D01*
X0167506Y0290668D01*
X0167642Y0290421D01*
X0167772Y0290171D01*
X0167896Y0289917D01*
X0168013Y0289660D01*
X0168125Y0289401D01*
X0168229Y0289139D01*
X0168328Y0288874D01*
X0168420Y0288607D01*
X0168505Y0288338D01*
X0168583Y0288067D01*
X0168655Y0287794D01*
X0168721Y0287520D01*
X0168779Y0287244D01*
X0168831Y0286966D01*
X0168876Y0286687D01*
X0168914Y0286408D01*
X0168945Y0286127D01*
X0168969Y0285846D01*
X0168986Y0285564D01*
X0168997Y0285282D01*
X0169000Y0285000D01*
X0168997Y0284718D01*
X0168986Y0284436D01*
X0168969Y0284154D01*
X0168945Y0283873D01*
X0168914Y0283592D01*
X0168876Y0283313D01*
X0168831Y0283034D01*
X0168779Y0282756D01*
X0168721Y0282480D01*
X0168655Y0282206D01*
X0168583Y0281933D01*
X0168505Y0281662D01*
X0168420Y0281393D01*
X0168328Y0281126D01*
X0168229Y0280861D01*
X0168125Y0280599D01*
X0168013Y0280340D01*
X0167896Y0280083D01*
X0167772Y0279829D01*
X0167642Y0279579D01*
X0167506Y0279332D01*
X0167364Y0279088D01*
X0167216Y0278848D01*
X0167062Y0278611D01*
X0166902Y0278378D01*
X0166737Y0278149D01*
X0166566Y0277925D01*
X0166390Y0277704D01*
X0166208Y0277489D01*
X0166021Y0277277D01*
X0165829Y0277070D01*
X0165632Y0276868D01*
X0165430Y0276671D01*
X0165223Y0276479D01*
X0165011Y0276292D01*
X0164796Y0276110D01*
X0164575Y0275934D01*
X0164351Y0275763D01*
X0164122Y0275598D01*
X0163889Y0275438D01*
X0163652Y0275284D01*
X0163412Y0275136D01*
X0163168Y0274994D01*
X0162921Y0274858D01*
X0162671Y0274728D01*
X0162417Y0274604D01*
X0162160Y0274487D01*
X0161901Y0274375D01*
X0161639Y0274271D01*
X0161374Y0274172D01*
X0161107Y0274080D01*
X0160838Y0273995D01*
X0160567Y0273917D01*
X0160294Y0273845D01*
X0160020Y0273779D01*
X0159744Y0273721D01*
X0159466Y0273669D01*
X0159187Y0273624D01*
X0158908Y0273586D01*
X0158627Y0273555D01*
X0158346Y0273531D01*
X0158064Y0273514D01*
X0157782Y0273503D01*
X0157500Y0273500D01*
X0157218Y0273503D01*
X0156936Y0273514D01*
X0156654Y0273531D01*
X0156373Y0273555D01*
X0156092Y0273586D01*
X0155813Y0273624D01*
X0155534Y0273669D01*
X0155256Y0273721D01*
X0154980Y0273779D01*
X0154706Y0273845D01*
X0154433Y0273917D01*
X0154162Y0273995D01*
X0153893Y0274080D01*
X0153626Y0274172D01*
X0153361Y0274271D01*
X0153099Y0274375D01*
X0152840Y0274487D01*
X0152583Y0274604D01*
X0152329Y0274728D01*
X0152079Y0274858D01*
X0151832Y0274994D01*
X0151588Y0275136D01*
X0151348Y0275284D01*
X0151111Y0275438D01*
X0150878Y0275598D01*
X0150649Y0275763D01*
X0150425Y0275934D01*
X0150204Y0276110D01*
X0149989Y0276292D01*
X0149777Y0276479D01*
X0149570Y0276671D01*
X0149368Y0276868D01*
X0149171Y0277070D01*
X0148979Y0277277D01*
X0148792Y0277489D01*
X0148610Y0277704D01*
X0148434Y0277925D01*
X0148263Y0278149D01*
X0148098Y0278378D01*
X0147938Y0278611D01*
X0147784Y0278848D01*
X0147636Y0279088D01*
X0147494Y0279332D01*
X0147358Y0279579D01*
X0147228Y0279829D01*
X0147104Y0280083D01*
X0146987Y0280340D01*
X0146875Y0280599D01*
X0146771Y0280861D01*
X0146672Y0281126D01*
X0146580Y0281393D01*
X0146495Y0281662D01*
X0146417Y0281933D01*
X0146345Y0282206D01*
X0146279Y0282480D01*
X0146221Y0282756D01*
X0146169Y0283034D01*
X0146124Y0283313D01*
X0146086Y0283592D01*
X0146055Y0283873D01*
X0146031Y0284154D01*
X0146014Y0284436D01*
X0146003Y0284718D01*
X0146000Y0285000D01*
D14*
X0160413Y0135374D02*
X0160415Y0135413D01*
X0160421Y0135452D01*
X0160431Y0135490D01*
X0160444Y0135527D01*
X0160461Y0135562D01*
X0160481Y0135596D01*
X0160505Y0135627D01*
X0160532Y0135656D01*
X0160561Y0135682D01*
X0160593Y0135705D01*
X0160627Y0135725D01*
X0160663Y0135741D01*
X0160700Y0135753D01*
X0160739Y0135762D01*
X0160778Y0135767D01*
X0160817Y0135768D01*
X0160856Y0135765D01*
X0160895Y0135758D01*
X0160932Y0135747D01*
X0160969Y0135733D01*
X0161004Y0135715D01*
X0161037Y0135694D01*
X0161068Y0135669D01*
X0161096Y0135642D01*
X0161121Y0135612D01*
X0161143Y0135579D01*
X0161162Y0135545D01*
X0161177Y0135509D01*
X0161189Y0135471D01*
X0161197Y0135433D01*
X0161201Y0135394D01*
X0161201Y0135354D01*
X0161197Y0135315D01*
X0161189Y0135277D01*
X0161177Y0135239D01*
X0161162Y0135203D01*
X0161143Y0135169D01*
X0161121Y0135136D01*
X0161096Y0135106D01*
X0161068Y0135079D01*
X0161037Y0135054D01*
X0161004Y0135033D01*
X0160969Y0135015D01*
X0160932Y0135001D01*
X0160895Y0134990D01*
X0160856Y0134983D01*
X0160817Y0134980D01*
X0160778Y0134981D01*
X0160739Y0134986D01*
X0160700Y0134995D01*
X0160663Y0135007D01*
X0160627Y0135023D01*
X0160593Y0135043D01*
X0160561Y0135066D01*
X0160532Y0135092D01*
X0160505Y0135121D01*
X0160481Y0135152D01*
X0160461Y0135186D01*
X0160444Y0135221D01*
X0160431Y0135258D01*
X0160421Y0135296D01*
X0160415Y0135335D01*
X0160413Y0135374D01*
M02*
