G75*
%MOIN*%
%OFA0B0*%
%FSLAX25Y25*%
%IPPOS*%
%LPD*%
%AMOC8*
5,1,8,0,0,1.08239X$1,22.5*
%
%ADD10C,0.00000*%
D10*
X0002500Y0002500D02*
X0002500Y0297461D01*
X0002500Y0297500D02*
X0212500Y0297500D01*
X0212500Y0002500D01*
X0002500Y0002500D01*
X0006516Y0157500D02*
X0006518Y0157562D01*
X0006524Y0157625D01*
X0006534Y0157686D01*
X0006548Y0157747D01*
X0006565Y0157807D01*
X0006586Y0157866D01*
X0006612Y0157923D01*
X0006640Y0157978D01*
X0006672Y0158032D01*
X0006708Y0158083D01*
X0006746Y0158133D01*
X0006788Y0158179D01*
X0006832Y0158223D01*
X0006880Y0158264D01*
X0006929Y0158302D01*
X0006981Y0158336D01*
X0007035Y0158367D01*
X0007091Y0158395D01*
X0007149Y0158419D01*
X0007208Y0158440D01*
X0007268Y0158456D01*
X0007329Y0158469D01*
X0007391Y0158478D01*
X0007453Y0158483D01*
X0007516Y0158484D01*
X0007578Y0158481D01*
X0007640Y0158474D01*
X0007702Y0158463D01*
X0007762Y0158448D01*
X0007822Y0158430D01*
X0007880Y0158408D01*
X0007937Y0158382D01*
X0007992Y0158352D01*
X0008045Y0158319D01*
X0008096Y0158283D01*
X0008144Y0158244D01*
X0008190Y0158201D01*
X0008233Y0158156D01*
X0008273Y0158108D01*
X0008310Y0158058D01*
X0008344Y0158005D01*
X0008375Y0157951D01*
X0008401Y0157895D01*
X0008425Y0157837D01*
X0008444Y0157777D01*
X0008460Y0157717D01*
X0008472Y0157655D01*
X0008480Y0157594D01*
X0008484Y0157531D01*
X0008484Y0157469D01*
X0008480Y0157406D01*
X0008472Y0157345D01*
X0008460Y0157283D01*
X0008444Y0157223D01*
X0008425Y0157163D01*
X0008401Y0157105D01*
X0008375Y0157049D01*
X0008344Y0156995D01*
X0008310Y0156942D01*
X0008273Y0156892D01*
X0008233Y0156844D01*
X0008190Y0156799D01*
X0008144Y0156756D01*
X0008096Y0156717D01*
X0008045Y0156681D01*
X0007992Y0156648D01*
X0007937Y0156618D01*
X0007880Y0156592D01*
X0007822Y0156570D01*
X0007762Y0156552D01*
X0007702Y0156537D01*
X0007640Y0156526D01*
X0007578Y0156519D01*
X0007516Y0156516D01*
X0007453Y0156517D01*
X0007391Y0156522D01*
X0007329Y0156531D01*
X0007268Y0156544D01*
X0007208Y0156560D01*
X0007149Y0156581D01*
X0007091Y0156605D01*
X0007035Y0156633D01*
X0006981Y0156664D01*
X0006929Y0156698D01*
X0006880Y0156736D01*
X0006832Y0156777D01*
X0006788Y0156821D01*
X0006746Y0156867D01*
X0006708Y0156917D01*
X0006672Y0156968D01*
X0006640Y0157022D01*
X0006612Y0157077D01*
X0006586Y0157134D01*
X0006565Y0157193D01*
X0006548Y0157253D01*
X0006534Y0157314D01*
X0006524Y0157375D01*
X0006518Y0157438D01*
X0006516Y0157500D01*
X0011516Y0157500D02*
X0011518Y0157562D01*
X0011524Y0157625D01*
X0011534Y0157686D01*
X0011548Y0157747D01*
X0011565Y0157807D01*
X0011586Y0157866D01*
X0011612Y0157923D01*
X0011640Y0157978D01*
X0011672Y0158032D01*
X0011708Y0158083D01*
X0011746Y0158133D01*
X0011788Y0158179D01*
X0011832Y0158223D01*
X0011880Y0158264D01*
X0011929Y0158302D01*
X0011981Y0158336D01*
X0012035Y0158367D01*
X0012091Y0158395D01*
X0012149Y0158419D01*
X0012208Y0158440D01*
X0012268Y0158456D01*
X0012329Y0158469D01*
X0012391Y0158478D01*
X0012453Y0158483D01*
X0012516Y0158484D01*
X0012578Y0158481D01*
X0012640Y0158474D01*
X0012702Y0158463D01*
X0012762Y0158448D01*
X0012822Y0158430D01*
X0012880Y0158408D01*
X0012937Y0158382D01*
X0012992Y0158352D01*
X0013045Y0158319D01*
X0013096Y0158283D01*
X0013144Y0158244D01*
X0013190Y0158201D01*
X0013233Y0158156D01*
X0013273Y0158108D01*
X0013310Y0158058D01*
X0013344Y0158005D01*
X0013375Y0157951D01*
X0013401Y0157895D01*
X0013425Y0157837D01*
X0013444Y0157777D01*
X0013460Y0157717D01*
X0013472Y0157655D01*
X0013480Y0157594D01*
X0013484Y0157531D01*
X0013484Y0157469D01*
X0013480Y0157406D01*
X0013472Y0157345D01*
X0013460Y0157283D01*
X0013444Y0157223D01*
X0013425Y0157163D01*
X0013401Y0157105D01*
X0013375Y0157049D01*
X0013344Y0156995D01*
X0013310Y0156942D01*
X0013273Y0156892D01*
X0013233Y0156844D01*
X0013190Y0156799D01*
X0013144Y0156756D01*
X0013096Y0156717D01*
X0013045Y0156681D01*
X0012992Y0156648D01*
X0012937Y0156618D01*
X0012880Y0156592D01*
X0012822Y0156570D01*
X0012762Y0156552D01*
X0012702Y0156537D01*
X0012640Y0156526D01*
X0012578Y0156519D01*
X0012516Y0156516D01*
X0012453Y0156517D01*
X0012391Y0156522D01*
X0012329Y0156531D01*
X0012268Y0156544D01*
X0012208Y0156560D01*
X0012149Y0156581D01*
X0012091Y0156605D01*
X0012035Y0156633D01*
X0011981Y0156664D01*
X0011929Y0156698D01*
X0011880Y0156736D01*
X0011832Y0156777D01*
X0011788Y0156821D01*
X0011746Y0156867D01*
X0011708Y0156917D01*
X0011672Y0156968D01*
X0011640Y0157022D01*
X0011612Y0157077D01*
X0011586Y0157134D01*
X0011565Y0157193D01*
X0011548Y0157253D01*
X0011534Y0157314D01*
X0011524Y0157375D01*
X0011518Y0157438D01*
X0011516Y0157500D01*
X0016516Y0157500D02*
X0016518Y0157562D01*
X0016524Y0157625D01*
X0016534Y0157686D01*
X0016548Y0157747D01*
X0016565Y0157807D01*
X0016586Y0157866D01*
X0016612Y0157923D01*
X0016640Y0157978D01*
X0016672Y0158032D01*
X0016708Y0158083D01*
X0016746Y0158133D01*
X0016788Y0158179D01*
X0016832Y0158223D01*
X0016880Y0158264D01*
X0016929Y0158302D01*
X0016981Y0158336D01*
X0017035Y0158367D01*
X0017091Y0158395D01*
X0017149Y0158419D01*
X0017208Y0158440D01*
X0017268Y0158456D01*
X0017329Y0158469D01*
X0017391Y0158478D01*
X0017453Y0158483D01*
X0017516Y0158484D01*
X0017578Y0158481D01*
X0017640Y0158474D01*
X0017702Y0158463D01*
X0017762Y0158448D01*
X0017822Y0158430D01*
X0017880Y0158408D01*
X0017937Y0158382D01*
X0017992Y0158352D01*
X0018045Y0158319D01*
X0018096Y0158283D01*
X0018144Y0158244D01*
X0018190Y0158201D01*
X0018233Y0158156D01*
X0018273Y0158108D01*
X0018310Y0158058D01*
X0018344Y0158005D01*
X0018375Y0157951D01*
X0018401Y0157895D01*
X0018425Y0157837D01*
X0018444Y0157777D01*
X0018460Y0157717D01*
X0018472Y0157655D01*
X0018480Y0157594D01*
X0018484Y0157531D01*
X0018484Y0157469D01*
X0018480Y0157406D01*
X0018472Y0157345D01*
X0018460Y0157283D01*
X0018444Y0157223D01*
X0018425Y0157163D01*
X0018401Y0157105D01*
X0018375Y0157049D01*
X0018344Y0156995D01*
X0018310Y0156942D01*
X0018273Y0156892D01*
X0018233Y0156844D01*
X0018190Y0156799D01*
X0018144Y0156756D01*
X0018096Y0156717D01*
X0018045Y0156681D01*
X0017992Y0156648D01*
X0017937Y0156618D01*
X0017880Y0156592D01*
X0017822Y0156570D01*
X0017762Y0156552D01*
X0017702Y0156537D01*
X0017640Y0156526D01*
X0017578Y0156519D01*
X0017516Y0156516D01*
X0017453Y0156517D01*
X0017391Y0156522D01*
X0017329Y0156531D01*
X0017268Y0156544D01*
X0017208Y0156560D01*
X0017149Y0156581D01*
X0017091Y0156605D01*
X0017035Y0156633D01*
X0016981Y0156664D01*
X0016929Y0156698D01*
X0016880Y0156736D01*
X0016832Y0156777D01*
X0016788Y0156821D01*
X0016746Y0156867D01*
X0016708Y0156917D01*
X0016672Y0156968D01*
X0016640Y0157022D01*
X0016612Y0157077D01*
X0016586Y0157134D01*
X0016565Y0157193D01*
X0016548Y0157253D01*
X0016534Y0157314D01*
X0016524Y0157375D01*
X0016518Y0157438D01*
X0016516Y0157500D01*
X0021516Y0157500D02*
X0021518Y0157562D01*
X0021524Y0157625D01*
X0021534Y0157686D01*
X0021548Y0157747D01*
X0021565Y0157807D01*
X0021586Y0157866D01*
X0021612Y0157923D01*
X0021640Y0157978D01*
X0021672Y0158032D01*
X0021708Y0158083D01*
X0021746Y0158133D01*
X0021788Y0158179D01*
X0021832Y0158223D01*
X0021880Y0158264D01*
X0021929Y0158302D01*
X0021981Y0158336D01*
X0022035Y0158367D01*
X0022091Y0158395D01*
X0022149Y0158419D01*
X0022208Y0158440D01*
X0022268Y0158456D01*
X0022329Y0158469D01*
X0022391Y0158478D01*
X0022453Y0158483D01*
X0022516Y0158484D01*
X0022578Y0158481D01*
X0022640Y0158474D01*
X0022702Y0158463D01*
X0022762Y0158448D01*
X0022822Y0158430D01*
X0022880Y0158408D01*
X0022937Y0158382D01*
X0022992Y0158352D01*
X0023045Y0158319D01*
X0023096Y0158283D01*
X0023144Y0158244D01*
X0023190Y0158201D01*
X0023233Y0158156D01*
X0023273Y0158108D01*
X0023310Y0158058D01*
X0023344Y0158005D01*
X0023375Y0157951D01*
X0023401Y0157895D01*
X0023425Y0157837D01*
X0023444Y0157777D01*
X0023460Y0157717D01*
X0023472Y0157655D01*
X0023480Y0157594D01*
X0023484Y0157531D01*
X0023484Y0157469D01*
X0023480Y0157406D01*
X0023472Y0157345D01*
X0023460Y0157283D01*
X0023444Y0157223D01*
X0023425Y0157163D01*
X0023401Y0157105D01*
X0023375Y0157049D01*
X0023344Y0156995D01*
X0023310Y0156942D01*
X0023273Y0156892D01*
X0023233Y0156844D01*
X0023190Y0156799D01*
X0023144Y0156756D01*
X0023096Y0156717D01*
X0023045Y0156681D01*
X0022992Y0156648D01*
X0022937Y0156618D01*
X0022880Y0156592D01*
X0022822Y0156570D01*
X0022762Y0156552D01*
X0022702Y0156537D01*
X0022640Y0156526D01*
X0022578Y0156519D01*
X0022516Y0156516D01*
X0022453Y0156517D01*
X0022391Y0156522D01*
X0022329Y0156531D01*
X0022268Y0156544D01*
X0022208Y0156560D01*
X0022149Y0156581D01*
X0022091Y0156605D01*
X0022035Y0156633D01*
X0021981Y0156664D01*
X0021929Y0156698D01*
X0021880Y0156736D01*
X0021832Y0156777D01*
X0021788Y0156821D01*
X0021746Y0156867D01*
X0021708Y0156917D01*
X0021672Y0156968D01*
X0021640Y0157022D01*
X0021612Y0157077D01*
X0021586Y0157134D01*
X0021565Y0157193D01*
X0021548Y0157253D01*
X0021534Y0157314D01*
X0021524Y0157375D01*
X0021518Y0157438D01*
X0021516Y0157500D01*
X0026516Y0157500D02*
X0026518Y0157562D01*
X0026524Y0157625D01*
X0026534Y0157686D01*
X0026548Y0157747D01*
X0026565Y0157807D01*
X0026586Y0157866D01*
X0026612Y0157923D01*
X0026640Y0157978D01*
X0026672Y0158032D01*
X0026708Y0158083D01*
X0026746Y0158133D01*
X0026788Y0158179D01*
X0026832Y0158223D01*
X0026880Y0158264D01*
X0026929Y0158302D01*
X0026981Y0158336D01*
X0027035Y0158367D01*
X0027091Y0158395D01*
X0027149Y0158419D01*
X0027208Y0158440D01*
X0027268Y0158456D01*
X0027329Y0158469D01*
X0027391Y0158478D01*
X0027453Y0158483D01*
X0027516Y0158484D01*
X0027578Y0158481D01*
X0027640Y0158474D01*
X0027702Y0158463D01*
X0027762Y0158448D01*
X0027822Y0158430D01*
X0027880Y0158408D01*
X0027937Y0158382D01*
X0027992Y0158352D01*
X0028045Y0158319D01*
X0028096Y0158283D01*
X0028144Y0158244D01*
X0028190Y0158201D01*
X0028233Y0158156D01*
X0028273Y0158108D01*
X0028310Y0158058D01*
X0028344Y0158005D01*
X0028375Y0157951D01*
X0028401Y0157895D01*
X0028425Y0157837D01*
X0028444Y0157777D01*
X0028460Y0157717D01*
X0028472Y0157655D01*
X0028480Y0157594D01*
X0028484Y0157531D01*
X0028484Y0157469D01*
X0028480Y0157406D01*
X0028472Y0157345D01*
X0028460Y0157283D01*
X0028444Y0157223D01*
X0028425Y0157163D01*
X0028401Y0157105D01*
X0028375Y0157049D01*
X0028344Y0156995D01*
X0028310Y0156942D01*
X0028273Y0156892D01*
X0028233Y0156844D01*
X0028190Y0156799D01*
X0028144Y0156756D01*
X0028096Y0156717D01*
X0028045Y0156681D01*
X0027992Y0156648D01*
X0027937Y0156618D01*
X0027880Y0156592D01*
X0027822Y0156570D01*
X0027762Y0156552D01*
X0027702Y0156537D01*
X0027640Y0156526D01*
X0027578Y0156519D01*
X0027516Y0156516D01*
X0027453Y0156517D01*
X0027391Y0156522D01*
X0027329Y0156531D01*
X0027268Y0156544D01*
X0027208Y0156560D01*
X0027149Y0156581D01*
X0027091Y0156605D01*
X0027035Y0156633D01*
X0026981Y0156664D01*
X0026929Y0156698D01*
X0026880Y0156736D01*
X0026832Y0156777D01*
X0026788Y0156821D01*
X0026746Y0156867D01*
X0026708Y0156917D01*
X0026672Y0156968D01*
X0026640Y0157022D01*
X0026612Y0157077D01*
X0026586Y0157134D01*
X0026565Y0157193D01*
X0026548Y0157253D01*
X0026534Y0157314D01*
X0026524Y0157375D01*
X0026518Y0157438D01*
X0026516Y0157500D01*
X0031516Y0157500D02*
X0031518Y0157562D01*
X0031524Y0157625D01*
X0031534Y0157686D01*
X0031548Y0157747D01*
X0031565Y0157807D01*
X0031586Y0157866D01*
X0031612Y0157923D01*
X0031640Y0157978D01*
X0031672Y0158032D01*
X0031708Y0158083D01*
X0031746Y0158133D01*
X0031788Y0158179D01*
X0031832Y0158223D01*
X0031880Y0158264D01*
X0031929Y0158302D01*
X0031981Y0158336D01*
X0032035Y0158367D01*
X0032091Y0158395D01*
X0032149Y0158419D01*
X0032208Y0158440D01*
X0032268Y0158456D01*
X0032329Y0158469D01*
X0032391Y0158478D01*
X0032453Y0158483D01*
X0032516Y0158484D01*
X0032578Y0158481D01*
X0032640Y0158474D01*
X0032702Y0158463D01*
X0032762Y0158448D01*
X0032822Y0158430D01*
X0032880Y0158408D01*
X0032937Y0158382D01*
X0032992Y0158352D01*
X0033045Y0158319D01*
X0033096Y0158283D01*
X0033144Y0158244D01*
X0033190Y0158201D01*
X0033233Y0158156D01*
X0033273Y0158108D01*
X0033310Y0158058D01*
X0033344Y0158005D01*
X0033375Y0157951D01*
X0033401Y0157895D01*
X0033425Y0157837D01*
X0033444Y0157777D01*
X0033460Y0157717D01*
X0033472Y0157655D01*
X0033480Y0157594D01*
X0033484Y0157531D01*
X0033484Y0157469D01*
X0033480Y0157406D01*
X0033472Y0157345D01*
X0033460Y0157283D01*
X0033444Y0157223D01*
X0033425Y0157163D01*
X0033401Y0157105D01*
X0033375Y0157049D01*
X0033344Y0156995D01*
X0033310Y0156942D01*
X0033273Y0156892D01*
X0033233Y0156844D01*
X0033190Y0156799D01*
X0033144Y0156756D01*
X0033096Y0156717D01*
X0033045Y0156681D01*
X0032992Y0156648D01*
X0032937Y0156618D01*
X0032880Y0156592D01*
X0032822Y0156570D01*
X0032762Y0156552D01*
X0032702Y0156537D01*
X0032640Y0156526D01*
X0032578Y0156519D01*
X0032516Y0156516D01*
X0032453Y0156517D01*
X0032391Y0156522D01*
X0032329Y0156531D01*
X0032268Y0156544D01*
X0032208Y0156560D01*
X0032149Y0156581D01*
X0032091Y0156605D01*
X0032035Y0156633D01*
X0031981Y0156664D01*
X0031929Y0156698D01*
X0031880Y0156736D01*
X0031832Y0156777D01*
X0031788Y0156821D01*
X0031746Y0156867D01*
X0031708Y0156917D01*
X0031672Y0156968D01*
X0031640Y0157022D01*
X0031612Y0157077D01*
X0031586Y0157134D01*
X0031565Y0157193D01*
X0031548Y0157253D01*
X0031534Y0157314D01*
X0031524Y0157375D01*
X0031518Y0157438D01*
X0031516Y0157500D01*
X0036516Y0157500D02*
X0036518Y0157562D01*
X0036524Y0157625D01*
X0036534Y0157686D01*
X0036548Y0157747D01*
X0036565Y0157807D01*
X0036586Y0157866D01*
X0036612Y0157923D01*
X0036640Y0157978D01*
X0036672Y0158032D01*
X0036708Y0158083D01*
X0036746Y0158133D01*
X0036788Y0158179D01*
X0036832Y0158223D01*
X0036880Y0158264D01*
X0036929Y0158302D01*
X0036981Y0158336D01*
X0037035Y0158367D01*
X0037091Y0158395D01*
X0037149Y0158419D01*
X0037208Y0158440D01*
X0037268Y0158456D01*
X0037329Y0158469D01*
X0037391Y0158478D01*
X0037453Y0158483D01*
X0037516Y0158484D01*
X0037578Y0158481D01*
X0037640Y0158474D01*
X0037702Y0158463D01*
X0037762Y0158448D01*
X0037822Y0158430D01*
X0037880Y0158408D01*
X0037937Y0158382D01*
X0037992Y0158352D01*
X0038045Y0158319D01*
X0038096Y0158283D01*
X0038144Y0158244D01*
X0038190Y0158201D01*
X0038233Y0158156D01*
X0038273Y0158108D01*
X0038310Y0158058D01*
X0038344Y0158005D01*
X0038375Y0157951D01*
X0038401Y0157895D01*
X0038425Y0157837D01*
X0038444Y0157777D01*
X0038460Y0157717D01*
X0038472Y0157655D01*
X0038480Y0157594D01*
X0038484Y0157531D01*
X0038484Y0157469D01*
X0038480Y0157406D01*
X0038472Y0157345D01*
X0038460Y0157283D01*
X0038444Y0157223D01*
X0038425Y0157163D01*
X0038401Y0157105D01*
X0038375Y0157049D01*
X0038344Y0156995D01*
X0038310Y0156942D01*
X0038273Y0156892D01*
X0038233Y0156844D01*
X0038190Y0156799D01*
X0038144Y0156756D01*
X0038096Y0156717D01*
X0038045Y0156681D01*
X0037992Y0156648D01*
X0037937Y0156618D01*
X0037880Y0156592D01*
X0037822Y0156570D01*
X0037762Y0156552D01*
X0037702Y0156537D01*
X0037640Y0156526D01*
X0037578Y0156519D01*
X0037516Y0156516D01*
X0037453Y0156517D01*
X0037391Y0156522D01*
X0037329Y0156531D01*
X0037268Y0156544D01*
X0037208Y0156560D01*
X0037149Y0156581D01*
X0037091Y0156605D01*
X0037035Y0156633D01*
X0036981Y0156664D01*
X0036929Y0156698D01*
X0036880Y0156736D01*
X0036832Y0156777D01*
X0036788Y0156821D01*
X0036746Y0156867D01*
X0036708Y0156917D01*
X0036672Y0156968D01*
X0036640Y0157022D01*
X0036612Y0157077D01*
X0036586Y0157134D01*
X0036565Y0157193D01*
X0036548Y0157253D01*
X0036534Y0157314D01*
X0036524Y0157375D01*
X0036518Y0157438D01*
X0036516Y0157500D01*
X0041516Y0157500D02*
X0041518Y0157562D01*
X0041524Y0157625D01*
X0041534Y0157686D01*
X0041548Y0157747D01*
X0041565Y0157807D01*
X0041586Y0157866D01*
X0041612Y0157923D01*
X0041640Y0157978D01*
X0041672Y0158032D01*
X0041708Y0158083D01*
X0041746Y0158133D01*
X0041788Y0158179D01*
X0041832Y0158223D01*
X0041880Y0158264D01*
X0041929Y0158302D01*
X0041981Y0158336D01*
X0042035Y0158367D01*
X0042091Y0158395D01*
X0042149Y0158419D01*
X0042208Y0158440D01*
X0042268Y0158456D01*
X0042329Y0158469D01*
X0042391Y0158478D01*
X0042453Y0158483D01*
X0042516Y0158484D01*
X0042578Y0158481D01*
X0042640Y0158474D01*
X0042702Y0158463D01*
X0042762Y0158448D01*
X0042822Y0158430D01*
X0042880Y0158408D01*
X0042937Y0158382D01*
X0042992Y0158352D01*
X0043045Y0158319D01*
X0043096Y0158283D01*
X0043144Y0158244D01*
X0043190Y0158201D01*
X0043233Y0158156D01*
X0043273Y0158108D01*
X0043310Y0158058D01*
X0043344Y0158005D01*
X0043375Y0157951D01*
X0043401Y0157895D01*
X0043425Y0157837D01*
X0043444Y0157777D01*
X0043460Y0157717D01*
X0043472Y0157655D01*
X0043480Y0157594D01*
X0043484Y0157531D01*
X0043484Y0157469D01*
X0043480Y0157406D01*
X0043472Y0157345D01*
X0043460Y0157283D01*
X0043444Y0157223D01*
X0043425Y0157163D01*
X0043401Y0157105D01*
X0043375Y0157049D01*
X0043344Y0156995D01*
X0043310Y0156942D01*
X0043273Y0156892D01*
X0043233Y0156844D01*
X0043190Y0156799D01*
X0043144Y0156756D01*
X0043096Y0156717D01*
X0043045Y0156681D01*
X0042992Y0156648D01*
X0042937Y0156618D01*
X0042880Y0156592D01*
X0042822Y0156570D01*
X0042762Y0156552D01*
X0042702Y0156537D01*
X0042640Y0156526D01*
X0042578Y0156519D01*
X0042516Y0156516D01*
X0042453Y0156517D01*
X0042391Y0156522D01*
X0042329Y0156531D01*
X0042268Y0156544D01*
X0042208Y0156560D01*
X0042149Y0156581D01*
X0042091Y0156605D01*
X0042035Y0156633D01*
X0041981Y0156664D01*
X0041929Y0156698D01*
X0041880Y0156736D01*
X0041832Y0156777D01*
X0041788Y0156821D01*
X0041746Y0156867D01*
X0041708Y0156917D01*
X0041672Y0156968D01*
X0041640Y0157022D01*
X0041612Y0157077D01*
X0041586Y0157134D01*
X0041565Y0157193D01*
X0041548Y0157253D01*
X0041534Y0157314D01*
X0041524Y0157375D01*
X0041518Y0157438D01*
X0041516Y0157500D01*
X0046516Y0157500D02*
X0046518Y0157562D01*
X0046524Y0157625D01*
X0046534Y0157686D01*
X0046548Y0157747D01*
X0046565Y0157807D01*
X0046586Y0157866D01*
X0046612Y0157923D01*
X0046640Y0157978D01*
X0046672Y0158032D01*
X0046708Y0158083D01*
X0046746Y0158133D01*
X0046788Y0158179D01*
X0046832Y0158223D01*
X0046880Y0158264D01*
X0046929Y0158302D01*
X0046981Y0158336D01*
X0047035Y0158367D01*
X0047091Y0158395D01*
X0047149Y0158419D01*
X0047208Y0158440D01*
X0047268Y0158456D01*
X0047329Y0158469D01*
X0047391Y0158478D01*
X0047453Y0158483D01*
X0047516Y0158484D01*
X0047578Y0158481D01*
X0047640Y0158474D01*
X0047702Y0158463D01*
X0047762Y0158448D01*
X0047822Y0158430D01*
X0047880Y0158408D01*
X0047937Y0158382D01*
X0047992Y0158352D01*
X0048045Y0158319D01*
X0048096Y0158283D01*
X0048144Y0158244D01*
X0048190Y0158201D01*
X0048233Y0158156D01*
X0048273Y0158108D01*
X0048310Y0158058D01*
X0048344Y0158005D01*
X0048375Y0157951D01*
X0048401Y0157895D01*
X0048425Y0157837D01*
X0048444Y0157777D01*
X0048460Y0157717D01*
X0048472Y0157655D01*
X0048480Y0157594D01*
X0048484Y0157531D01*
X0048484Y0157469D01*
X0048480Y0157406D01*
X0048472Y0157345D01*
X0048460Y0157283D01*
X0048444Y0157223D01*
X0048425Y0157163D01*
X0048401Y0157105D01*
X0048375Y0157049D01*
X0048344Y0156995D01*
X0048310Y0156942D01*
X0048273Y0156892D01*
X0048233Y0156844D01*
X0048190Y0156799D01*
X0048144Y0156756D01*
X0048096Y0156717D01*
X0048045Y0156681D01*
X0047992Y0156648D01*
X0047937Y0156618D01*
X0047880Y0156592D01*
X0047822Y0156570D01*
X0047762Y0156552D01*
X0047702Y0156537D01*
X0047640Y0156526D01*
X0047578Y0156519D01*
X0047516Y0156516D01*
X0047453Y0156517D01*
X0047391Y0156522D01*
X0047329Y0156531D01*
X0047268Y0156544D01*
X0047208Y0156560D01*
X0047149Y0156581D01*
X0047091Y0156605D01*
X0047035Y0156633D01*
X0046981Y0156664D01*
X0046929Y0156698D01*
X0046880Y0156736D01*
X0046832Y0156777D01*
X0046788Y0156821D01*
X0046746Y0156867D01*
X0046708Y0156917D01*
X0046672Y0156968D01*
X0046640Y0157022D01*
X0046612Y0157077D01*
X0046586Y0157134D01*
X0046565Y0157193D01*
X0046548Y0157253D01*
X0046534Y0157314D01*
X0046524Y0157375D01*
X0046518Y0157438D01*
X0046516Y0157500D01*
X0051516Y0157500D02*
X0051518Y0157562D01*
X0051524Y0157625D01*
X0051534Y0157686D01*
X0051548Y0157747D01*
X0051565Y0157807D01*
X0051586Y0157866D01*
X0051612Y0157923D01*
X0051640Y0157978D01*
X0051672Y0158032D01*
X0051708Y0158083D01*
X0051746Y0158133D01*
X0051788Y0158179D01*
X0051832Y0158223D01*
X0051880Y0158264D01*
X0051929Y0158302D01*
X0051981Y0158336D01*
X0052035Y0158367D01*
X0052091Y0158395D01*
X0052149Y0158419D01*
X0052208Y0158440D01*
X0052268Y0158456D01*
X0052329Y0158469D01*
X0052391Y0158478D01*
X0052453Y0158483D01*
X0052516Y0158484D01*
X0052578Y0158481D01*
X0052640Y0158474D01*
X0052702Y0158463D01*
X0052762Y0158448D01*
X0052822Y0158430D01*
X0052880Y0158408D01*
X0052937Y0158382D01*
X0052992Y0158352D01*
X0053045Y0158319D01*
X0053096Y0158283D01*
X0053144Y0158244D01*
X0053190Y0158201D01*
X0053233Y0158156D01*
X0053273Y0158108D01*
X0053310Y0158058D01*
X0053344Y0158005D01*
X0053375Y0157951D01*
X0053401Y0157895D01*
X0053425Y0157837D01*
X0053444Y0157777D01*
X0053460Y0157717D01*
X0053472Y0157655D01*
X0053480Y0157594D01*
X0053484Y0157531D01*
X0053484Y0157469D01*
X0053480Y0157406D01*
X0053472Y0157345D01*
X0053460Y0157283D01*
X0053444Y0157223D01*
X0053425Y0157163D01*
X0053401Y0157105D01*
X0053375Y0157049D01*
X0053344Y0156995D01*
X0053310Y0156942D01*
X0053273Y0156892D01*
X0053233Y0156844D01*
X0053190Y0156799D01*
X0053144Y0156756D01*
X0053096Y0156717D01*
X0053045Y0156681D01*
X0052992Y0156648D01*
X0052937Y0156618D01*
X0052880Y0156592D01*
X0052822Y0156570D01*
X0052762Y0156552D01*
X0052702Y0156537D01*
X0052640Y0156526D01*
X0052578Y0156519D01*
X0052516Y0156516D01*
X0052453Y0156517D01*
X0052391Y0156522D01*
X0052329Y0156531D01*
X0052268Y0156544D01*
X0052208Y0156560D01*
X0052149Y0156581D01*
X0052091Y0156605D01*
X0052035Y0156633D01*
X0051981Y0156664D01*
X0051929Y0156698D01*
X0051880Y0156736D01*
X0051832Y0156777D01*
X0051788Y0156821D01*
X0051746Y0156867D01*
X0051708Y0156917D01*
X0051672Y0156968D01*
X0051640Y0157022D01*
X0051612Y0157077D01*
X0051586Y0157134D01*
X0051565Y0157193D01*
X0051548Y0157253D01*
X0051534Y0157314D01*
X0051524Y0157375D01*
X0051518Y0157438D01*
X0051516Y0157500D01*
X0056516Y0157500D02*
X0056518Y0157562D01*
X0056524Y0157625D01*
X0056534Y0157686D01*
X0056548Y0157747D01*
X0056565Y0157807D01*
X0056586Y0157866D01*
X0056612Y0157923D01*
X0056640Y0157978D01*
X0056672Y0158032D01*
X0056708Y0158083D01*
X0056746Y0158133D01*
X0056788Y0158179D01*
X0056832Y0158223D01*
X0056880Y0158264D01*
X0056929Y0158302D01*
X0056981Y0158336D01*
X0057035Y0158367D01*
X0057091Y0158395D01*
X0057149Y0158419D01*
X0057208Y0158440D01*
X0057268Y0158456D01*
X0057329Y0158469D01*
X0057391Y0158478D01*
X0057453Y0158483D01*
X0057516Y0158484D01*
X0057578Y0158481D01*
X0057640Y0158474D01*
X0057702Y0158463D01*
X0057762Y0158448D01*
X0057822Y0158430D01*
X0057880Y0158408D01*
X0057937Y0158382D01*
X0057992Y0158352D01*
X0058045Y0158319D01*
X0058096Y0158283D01*
X0058144Y0158244D01*
X0058190Y0158201D01*
X0058233Y0158156D01*
X0058273Y0158108D01*
X0058310Y0158058D01*
X0058344Y0158005D01*
X0058375Y0157951D01*
X0058401Y0157895D01*
X0058425Y0157837D01*
X0058444Y0157777D01*
X0058460Y0157717D01*
X0058472Y0157655D01*
X0058480Y0157594D01*
X0058484Y0157531D01*
X0058484Y0157469D01*
X0058480Y0157406D01*
X0058472Y0157345D01*
X0058460Y0157283D01*
X0058444Y0157223D01*
X0058425Y0157163D01*
X0058401Y0157105D01*
X0058375Y0157049D01*
X0058344Y0156995D01*
X0058310Y0156942D01*
X0058273Y0156892D01*
X0058233Y0156844D01*
X0058190Y0156799D01*
X0058144Y0156756D01*
X0058096Y0156717D01*
X0058045Y0156681D01*
X0057992Y0156648D01*
X0057937Y0156618D01*
X0057880Y0156592D01*
X0057822Y0156570D01*
X0057762Y0156552D01*
X0057702Y0156537D01*
X0057640Y0156526D01*
X0057578Y0156519D01*
X0057516Y0156516D01*
X0057453Y0156517D01*
X0057391Y0156522D01*
X0057329Y0156531D01*
X0057268Y0156544D01*
X0057208Y0156560D01*
X0057149Y0156581D01*
X0057091Y0156605D01*
X0057035Y0156633D01*
X0056981Y0156664D01*
X0056929Y0156698D01*
X0056880Y0156736D01*
X0056832Y0156777D01*
X0056788Y0156821D01*
X0056746Y0156867D01*
X0056708Y0156917D01*
X0056672Y0156968D01*
X0056640Y0157022D01*
X0056612Y0157077D01*
X0056586Y0157134D01*
X0056565Y0157193D01*
X0056548Y0157253D01*
X0056534Y0157314D01*
X0056524Y0157375D01*
X0056518Y0157438D01*
X0056516Y0157500D01*
X0061516Y0157500D02*
X0061518Y0157562D01*
X0061524Y0157625D01*
X0061534Y0157686D01*
X0061548Y0157747D01*
X0061565Y0157807D01*
X0061586Y0157866D01*
X0061612Y0157923D01*
X0061640Y0157978D01*
X0061672Y0158032D01*
X0061708Y0158083D01*
X0061746Y0158133D01*
X0061788Y0158179D01*
X0061832Y0158223D01*
X0061880Y0158264D01*
X0061929Y0158302D01*
X0061981Y0158336D01*
X0062035Y0158367D01*
X0062091Y0158395D01*
X0062149Y0158419D01*
X0062208Y0158440D01*
X0062268Y0158456D01*
X0062329Y0158469D01*
X0062391Y0158478D01*
X0062453Y0158483D01*
X0062516Y0158484D01*
X0062578Y0158481D01*
X0062640Y0158474D01*
X0062702Y0158463D01*
X0062762Y0158448D01*
X0062822Y0158430D01*
X0062880Y0158408D01*
X0062937Y0158382D01*
X0062992Y0158352D01*
X0063045Y0158319D01*
X0063096Y0158283D01*
X0063144Y0158244D01*
X0063190Y0158201D01*
X0063233Y0158156D01*
X0063273Y0158108D01*
X0063310Y0158058D01*
X0063344Y0158005D01*
X0063375Y0157951D01*
X0063401Y0157895D01*
X0063425Y0157837D01*
X0063444Y0157777D01*
X0063460Y0157717D01*
X0063472Y0157655D01*
X0063480Y0157594D01*
X0063484Y0157531D01*
X0063484Y0157469D01*
X0063480Y0157406D01*
X0063472Y0157345D01*
X0063460Y0157283D01*
X0063444Y0157223D01*
X0063425Y0157163D01*
X0063401Y0157105D01*
X0063375Y0157049D01*
X0063344Y0156995D01*
X0063310Y0156942D01*
X0063273Y0156892D01*
X0063233Y0156844D01*
X0063190Y0156799D01*
X0063144Y0156756D01*
X0063096Y0156717D01*
X0063045Y0156681D01*
X0062992Y0156648D01*
X0062937Y0156618D01*
X0062880Y0156592D01*
X0062822Y0156570D01*
X0062762Y0156552D01*
X0062702Y0156537D01*
X0062640Y0156526D01*
X0062578Y0156519D01*
X0062516Y0156516D01*
X0062453Y0156517D01*
X0062391Y0156522D01*
X0062329Y0156531D01*
X0062268Y0156544D01*
X0062208Y0156560D01*
X0062149Y0156581D01*
X0062091Y0156605D01*
X0062035Y0156633D01*
X0061981Y0156664D01*
X0061929Y0156698D01*
X0061880Y0156736D01*
X0061832Y0156777D01*
X0061788Y0156821D01*
X0061746Y0156867D01*
X0061708Y0156917D01*
X0061672Y0156968D01*
X0061640Y0157022D01*
X0061612Y0157077D01*
X0061586Y0157134D01*
X0061565Y0157193D01*
X0061548Y0157253D01*
X0061534Y0157314D01*
X0061524Y0157375D01*
X0061518Y0157438D01*
X0061516Y0157500D01*
X0066516Y0157500D02*
X0066518Y0157562D01*
X0066524Y0157625D01*
X0066534Y0157686D01*
X0066548Y0157747D01*
X0066565Y0157807D01*
X0066586Y0157866D01*
X0066612Y0157923D01*
X0066640Y0157978D01*
X0066672Y0158032D01*
X0066708Y0158083D01*
X0066746Y0158133D01*
X0066788Y0158179D01*
X0066832Y0158223D01*
X0066880Y0158264D01*
X0066929Y0158302D01*
X0066981Y0158336D01*
X0067035Y0158367D01*
X0067091Y0158395D01*
X0067149Y0158419D01*
X0067208Y0158440D01*
X0067268Y0158456D01*
X0067329Y0158469D01*
X0067391Y0158478D01*
X0067453Y0158483D01*
X0067516Y0158484D01*
X0067578Y0158481D01*
X0067640Y0158474D01*
X0067702Y0158463D01*
X0067762Y0158448D01*
X0067822Y0158430D01*
X0067880Y0158408D01*
X0067937Y0158382D01*
X0067992Y0158352D01*
X0068045Y0158319D01*
X0068096Y0158283D01*
X0068144Y0158244D01*
X0068190Y0158201D01*
X0068233Y0158156D01*
X0068273Y0158108D01*
X0068310Y0158058D01*
X0068344Y0158005D01*
X0068375Y0157951D01*
X0068401Y0157895D01*
X0068425Y0157837D01*
X0068444Y0157777D01*
X0068460Y0157717D01*
X0068472Y0157655D01*
X0068480Y0157594D01*
X0068484Y0157531D01*
X0068484Y0157469D01*
X0068480Y0157406D01*
X0068472Y0157345D01*
X0068460Y0157283D01*
X0068444Y0157223D01*
X0068425Y0157163D01*
X0068401Y0157105D01*
X0068375Y0157049D01*
X0068344Y0156995D01*
X0068310Y0156942D01*
X0068273Y0156892D01*
X0068233Y0156844D01*
X0068190Y0156799D01*
X0068144Y0156756D01*
X0068096Y0156717D01*
X0068045Y0156681D01*
X0067992Y0156648D01*
X0067937Y0156618D01*
X0067880Y0156592D01*
X0067822Y0156570D01*
X0067762Y0156552D01*
X0067702Y0156537D01*
X0067640Y0156526D01*
X0067578Y0156519D01*
X0067516Y0156516D01*
X0067453Y0156517D01*
X0067391Y0156522D01*
X0067329Y0156531D01*
X0067268Y0156544D01*
X0067208Y0156560D01*
X0067149Y0156581D01*
X0067091Y0156605D01*
X0067035Y0156633D01*
X0066981Y0156664D01*
X0066929Y0156698D01*
X0066880Y0156736D01*
X0066832Y0156777D01*
X0066788Y0156821D01*
X0066746Y0156867D01*
X0066708Y0156917D01*
X0066672Y0156968D01*
X0066640Y0157022D01*
X0066612Y0157077D01*
X0066586Y0157134D01*
X0066565Y0157193D01*
X0066548Y0157253D01*
X0066534Y0157314D01*
X0066524Y0157375D01*
X0066518Y0157438D01*
X0066516Y0157500D01*
X0071516Y0157500D02*
X0071518Y0157562D01*
X0071524Y0157625D01*
X0071534Y0157686D01*
X0071548Y0157747D01*
X0071565Y0157807D01*
X0071586Y0157866D01*
X0071612Y0157923D01*
X0071640Y0157978D01*
X0071672Y0158032D01*
X0071708Y0158083D01*
X0071746Y0158133D01*
X0071788Y0158179D01*
X0071832Y0158223D01*
X0071880Y0158264D01*
X0071929Y0158302D01*
X0071981Y0158336D01*
X0072035Y0158367D01*
X0072091Y0158395D01*
X0072149Y0158419D01*
X0072208Y0158440D01*
X0072268Y0158456D01*
X0072329Y0158469D01*
X0072391Y0158478D01*
X0072453Y0158483D01*
X0072516Y0158484D01*
X0072578Y0158481D01*
X0072640Y0158474D01*
X0072702Y0158463D01*
X0072762Y0158448D01*
X0072822Y0158430D01*
X0072880Y0158408D01*
X0072937Y0158382D01*
X0072992Y0158352D01*
X0073045Y0158319D01*
X0073096Y0158283D01*
X0073144Y0158244D01*
X0073190Y0158201D01*
X0073233Y0158156D01*
X0073273Y0158108D01*
X0073310Y0158058D01*
X0073344Y0158005D01*
X0073375Y0157951D01*
X0073401Y0157895D01*
X0073425Y0157837D01*
X0073444Y0157777D01*
X0073460Y0157717D01*
X0073472Y0157655D01*
X0073480Y0157594D01*
X0073484Y0157531D01*
X0073484Y0157469D01*
X0073480Y0157406D01*
X0073472Y0157345D01*
X0073460Y0157283D01*
X0073444Y0157223D01*
X0073425Y0157163D01*
X0073401Y0157105D01*
X0073375Y0157049D01*
X0073344Y0156995D01*
X0073310Y0156942D01*
X0073273Y0156892D01*
X0073233Y0156844D01*
X0073190Y0156799D01*
X0073144Y0156756D01*
X0073096Y0156717D01*
X0073045Y0156681D01*
X0072992Y0156648D01*
X0072937Y0156618D01*
X0072880Y0156592D01*
X0072822Y0156570D01*
X0072762Y0156552D01*
X0072702Y0156537D01*
X0072640Y0156526D01*
X0072578Y0156519D01*
X0072516Y0156516D01*
X0072453Y0156517D01*
X0072391Y0156522D01*
X0072329Y0156531D01*
X0072268Y0156544D01*
X0072208Y0156560D01*
X0072149Y0156581D01*
X0072091Y0156605D01*
X0072035Y0156633D01*
X0071981Y0156664D01*
X0071929Y0156698D01*
X0071880Y0156736D01*
X0071832Y0156777D01*
X0071788Y0156821D01*
X0071746Y0156867D01*
X0071708Y0156917D01*
X0071672Y0156968D01*
X0071640Y0157022D01*
X0071612Y0157077D01*
X0071586Y0157134D01*
X0071565Y0157193D01*
X0071548Y0157253D01*
X0071534Y0157314D01*
X0071524Y0157375D01*
X0071518Y0157438D01*
X0071516Y0157500D01*
X0076516Y0157500D02*
X0076518Y0157562D01*
X0076524Y0157625D01*
X0076534Y0157686D01*
X0076548Y0157747D01*
X0076565Y0157807D01*
X0076586Y0157866D01*
X0076612Y0157923D01*
X0076640Y0157978D01*
X0076672Y0158032D01*
X0076708Y0158083D01*
X0076746Y0158133D01*
X0076788Y0158179D01*
X0076832Y0158223D01*
X0076880Y0158264D01*
X0076929Y0158302D01*
X0076981Y0158336D01*
X0077035Y0158367D01*
X0077091Y0158395D01*
X0077149Y0158419D01*
X0077208Y0158440D01*
X0077268Y0158456D01*
X0077329Y0158469D01*
X0077391Y0158478D01*
X0077453Y0158483D01*
X0077516Y0158484D01*
X0077578Y0158481D01*
X0077640Y0158474D01*
X0077702Y0158463D01*
X0077762Y0158448D01*
X0077822Y0158430D01*
X0077880Y0158408D01*
X0077937Y0158382D01*
X0077992Y0158352D01*
X0078045Y0158319D01*
X0078096Y0158283D01*
X0078144Y0158244D01*
X0078190Y0158201D01*
X0078233Y0158156D01*
X0078273Y0158108D01*
X0078310Y0158058D01*
X0078344Y0158005D01*
X0078375Y0157951D01*
X0078401Y0157895D01*
X0078425Y0157837D01*
X0078444Y0157777D01*
X0078460Y0157717D01*
X0078472Y0157655D01*
X0078480Y0157594D01*
X0078484Y0157531D01*
X0078484Y0157469D01*
X0078480Y0157406D01*
X0078472Y0157345D01*
X0078460Y0157283D01*
X0078444Y0157223D01*
X0078425Y0157163D01*
X0078401Y0157105D01*
X0078375Y0157049D01*
X0078344Y0156995D01*
X0078310Y0156942D01*
X0078273Y0156892D01*
X0078233Y0156844D01*
X0078190Y0156799D01*
X0078144Y0156756D01*
X0078096Y0156717D01*
X0078045Y0156681D01*
X0077992Y0156648D01*
X0077937Y0156618D01*
X0077880Y0156592D01*
X0077822Y0156570D01*
X0077762Y0156552D01*
X0077702Y0156537D01*
X0077640Y0156526D01*
X0077578Y0156519D01*
X0077516Y0156516D01*
X0077453Y0156517D01*
X0077391Y0156522D01*
X0077329Y0156531D01*
X0077268Y0156544D01*
X0077208Y0156560D01*
X0077149Y0156581D01*
X0077091Y0156605D01*
X0077035Y0156633D01*
X0076981Y0156664D01*
X0076929Y0156698D01*
X0076880Y0156736D01*
X0076832Y0156777D01*
X0076788Y0156821D01*
X0076746Y0156867D01*
X0076708Y0156917D01*
X0076672Y0156968D01*
X0076640Y0157022D01*
X0076612Y0157077D01*
X0076586Y0157134D01*
X0076565Y0157193D01*
X0076548Y0157253D01*
X0076534Y0157314D01*
X0076524Y0157375D01*
X0076518Y0157438D01*
X0076516Y0157500D01*
X0081516Y0157500D02*
X0081518Y0157562D01*
X0081524Y0157625D01*
X0081534Y0157686D01*
X0081548Y0157747D01*
X0081565Y0157807D01*
X0081586Y0157866D01*
X0081612Y0157923D01*
X0081640Y0157978D01*
X0081672Y0158032D01*
X0081708Y0158083D01*
X0081746Y0158133D01*
X0081788Y0158179D01*
X0081832Y0158223D01*
X0081880Y0158264D01*
X0081929Y0158302D01*
X0081981Y0158336D01*
X0082035Y0158367D01*
X0082091Y0158395D01*
X0082149Y0158419D01*
X0082208Y0158440D01*
X0082268Y0158456D01*
X0082329Y0158469D01*
X0082391Y0158478D01*
X0082453Y0158483D01*
X0082516Y0158484D01*
X0082578Y0158481D01*
X0082640Y0158474D01*
X0082702Y0158463D01*
X0082762Y0158448D01*
X0082822Y0158430D01*
X0082880Y0158408D01*
X0082937Y0158382D01*
X0082992Y0158352D01*
X0083045Y0158319D01*
X0083096Y0158283D01*
X0083144Y0158244D01*
X0083190Y0158201D01*
X0083233Y0158156D01*
X0083273Y0158108D01*
X0083310Y0158058D01*
X0083344Y0158005D01*
X0083375Y0157951D01*
X0083401Y0157895D01*
X0083425Y0157837D01*
X0083444Y0157777D01*
X0083460Y0157717D01*
X0083472Y0157655D01*
X0083480Y0157594D01*
X0083484Y0157531D01*
X0083484Y0157469D01*
X0083480Y0157406D01*
X0083472Y0157345D01*
X0083460Y0157283D01*
X0083444Y0157223D01*
X0083425Y0157163D01*
X0083401Y0157105D01*
X0083375Y0157049D01*
X0083344Y0156995D01*
X0083310Y0156942D01*
X0083273Y0156892D01*
X0083233Y0156844D01*
X0083190Y0156799D01*
X0083144Y0156756D01*
X0083096Y0156717D01*
X0083045Y0156681D01*
X0082992Y0156648D01*
X0082937Y0156618D01*
X0082880Y0156592D01*
X0082822Y0156570D01*
X0082762Y0156552D01*
X0082702Y0156537D01*
X0082640Y0156526D01*
X0082578Y0156519D01*
X0082516Y0156516D01*
X0082453Y0156517D01*
X0082391Y0156522D01*
X0082329Y0156531D01*
X0082268Y0156544D01*
X0082208Y0156560D01*
X0082149Y0156581D01*
X0082091Y0156605D01*
X0082035Y0156633D01*
X0081981Y0156664D01*
X0081929Y0156698D01*
X0081880Y0156736D01*
X0081832Y0156777D01*
X0081788Y0156821D01*
X0081746Y0156867D01*
X0081708Y0156917D01*
X0081672Y0156968D01*
X0081640Y0157022D01*
X0081612Y0157077D01*
X0081586Y0157134D01*
X0081565Y0157193D01*
X0081548Y0157253D01*
X0081534Y0157314D01*
X0081524Y0157375D01*
X0081518Y0157438D01*
X0081516Y0157500D01*
X0086516Y0157500D02*
X0086518Y0157562D01*
X0086524Y0157625D01*
X0086534Y0157686D01*
X0086548Y0157747D01*
X0086565Y0157807D01*
X0086586Y0157866D01*
X0086612Y0157923D01*
X0086640Y0157978D01*
X0086672Y0158032D01*
X0086708Y0158083D01*
X0086746Y0158133D01*
X0086788Y0158179D01*
X0086832Y0158223D01*
X0086880Y0158264D01*
X0086929Y0158302D01*
X0086981Y0158336D01*
X0087035Y0158367D01*
X0087091Y0158395D01*
X0087149Y0158419D01*
X0087208Y0158440D01*
X0087268Y0158456D01*
X0087329Y0158469D01*
X0087391Y0158478D01*
X0087453Y0158483D01*
X0087516Y0158484D01*
X0087578Y0158481D01*
X0087640Y0158474D01*
X0087702Y0158463D01*
X0087762Y0158448D01*
X0087822Y0158430D01*
X0087880Y0158408D01*
X0087937Y0158382D01*
X0087992Y0158352D01*
X0088045Y0158319D01*
X0088096Y0158283D01*
X0088144Y0158244D01*
X0088190Y0158201D01*
X0088233Y0158156D01*
X0088273Y0158108D01*
X0088310Y0158058D01*
X0088344Y0158005D01*
X0088375Y0157951D01*
X0088401Y0157895D01*
X0088425Y0157837D01*
X0088444Y0157777D01*
X0088460Y0157717D01*
X0088472Y0157655D01*
X0088480Y0157594D01*
X0088484Y0157531D01*
X0088484Y0157469D01*
X0088480Y0157406D01*
X0088472Y0157345D01*
X0088460Y0157283D01*
X0088444Y0157223D01*
X0088425Y0157163D01*
X0088401Y0157105D01*
X0088375Y0157049D01*
X0088344Y0156995D01*
X0088310Y0156942D01*
X0088273Y0156892D01*
X0088233Y0156844D01*
X0088190Y0156799D01*
X0088144Y0156756D01*
X0088096Y0156717D01*
X0088045Y0156681D01*
X0087992Y0156648D01*
X0087937Y0156618D01*
X0087880Y0156592D01*
X0087822Y0156570D01*
X0087762Y0156552D01*
X0087702Y0156537D01*
X0087640Y0156526D01*
X0087578Y0156519D01*
X0087516Y0156516D01*
X0087453Y0156517D01*
X0087391Y0156522D01*
X0087329Y0156531D01*
X0087268Y0156544D01*
X0087208Y0156560D01*
X0087149Y0156581D01*
X0087091Y0156605D01*
X0087035Y0156633D01*
X0086981Y0156664D01*
X0086929Y0156698D01*
X0086880Y0156736D01*
X0086832Y0156777D01*
X0086788Y0156821D01*
X0086746Y0156867D01*
X0086708Y0156917D01*
X0086672Y0156968D01*
X0086640Y0157022D01*
X0086612Y0157077D01*
X0086586Y0157134D01*
X0086565Y0157193D01*
X0086548Y0157253D01*
X0086534Y0157314D01*
X0086524Y0157375D01*
X0086518Y0157438D01*
X0086516Y0157500D01*
X0091516Y0157500D02*
X0091518Y0157562D01*
X0091524Y0157625D01*
X0091534Y0157686D01*
X0091548Y0157747D01*
X0091565Y0157807D01*
X0091586Y0157866D01*
X0091612Y0157923D01*
X0091640Y0157978D01*
X0091672Y0158032D01*
X0091708Y0158083D01*
X0091746Y0158133D01*
X0091788Y0158179D01*
X0091832Y0158223D01*
X0091880Y0158264D01*
X0091929Y0158302D01*
X0091981Y0158336D01*
X0092035Y0158367D01*
X0092091Y0158395D01*
X0092149Y0158419D01*
X0092208Y0158440D01*
X0092268Y0158456D01*
X0092329Y0158469D01*
X0092391Y0158478D01*
X0092453Y0158483D01*
X0092516Y0158484D01*
X0092578Y0158481D01*
X0092640Y0158474D01*
X0092702Y0158463D01*
X0092762Y0158448D01*
X0092822Y0158430D01*
X0092880Y0158408D01*
X0092937Y0158382D01*
X0092992Y0158352D01*
X0093045Y0158319D01*
X0093096Y0158283D01*
X0093144Y0158244D01*
X0093190Y0158201D01*
X0093233Y0158156D01*
X0093273Y0158108D01*
X0093310Y0158058D01*
X0093344Y0158005D01*
X0093375Y0157951D01*
X0093401Y0157895D01*
X0093425Y0157837D01*
X0093444Y0157777D01*
X0093460Y0157717D01*
X0093472Y0157655D01*
X0093480Y0157594D01*
X0093484Y0157531D01*
X0093484Y0157469D01*
X0093480Y0157406D01*
X0093472Y0157345D01*
X0093460Y0157283D01*
X0093444Y0157223D01*
X0093425Y0157163D01*
X0093401Y0157105D01*
X0093375Y0157049D01*
X0093344Y0156995D01*
X0093310Y0156942D01*
X0093273Y0156892D01*
X0093233Y0156844D01*
X0093190Y0156799D01*
X0093144Y0156756D01*
X0093096Y0156717D01*
X0093045Y0156681D01*
X0092992Y0156648D01*
X0092937Y0156618D01*
X0092880Y0156592D01*
X0092822Y0156570D01*
X0092762Y0156552D01*
X0092702Y0156537D01*
X0092640Y0156526D01*
X0092578Y0156519D01*
X0092516Y0156516D01*
X0092453Y0156517D01*
X0092391Y0156522D01*
X0092329Y0156531D01*
X0092268Y0156544D01*
X0092208Y0156560D01*
X0092149Y0156581D01*
X0092091Y0156605D01*
X0092035Y0156633D01*
X0091981Y0156664D01*
X0091929Y0156698D01*
X0091880Y0156736D01*
X0091832Y0156777D01*
X0091788Y0156821D01*
X0091746Y0156867D01*
X0091708Y0156917D01*
X0091672Y0156968D01*
X0091640Y0157022D01*
X0091612Y0157077D01*
X0091586Y0157134D01*
X0091565Y0157193D01*
X0091548Y0157253D01*
X0091534Y0157314D01*
X0091524Y0157375D01*
X0091518Y0157438D01*
X0091516Y0157500D01*
X0096516Y0157500D02*
X0096518Y0157562D01*
X0096524Y0157625D01*
X0096534Y0157686D01*
X0096548Y0157747D01*
X0096565Y0157807D01*
X0096586Y0157866D01*
X0096612Y0157923D01*
X0096640Y0157978D01*
X0096672Y0158032D01*
X0096708Y0158083D01*
X0096746Y0158133D01*
X0096788Y0158179D01*
X0096832Y0158223D01*
X0096880Y0158264D01*
X0096929Y0158302D01*
X0096981Y0158336D01*
X0097035Y0158367D01*
X0097091Y0158395D01*
X0097149Y0158419D01*
X0097208Y0158440D01*
X0097268Y0158456D01*
X0097329Y0158469D01*
X0097391Y0158478D01*
X0097453Y0158483D01*
X0097516Y0158484D01*
X0097578Y0158481D01*
X0097640Y0158474D01*
X0097702Y0158463D01*
X0097762Y0158448D01*
X0097822Y0158430D01*
X0097880Y0158408D01*
X0097937Y0158382D01*
X0097992Y0158352D01*
X0098045Y0158319D01*
X0098096Y0158283D01*
X0098144Y0158244D01*
X0098190Y0158201D01*
X0098233Y0158156D01*
X0098273Y0158108D01*
X0098310Y0158058D01*
X0098344Y0158005D01*
X0098375Y0157951D01*
X0098401Y0157895D01*
X0098425Y0157837D01*
X0098444Y0157777D01*
X0098460Y0157717D01*
X0098472Y0157655D01*
X0098480Y0157594D01*
X0098484Y0157531D01*
X0098484Y0157469D01*
X0098480Y0157406D01*
X0098472Y0157345D01*
X0098460Y0157283D01*
X0098444Y0157223D01*
X0098425Y0157163D01*
X0098401Y0157105D01*
X0098375Y0157049D01*
X0098344Y0156995D01*
X0098310Y0156942D01*
X0098273Y0156892D01*
X0098233Y0156844D01*
X0098190Y0156799D01*
X0098144Y0156756D01*
X0098096Y0156717D01*
X0098045Y0156681D01*
X0097992Y0156648D01*
X0097937Y0156618D01*
X0097880Y0156592D01*
X0097822Y0156570D01*
X0097762Y0156552D01*
X0097702Y0156537D01*
X0097640Y0156526D01*
X0097578Y0156519D01*
X0097516Y0156516D01*
X0097453Y0156517D01*
X0097391Y0156522D01*
X0097329Y0156531D01*
X0097268Y0156544D01*
X0097208Y0156560D01*
X0097149Y0156581D01*
X0097091Y0156605D01*
X0097035Y0156633D01*
X0096981Y0156664D01*
X0096929Y0156698D01*
X0096880Y0156736D01*
X0096832Y0156777D01*
X0096788Y0156821D01*
X0096746Y0156867D01*
X0096708Y0156917D01*
X0096672Y0156968D01*
X0096640Y0157022D01*
X0096612Y0157077D01*
X0096586Y0157134D01*
X0096565Y0157193D01*
X0096548Y0157253D01*
X0096534Y0157314D01*
X0096524Y0157375D01*
X0096518Y0157438D01*
X0096516Y0157500D01*
X0101516Y0157500D02*
X0101518Y0157562D01*
X0101524Y0157625D01*
X0101534Y0157686D01*
X0101548Y0157747D01*
X0101565Y0157807D01*
X0101586Y0157866D01*
X0101612Y0157923D01*
X0101640Y0157978D01*
X0101672Y0158032D01*
X0101708Y0158083D01*
X0101746Y0158133D01*
X0101788Y0158179D01*
X0101832Y0158223D01*
X0101880Y0158264D01*
X0101929Y0158302D01*
X0101981Y0158336D01*
X0102035Y0158367D01*
X0102091Y0158395D01*
X0102149Y0158419D01*
X0102208Y0158440D01*
X0102268Y0158456D01*
X0102329Y0158469D01*
X0102391Y0158478D01*
X0102453Y0158483D01*
X0102516Y0158484D01*
X0102578Y0158481D01*
X0102640Y0158474D01*
X0102702Y0158463D01*
X0102762Y0158448D01*
X0102822Y0158430D01*
X0102880Y0158408D01*
X0102937Y0158382D01*
X0102992Y0158352D01*
X0103045Y0158319D01*
X0103096Y0158283D01*
X0103144Y0158244D01*
X0103190Y0158201D01*
X0103233Y0158156D01*
X0103273Y0158108D01*
X0103310Y0158058D01*
X0103344Y0158005D01*
X0103375Y0157951D01*
X0103401Y0157895D01*
X0103425Y0157837D01*
X0103444Y0157777D01*
X0103460Y0157717D01*
X0103472Y0157655D01*
X0103480Y0157594D01*
X0103484Y0157531D01*
X0103484Y0157469D01*
X0103480Y0157406D01*
X0103472Y0157345D01*
X0103460Y0157283D01*
X0103444Y0157223D01*
X0103425Y0157163D01*
X0103401Y0157105D01*
X0103375Y0157049D01*
X0103344Y0156995D01*
X0103310Y0156942D01*
X0103273Y0156892D01*
X0103233Y0156844D01*
X0103190Y0156799D01*
X0103144Y0156756D01*
X0103096Y0156717D01*
X0103045Y0156681D01*
X0102992Y0156648D01*
X0102937Y0156618D01*
X0102880Y0156592D01*
X0102822Y0156570D01*
X0102762Y0156552D01*
X0102702Y0156537D01*
X0102640Y0156526D01*
X0102578Y0156519D01*
X0102516Y0156516D01*
X0102453Y0156517D01*
X0102391Y0156522D01*
X0102329Y0156531D01*
X0102268Y0156544D01*
X0102208Y0156560D01*
X0102149Y0156581D01*
X0102091Y0156605D01*
X0102035Y0156633D01*
X0101981Y0156664D01*
X0101929Y0156698D01*
X0101880Y0156736D01*
X0101832Y0156777D01*
X0101788Y0156821D01*
X0101746Y0156867D01*
X0101708Y0156917D01*
X0101672Y0156968D01*
X0101640Y0157022D01*
X0101612Y0157077D01*
X0101586Y0157134D01*
X0101565Y0157193D01*
X0101548Y0157253D01*
X0101534Y0157314D01*
X0101524Y0157375D01*
X0101518Y0157438D01*
X0101516Y0157500D01*
X0106516Y0157500D02*
X0106518Y0157562D01*
X0106524Y0157625D01*
X0106534Y0157686D01*
X0106548Y0157747D01*
X0106565Y0157807D01*
X0106586Y0157866D01*
X0106612Y0157923D01*
X0106640Y0157978D01*
X0106672Y0158032D01*
X0106708Y0158083D01*
X0106746Y0158133D01*
X0106788Y0158179D01*
X0106832Y0158223D01*
X0106880Y0158264D01*
X0106929Y0158302D01*
X0106981Y0158336D01*
X0107035Y0158367D01*
X0107091Y0158395D01*
X0107149Y0158419D01*
X0107208Y0158440D01*
X0107268Y0158456D01*
X0107329Y0158469D01*
X0107391Y0158478D01*
X0107453Y0158483D01*
X0107516Y0158484D01*
X0107578Y0158481D01*
X0107640Y0158474D01*
X0107702Y0158463D01*
X0107762Y0158448D01*
X0107822Y0158430D01*
X0107880Y0158408D01*
X0107937Y0158382D01*
X0107992Y0158352D01*
X0108045Y0158319D01*
X0108096Y0158283D01*
X0108144Y0158244D01*
X0108190Y0158201D01*
X0108233Y0158156D01*
X0108273Y0158108D01*
X0108310Y0158058D01*
X0108344Y0158005D01*
X0108375Y0157951D01*
X0108401Y0157895D01*
X0108425Y0157837D01*
X0108444Y0157777D01*
X0108460Y0157717D01*
X0108472Y0157655D01*
X0108480Y0157594D01*
X0108484Y0157531D01*
X0108484Y0157469D01*
X0108480Y0157406D01*
X0108472Y0157345D01*
X0108460Y0157283D01*
X0108444Y0157223D01*
X0108425Y0157163D01*
X0108401Y0157105D01*
X0108375Y0157049D01*
X0108344Y0156995D01*
X0108310Y0156942D01*
X0108273Y0156892D01*
X0108233Y0156844D01*
X0108190Y0156799D01*
X0108144Y0156756D01*
X0108096Y0156717D01*
X0108045Y0156681D01*
X0107992Y0156648D01*
X0107937Y0156618D01*
X0107880Y0156592D01*
X0107822Y0156570D01*
X0107762Y0156552D01*
X0107702Y0156537D01*
X0107640Y0156526D01*
X0107578Y0156519D01*
X0107516Y0156516D01*
X0107453Y0156517D01*
X0107391Y0156522D01*
X0107329Y0156531D01*
X0107268Y0156544D01*
X0107208Y0156560D01*
X0107149Y0156581D01*
X0107091Y0156605D01*
X0107035Y0156633D01*
X0106981Y0156664D01*
X0106929Y0156698D01*
X0106880Y0156736D01*
X0106832Y0156777D01*
X0106788Y0156821D01*
X0106746Y0156867D01*
X0106708Y0156917D01*
X0106672Y0156968D01*
X0106640Y0157022D01*
X0106612Y0157077D01*
X0106586Y0157134D01*
X0106565Y0157193D01*
X0106548Y0157253D01*
X0106534Y0157314D01*
X0106524Y0157375D01*
X0106518Y0157438D01*
X0106516Y0157500D01*
X0111516Y0157500D02*
X0111518Y0157562D01*
X0111524Y0157625D01*
X0111534Y0157686D01*
X0111548Y0157747D01*
X0111565Y0157807D01*
X0111586Y0157866D01*
X0111612Y0157923D01*
X0111640Y0157978D01*
X0111672Y0158032D01*
X0111708Y0158083D01*
X0111746Y0158133D01*
X0111788Y0158179D01*
X0111832Y0158223D01*
X0111880Y0158264D01*
X0111929Y0158302D01*
X0111981Y0158336D01*
X0112035Y0158367D01*
X0112091Y0158395D01*
X0112149Y0158419D01*
X0112208Y0158440D01*
X0112268Y0158456D01*
X0112329Y0158469D01*
X0112391Y0158478D01*
X0112453Y0158483D01*
X0112516Y0158484D01*
X0112578Y0158481D01*
X0112640Y0158474D01*
X0112702Y0158463D01*
X0112762Y0158448D01*
X0112822Y0158430D01*
X0112880Y0158408D01*
X0112937Y0158382D01*
X0112992Y0158352D01*
X0113045Y0158319D01*
X0113096Y0158283D01*
X0113144Y0158244D01*
X0113190Y0158201D01*
X0113233Y0158156D01*
X0113273Y0158108D01*
X0113310Y0158058D01*
X0113344Y0158005D01*
X0113375Y0157951D01*
X0113401Y0157895D01*
X0113425Y0157837D01*
X0113444Y0157777D01*
X0113460Y0157717D01*
X0113472Y0157655D01*
X0113480Y0157594D01*
X0113484Y0157531D01*
X0113484Y0157469D01*
X0113480Y0157406D01*
X0113472Y0157345D01*
X0113460Y0157283D01*
X0113444Y0157223D01*
X0113425Y0157163D01*
X0113401Y0157105D01*
X0113375Y0157049D01*
X0113344Y0156995D01*
X0113310Y0156942D01*
X0113273Y0156892D01*
X0113233Y0156844D01*
X0113190Y0156799D01*
X0113144Y0156756D01*
X0113096Y0156717D01*
X0113045Y0156681D01*
X0112992Y0156648D01*
X0112937Y0156618D01*
X0112880Y0156592D01*
X0112822Y0156570D01*
X0112762Y0156552D01*
X0112702Y0156537D01*
X0112640Y0156526D01*
X0112578Y0156519D01*
X0112516Y0156516D01*
X0112453Y0156517D01*
X0112391Y0156522D01*
X0112329Y0156531D01*
X0112268Y0156544D01*
X0112208Y0156560D01*
X0112149Y0156581D01*
X0112091Y0156605D01*
X0112035Y0156633D01*
X0111981Y0156664D01*
X0111929Y0156698D01*
X0111880Y0156736D01*
X0111832Y0156777D01*
X0111788Y0156821D01*
X0111746Y0156867D01*
X0111708Y0156917D01*
X0111672Y0156968D01*
X0111640Y0157022D01*
X0111612Y0157077D01*
X0111586Y0157134D01*
X0111565Y0157193D01*
X0111548Y0157253D01*
X0111534Y0157314D01*
X0111524Y0157375D01*
X0111518Y0157438D01*
X0111516Y0157500D01*
X0116516Y0157500D02*
X0116518Y0157562D01*
X0116524Y0157625D01*
X0116534Y0157686D01*
X0116548Y0157747D01*
X0116565Y0157807D01*
X0116586Y0157866D01*
X0116612Y0157923D01*
X0116640Y0157978D01*
X0116672Y0158032D01*
X0116708Y0158083D01*
X0116746Y0158133D01*
X0116788Y0158179D01*
X0116832Y0158223D01*
X0116880Y0158264D01*
X0116929Y0158302D01*
X0116981Y0158336D01*
X0117035Y0158367D01*
X0117091Y0158395D01*
X0117149Y0158419D01*
X0117208Y0158440D01*
X0117268Y0158456D01*
X0117329Y0158469D01*
X0117391Y0158478D01*
X0117453Y0158483D01*
X0117516Y0158484D01*
X0117578Y0158481D01*
X0117640Y0158474D01*
X0117702Y0158463D01*
X0117762Y0158448D01*
X0117822Y0158430D01*
X0117880Y0158408D01*
X0117937Y0158382D01*
X0117992Y0158352D01*
X0118045Y0158319D01*
X0118096Y0158283D01*
X0118144Y0158244D01*
X0118190Y0158201D01*
X0118233Y0158156D01*
X0118273Y0158108D01*
X0118310Y0158058D01*
X0118344Y0158005D01*
X0118375Y0157951D01*
X0118401Y0157895D01*
X0118425Y0157837D01*
X0118444Y0157777D01*
X0118460Y0157717D01*
X0118472Y0157655D01*
X0118480Y0157594D01*
X0118484Y0157531D01*
X0118484Y0157469D01*
X0118480Y0157406D01*
X0118472Y0157345D01*
X0118460Y0157283D01*
X0118444Y0157223D01*
X0118425Y0157163D01*
X0118401Y0157105D01*
X0118375Y0157049D01*
X0118344Y0156995D01*
X0118310Y0156942D01*
X0118273Y0156892D01*
X0118233Y0156844D01*
X0118190Y0156799D01*
X0118144Y0156756D01*
X0118096Y0156717D01*
X0118045Y0156681D01*
X0117992Y0156648D01*
X0117937Y0156618D01*
X0117880Y0156592D01*
X0117822Y0156570D01*
X0117762Y0156552D01*
X0117702Y0156537D01*
X0117640Y0156526D01*
X0117578Y0156519D01*
X0117516Y0156516D01*
X0117453Y0156517D01*
X0117391Y0156522D01*
X0117329Y0156531D01*
X0117268Y0156544D01*
X0117208Y0156560D01*
X0117149Y0156581D01*
X0117091Y0156605D01*
X0117035Y0156633D01*
X0116981Y0156664D01*
X0116929Y0156698D01*
X0116880Y0156736D01*
X0116832Y0156777D01*
X0116788Y0156821D01*
X0116746Y0156867D01*
X0116708Y0156917D01*
X0116672Y0156968D01*
X0116640Y0157022D01*
X0116612Y0157077D01*
X0116586Y0157134D01*
X0116565Y0157193D01*
X0116548Y0157253D01*
X0116534Y0157314D01*
X0116524Y0157375D01*
X0116518Y0157438D01*
X0116516Y0157500D01*
X0121516Y0157500D02*
X0121518Y0157562D01*
X0121524Y0157625D01*
X0121534Y0157686D01*
X0121548Y0157747D01*
X0121565Y0157807D01*
X0121586Y0157866D01*
X0121612Y0157923D01*
X0121640Y0157978D01*
X0121672Y0158032D01*
X0121708Y0158083D01*
X0121746Y0158133D01*
X0121788Y0158179D01*
X0121832Y0158223D01*
X0121880Y0158264D01*
X0121929Y0158302D01*
X0121981Y0158336D01*
X0122035Y0158367D01*
X0122091Y0158395D01*
X0122149Y0158419D01*
X0122208Y0158440D01*
X0122268Y0158456D01*
X0122329Y0158469D01*
X0122391Y0158478D01*
X0122453Y0158483D01*
X0122516Y0158484D01*
X0122578Y0158481D01*
X0122640Y0158474D01*
X0122702Y0158463D01*
X0122762Y0158448D01*
X0122822Y0158430D01*
X0122880Y0158408D01*
X0122937Y0158382D01*
X0122992Y0158352D01*
X0123045Y0158319D01*
X0123096Y0158283D01*
X0123144Y0158244D01*
X0123190Y0158201D01*
X0123233Y0158156D01*
X0123273Y0158108D01*
X0123310Y0158058D01*
X0123344Y0158005D01*
X0123375Y0157951D01*
X0123401Y0157895D01*
X0123425Y0157837D01*
X0123444Y0157777D01*
X0123460Y0157717D01*
X0123472Y0157655D01*
X0123480Y0157594D01*
X0123484Y0157531D01*
X0123484Y0157469D01*
X0123480Y0157406D01*
X0123472Y0157345D01*
X0123460Y0157283D01*
X0123444Y0157223D01*
X0123425Y0157163D01*
X0123401Y0157105D01*
X0123375Y0157049D01*
X0123344Y0156995D01*
X0123310Y0156942D01*
X0123273Y0156892D01*
X0123233Y0156844D01*
X0123190Y0156799D01*
X0123144Y0156756D01*
X0123096Y0156717D01*
X0123045Y0156681D01*
X0122992Y0156648D01*
X0122937Y0156618D01*
X0122880Y0156592D01*
X0122822Y0156570D01*
X0122762Y0156552D01*
X0122702Y0156537D01*
X0122640Y0156526D01*
X0122578Y0156519D01*
X0122516Y0156516D01*
X0122453Y0156517D01*
X0122391Y0156522D01*
X0122329Y0156531D01*
X0122268Y0156544D01*
X0122208Y0156560D01*
X0122149Y0156581D01*
X0122091Y0156605D01*
X0122035Y0156633D01*
X0121981Y0156664D01*
X0121929Y0156698D01*
X0121880Y0156736D01*
X0121832Y0156777D01*
X0121788Y0156821D01*
X0121746Y0156867D01*
X0121708Y0156917D01*
X0121672Y0156968D01*
X0121640Y0157022D01*
X0121612Y0157077D01*
X0121586Y0157134D01*
X0121565Y0157193D01*
X0121548Y0157253D01*
X0121534Y0157314D01*
X0121524Y0157375D01*
X0121518Y0157438D01*
X0121516Y0157500D01*
X0126516Y0157500D02*
X0126518Y0157562D01*
X0126524Y0157625D01*
X0126534Y0157686D01*
X0126548Y0157747D01*
X0126565Y0157807D01*
X0126586Y0157866D01*
X0126612Y0157923D01*
X0126640Y0157978D01*
X0126672Y0158032D01*
X0126708Y0158083D01*
X0126746Y0158133D01*
X0126788Y0158179D01*
X0126832Y0158223D01*
X0126880Y0158264D01*
X0126929Y0158302D01*
X0126981Y0158336D01*
X0127035Y0158367D01*
X0127091Y0158395D01*
X0127149Y0158419D01*
X0127208Y0158440D01*
X0127268Y0158456D01*
X0127329Y0158469D01*
X0127391Y0158478D01*
X0127453Y0158483D01*
X0127516Y0158484D01*
X0127578Y0158481D01*
X0127640Y0158474D01*
X0127702Y0158463D01*
X0127762Y0158448D01*
X0127822Y0158430D01*
X0127880Y0158408D01*
X0127937Y0158382D01*
X0127992Y0158352D01*
X0128045Y0158319D01*
X0128096Y0158283D01*
X0128144Y0158244D01*
X0128190Y0158201D01*
X0128233Y0158156D01*
X0128273Y0158108D01*
X0128310Y0158058D01*
X0128344Y0158005D01*
X0128375Y0157951D01*
X0128401Y0157895D01*
X0128425Y0157837D01*
X0128444Y0157777D01*
X0128460Y0157717D01*
X0128472Y0157655D01*
X0128480Y0157594D01*
X0128484Y0157531D01*
X0128484Y0157469D01*
X0128480Y0157406D01*
X0128472Y0157345D01*
X0128460Y0157283D01*
X0128444Y0157223D01*
X0128425Y0157163D01*
X0128401Y0157105D01*
X0128375Y0157049D01*
X0128344Y0156995D01*
X0128310Y0156942D01*
X0128273Y0156892D01*
X0128233Y0156844D01*
X0128190Y0156799D01*
X0128144Y0156756D01*
X0128096Y0156717D01*
X0128045Y0156681D01*
X0127992Y0156648D01*
X0127937Y0156618D01*
X0127880Y0156592D01*
X0127822Y0156570D01*
X0127762Y0156552D01*
X0127702Y0156537D01*
X0127640Y0156526D01*
X0127578Y0156519D01*
X0127516Y0156516D01*
X0127453Y0156517D01*
X0127391Y0156522D01*
X0127329Y0156531D01*
X0127268Y0156544D01*
X0127208Y0156560D01*
X0127149Y0156581D01*
X0127091Y0156605D01*
X0127035Y0156633D01*
X0126981Y0156664D01*
X0126929Y0156698D01*
X0126880Y0156736D01*
X0126832Y0156777D01*
X0126788Y0156821D01*
X0126746Y0156867D01*
X0126708Y0156917D01*
X0126672Y0156968D01*
X0126640Y0157022D01*
X0126612Y0157077D01*
X0126586Y0157134D01*
X0126565Y0157193D01*
X0126548Y0157253D01*
X0126534Y0157314D01*
X0126524Y0157375D01*
X0126518Y0157438D01*
X0126516Y0157500D01*
X0131516Y0157500D02*
X0131518Y0157562D01*
X0131524Y0157625D01*
X0131534Y0157686D01*
X0131548Y0157747D01*
X0131565Y0157807D01*
X0131586Y0157866D01*
X0131612Y0157923D01*
X0131640Y0157978D01*
X0131672Y0158032D01*
X0131708Y0158083D01*
X0131746Y0158133D01*
X0131788Y0158179D01*
X0131832Y0158223D01*
X0131880Y0158264D01*
X0131929Y0158302D01*
X0131981Y0158336D01*
X0132035Y0158367D01*
X0132091Y0158395D01*
X0132149Y0158419D01*
X0132208Y0158440D01*
X0132268Y0158456D01*
X0132329Y0158469D01*
X0132391Y0158478D01*
X0132453Y0158483D01*
X0132516Y0158484D01*
X0132578Y0158481D01*
X0132640Y0158474D01*
X0132702Y0158463D01*
X0132762Y0158448D01*
X0132822Y0158430D01*
X0132880Y0158408D01*
X0132937Y0158382D01*
X0132992Y0158352D01*
X0133045Y0158319D01*
X0133096Y0158283D01*
X0133144Y0158244D01*
X0133190Y0158201D01*
X0133233Y0158156D01*
X0133273Y0158108D01*
X0133310Y0158058D01*
X0133344Y0158005D01*
X0133375Y0157951D01*
X0133401Y0157895D01*
X0133425Y0157837D01*
X0133444Y0157777D01*
X0133460Y0157717D01*
X0133472Y0157655D01*
X0133480Y0157594D01*
X0133484Y0157531D01*
X0133484Y0157469D01*
X0133480Y0157406D01*
X0133472Y0157345D01*
X0133460Y0157283D01*
X0133444Y0157223D01*
X0133425Y0157163D01*
X0133401Y0157105D01*
X0133375Y0157049D01*
X0133344Y0156995D01*
X0133310Y0156942D01*
X0133273Y0156892D01*
X0133233Y0156844D01*
X0133190Y0156799D01*
X0133144Y0156756D01*
X0133096Y0156717D01*
X0133045Y0156681D01*
X0132992Y0156648D01*
X0132937Y0156618D01*
X0132880Y0156592D01*
X0132822Y0156570D01*
X0132762Y0156552D01*
X0132702Y0156537D01*
X0132640Y0156526D01*
X0132578Y0156519D01*
X0132516Y0156516D01*
X0132453Y0156517D01*
X0132391Y0156522D01*
X0132329Y0156531D01*
X0132268Y0156544D01*
X0132208Y0156560D01*
X0132149Y0156581D01*
X0132091Y0156605D01*
X0132035Y0156633D01*
X0131981Y0156664D01*
X0131929Y0156698D01*
X0131880Y0156736D01*
X0131832Y0156777D01*
X0131788Y0156821D01*
X0131746Y0156867D01*
X0131708Y0156917D01*
X0131672Y0156968D01*
X0131640Y0157022D01*
X0131612Y0157077D01*
X0131586Y0157134D01*
X0131565Y0157193D01*
X0131548Y0157253D01*
X0131534Y0157314D01*
X0131524Y0157375D01*
X0131518Y0157438D01*
X0131516Y0157500D01*
X0136516Y0157500D02*
X0136518Y0157562D01*
X0136524Y0157625D01*
X0136534Y0157686D01*
X0136548Y0157747D01*
X0136565Y0157807D01*
X0136586Y0157866D01*
X0136612Y0157923D01*
X0136640Y0157978D01*
X0136672Y0158032D01*
X0136708Y0158083D01*
X0136746Y0158133D01*
X0136788Y0158179D01*
X0136832Y0158223D01*
X0136880Y0158264D01*
X0136929Y0158302D01*
X0136981Y0158336D01*
X0137035Y0158367D01*
X0137091Y0158395D01*
X0137149Y0158419D01*
X0137208Y0158440D01*
X0137268Y0158456D01*
X0137329Y0158469D01*
X0137391Y0158478D01*
X0137453Y0158483D01*
X0137516Y0158484D01*
X0137578Y0158481D01*
X0137640Y0158474D01*
X0137702Y0158463D01*
X0137762Y0158448D01*
X0137822Y0158430D01*
X0137880Y0158408D01*
X0137937Y0158382D01*
X0137992Y0158352D01*
X0138045Y0158319D01*
X0138096Y0158283D01*
X0138144Y0158244D01*
X0138190Y0158201D01*
X0138233Y0158156D01*
X0138273Y0158108D01*
X0138310Y0158058D01*
X0138344Y0158005D01*
X0138375Y0157951D01*
X0138401Y0157895D01*
X0138425Y0157837D01*
X0138444Y0157777D01*
X0138460Y0157717D01*
X0138472Y0157655D01*
X0138480Y0157594D01*
X0138484Y0157531D01*
X0138484Y0157469D01*
X0138480Y0157406D01*
X0138472Y0157345D01*
X0138460Y0157283D01*
X0138444Y0157223D01*
X0138425Y0157163D01*
X0138401Y0157105D01*
X0138375Y0157049D01*
X0138344Y0156995D01*
X0138310Y0156942D01*
X0138273Y0156892D01*
X0138233Y0156844D01*
X0138190Y0156799D01*
X0138144Y0156756D01*
X0138096Y0156717D01*
X0138045Y0156681D01*
X0137992Y0156648D01*
X0137937Y0156618D01*
X0137880Y0156592D01*
X0137822Y0156570D01*
X0137762Y0156552D01*
X0137702Y0156537D01*
X0137640Y0156526D01*
X0137578Y0156519D01*
X0137516Y0156516D01*
X0137453Y0156517D01*
X0137391Y0156522D01*
X0137329Y0156531D01*
X0137268Y0156544D01*
X0137208Y0156560D01*
X0137149Y0156581D01*
X0137091Y0156605D01*
X0137035Y0156633D01*
X0136981Y0156664D01*
X0136929Y0156698D01*
X0136880Y0156736D01*
X0136832Y0156777D01*
X0136788Y0156821D01*
X0136746Y0156867D01*
X0136708Y0156917D01*
X0136672Y0156968D01*
X0136640Y0157022D01*
X0136612Y0157077D01*
X0136586Y0157134D01*
X0136565Y0157193D01*
X0136548Y0157253D01*
X0136534Y0157314D01*
X0136524Y0157375D01*
X0136518Y0157438D01*
X0136516Y0157500D01*
X0141516Y0157500D02*
X0141518Y0157562D01*
X0141524Y0157625D01*
X0141534Y0157686D01*
X0141548Y0157747D01*
X0141565Y0157807D01*
X0141586Y0157866D01*
X0141612Y0157923D01*
X0141640Y0157978D01*
X0141672Y0158032D01*
X0141708Y0158083D01*
X0141746Y0158133D01*
X0141788Y0158179D01*
X0141832Y0158223D01*
X0141880Y0158264D01*
X0141929Y0158302D01*
X0141981Y0158336D01*
X0142035Y0158367D01*
X0142091Y0158395D01*
X0142149Y0158419D01*
X0142208Y0158440D01*
X0142268Y0158456D01*
X0142329Y0158469D01*
X0142391Y0158478D01*
X0142453Y0158483D01*
X0142516Y0158484D01*
X0142578Y0158481D01*
X0142640Y0158474D01*
X0142702Y0158463D01*
X0142762Y0158448D01*
X0142822Y0158430D01*
X0142880Y0158408D01*
X0142937Y0158382D01*
X0142992Y0158352D01*
X0143045Y0158319D01*
X0143096Y0158283D01*
X0143144Y0158244D01*
X0143190Y0158201D01*
X0143233Y0158156D01*
X0143273Y0158108D01*
X0143310Y0158058D01*
X0143344Y0158005D01*
X0143375Y0157951D01*
X0143401Y0157895D01*
X0143425Y0157837D01*
X0143444Y0157777D01*
X0143460Y0157717D01*
X0143472Y0157655D01*
X0143480Y0157594D01*
X0143484Y0157531D01*
X0143484Y0157469D01*
X0143480Y0157406D01*
X0143472Y0157345D01*
X0143460Y0157283D01*
X0143444Y0157223D01*
X0143425Y0157163D01*
X0143401Y0157105D01*
X0143375Y0157049D01*
X0143344Y0156995D01*
X0143310Y0156942D01*
X0143273Y0156892D01*
X0143233Y0156844D01*
X0143190Y0156799D01*
X0143144Y0156756D01*
X0143096Y0156717D01*
X0143045Y0156681D01*
X0142992Y0156648D01*
X0142937Y0156618D01*
X0142880Y0156592D01*
X0142822Y0156570D01*
X0142762Y0156552D01*
X0142702Y0156537D01*
X0142640Y0156526D01*
X0142578Y0156519D01*
X0142516Y0156516D01*
X0142453Y0156517D01*
X0142391Y0156522D01*
X0142329Y0156531D01*
X0142268Y0156544D01*
X0142208Y0156560D01*
X0142149Y0156581D01*
X0142091Y0156605D01*
X0142035Y0156633D01*
X0141981Y0156664D01*
X0141929Y0156698D01*
X0141880Y0156736D01*
X0141832Y0156777D01*
X0141788Y0156821D01*
X0141746Y0156867D01*
X0141708Y0156917D01*
X0141672Y0156968D01*
X0141640Y0157022D01*
X0141612Y0157077D01*
X0141586Y0157134D01*
X0141565Y0157193D01*
X0141548Y0157253D01*
X0141534Y0157314D01*
X0141524Y0157375D01*
X0141518Y0157438D01*
X0141516Y0157500D01*
X0146516Y0157500D02*
X0146518Y0157562D01*
X0146524Y0157625D01*
X0146534Y0157686D01*
X0146548Y0157747D01*
X0146565Y0157807D01*
X0146586Y0157866D01*
X0146612Y0157923D01*
X0146640Y0157978D01*
X0146672Y0158032D01*
X0146708Y0158083D01*
X0146746Y0158133D01*
X0146788Y0158179D01*
X0146832Y0158223D01*
X0146880Y0158264D01*
X0146929Y0158302D01*
X0146981Y0158336D01*
X0147035Y0158367D01*
X0147091Y0158395D01*
X0147149Y0158419D01*
X0147208Y0158440D01*
X0147268Y0158456D01*
X0147329Y0158469D01*
X0147391Y0158478D01*
X0147453Y0158483D01*
X0147516Y0158484D01*
X0147578Y0158481D01*
X0147640Y0158474D01*
X0147702Y0158463D01*
X0147762Y0158448D01*
X0147822Y0158430D01*
X0147880Y0158408D01*
X0147937Y0158382D01*
X0147992Y0158352D01*
X0148045Y0158319D01*
X0148096Y0158283D01*
X0148144Y0158244D01*
X0148190Y0158201D01*
X0148233Y0158156D01*
X0148273Y0158108D01*
X0148310Y0158058D01*
X0148344Y0158005D01*
X0148375Y0157951D01*
X0148401Y0157895D01*
X0148425Y0157837D01*
X0148444Y0157777D01*
X0148460Y0157717D01*
X0148472Y0157655D01*
X0148480Y0157594D01*
X0148484Y0157531D01*
X0148484Y0157469D01*
X0148480Y0157406D01*
X0148472Y0157345D01*
X0148460Y0157283D01*
X0148444Y0157223D01*
X0148425Y0157163D01*
X0148401Y0157105D01*
X0148375Y0157049D01*
X0148344Y0156995D01*
X0148310Y0156942D01*
X0148273Y0156892D01*
X0148233Y0156844D01*
X0148190Y0156799D01*
X0148144Y0156756D01*
X0148096Y0156717D01*
X0148045Y0156681D01*
X0147992Y0156648D01*
X0147937Y0156618D01*
X0147880Y0156592D01*
X0147822Y0156570D01*
X0147762Y0156552D01*
X0147702Y0156537D01*
X0147640Y0156526D01*
X0147578Y0156519D01*
X0147516Y0156516D01*
X0147453Y0156517D01*
X0147391Y0156522D01*
X0147329Y0156531D01*
X0147268Y0156544D01*
X0147208Y0156560D01*
X0147149Y0156581D01*
X0147091Y0156605D01*
X0147035Y0156633D01*
X0146981Y0156664D01*
X0146929Y0156698D01*
X0146880Y0156736D01*
X0146832Y0156777D01*
X0146788Y0156821D01*
X0146746Y0156867D01*
X0146708Y0156917D01*
X0146672Y0156968D01*
X0146640Y0157022D01*
X0146612Y0157077D01*
X0146586Y0157134D01*
X0146565Y0157193D01*
X0146548Y0157253D01*
X0146534Y0157314D01*
X0146524Y0157375D01*
X0146518Y0157438D01*
X0146516Y0157500D01*
X0151516Y0157500D02*
X0151518Y0157562D01*
X0151524Y0157625D01*
X0151534Y0157686D01*
X0151548Y0157747D01*
X0151565Y0157807D01*
X0151586Y0157866D01*
X0151612Y0157923D01*
X0151640Y0157978D01*
X0151672Y0158032D01*
X0151708Y0158083D01*
X0151746Y0158133D01*
X0151788Y0158179D01*
X0151832Y0158223D01*
X0151880Y0158264D01*
X0151929Y0158302D01*
X0151981Y0158336D01*
X0152035Y0158367D01*
X0152091Y0158395D01*
X0152149Y0158419D01*
X0152208Y0158440D01*
X0152268Y0158456D01*
X0152329Y0158469D01*
X0152391Y0158478D01*
X0152453Y0158483D01*
X0152516Y0158484D01*
X0152578Y0158481D01*
X0152640Y0158474D01*
X0152702Y0158463D01*
X0152762Y0158448D01*
X0152822Y0158430D01*
X0152880Y0158408D01*
X0152937Y0158382D01*
X0152992Y0158352D01*
X0153045Y0158319D01*
X0153096Y0158283D01*
X0153144Y0158244D01*
X0153190Y0158201D01*
X0153233Y0158156D01*
X0153273Y0158108D01*
X0153310Y0158058D01*
X0153344Y0158005D01*
X0153375Y0157951D01*
X0153401Y0157895D01*
X0153425Y0157837D01*
X0153444Y0157777D01*
X0153460Y0157717D01*
X0153472Y0157655D01*
X0153480Y0157594D01*
X0153484Y0157531D01*
X0153484Y0157469D01*
X0153480Y0157406D01*
X0153472Y0157345D01*
X0153460Y0157283D01*
X0153444Y0157223D01*
X0153425Y0157163D01*
X0153401Y0157105D01*
X0153375Y0157049D01*
X0153344Y0156995D01*
X0153310Y0156942D01*
X0153273Y0156892D01*
X0153233Y0156844D01*
X0153190Y0156799D01*
X0153144Y0156756D01*
X0153096Y0156717D01*
X0153045Y0156681D01*
X0152992Y0156648D01*
X0152937Y0156618D01*
X0152880Y0156592D01*
X0152822Y0156570D01*
X0152762Y0156552D01*
X0152702Y0156537D01*
X0152640Y0156526D01*
X0152578Y0156519D01*
X0152516Y0156516D01*
X0152453Y0156517D01*
X0152391Y0156522D01*
X0152329Y0156531D01*
X0152268Y0156544D01*
X0152208Y0156560D01*
X0152149Y0156581D01*
X0152091Y0156605D01*
X0152035Y0156633D01*
X0151981Y0156664D01*
X0151929Y0156698D01*
X0151880Y0156736D01*
X0151832Y0156777D01*
X0151788Y0156821D01*
X0151746Y0156867D01*
X0151708Y0156917D01*
X0151672Y0156968D01*
X0151640Y0157022D01*
X0151612Y0157077D01*
X0151586Y0157134D01*
X0151565Y0157193D01*
X0151548Y0157253D01*
X0151534Y0157314D01*
X0151524Y0157375D01*
X0151518Y0157438D01*
X0151516Y0157500D01*
X0156516Y0157500D02*
X0156518Y0157562D01*
X0156524Y0157625D01*
X0156534Y0157686D01*
X0156548Y0157747D01*
X0156565Y0157807D01*
X0156586Y0157866D01*
X0156612Y0157923D01*
X0156640Y0157978D01*
X0156672Y0158032D01*
X0156708Y0158083D01*
X0156746Y0158133D01*
X0156788Y0158179D01*
X0156832Y0158223D01*
X0156880Y0158264D01*
X0156929Y0158302D01*
X0156981Y0158336D01*
X0157035Y0158367D01*
X0157091Y0158395D01*
X0157149Y0158419D01*
X0157208Y0158440D01*
X0157268Y0158456D01*
X0157329Y0158469D01*
X0157391Y0158478D01*
X0157453Y0158483D01*
X0157516Y0158484D01*
X0157578Y0158481D01*
X0157640Y0158474D01*
X0157702Y0158463D01*
X0157762Y0158448D01*
X0157822Y0158430D01*
X0157880Y0158408D01*
X0157937Y0158382D01*
X0157992Y0158352D01*
X0158045Y0158319D01*
X0158096Y0158283D01*
X0158144Y0158244D01*
X0158190Y0158201D01*
X0158233Y0158156D01*
X0158273Y0158108D01*
X0158310Y0158058D01*
X0158344Y0158005D01*
X0158375Y0157951D01*
X0158401Y0157895D01*
X0158425Y0157837D01*
X0158444Y0157777D01*
X0158460Y0157717D01*
X0158472Y0157655D01*
X0158480Y0157594D01*
X0158484Y0157531D01*
X0158484Y0157469D01*
X0158480Y0157406D01*
X0158472Y0157345D01*
X0158460Y0157283D01*
X0158444Y0157223D01*
X0158425Y0157163D01*
X0158401Y0157105D01*
X0158375Y0157049D01*
X0158344Y0156995D01*
X0158310Y0156942D01*
X0158273Y0156892D01*
X0158233Y0156844D01*
X0158190Y0156799D01*
X0158144Y0156756D01*
X0158096Y0156717D01*
X0158045Y0156681D01*
X0157992Y0156648D01*
X0157937Y0156618D01*
X0157880Y0156592D01*
X0157822Y0156570D01*
X0157762Y0156552D01*
X0157702Y0156537D01*
X0157640Y0156526D01*
X0157578Y0156519D01*
X0157516Y0156516D01*
X0157453Y0156517D01*
X0157391Y0156522D01*
X0157329Y0156531D01*
X0157268Y0156544D01*
X0157208Y0156560D01*
X0157149Y0156581D01*
X0157091Y0156605D01*
X0157035Y0156633D01*
X0156981Y0156664D01*
X0156929Y0156698D01*
X0156880Y0156736D01*
X0156832Y0156777D01*
X0156788Y0156821D01*
X0156746Y0156867D01*
X0156708Y0156917D01*
X0156672Y0156968D01*
X0156640Y0157022D01*
X0156612Y0157077D01*
X0156586Y0157134D01*
X0156565Y0157193D01*
X0156548Y0157253D01*
X0156534Y0157314D01*
X0156524Y0157375D01*
X0156518Y0157438D01*
X0156516Y0157500D01*
X0161516Y0157500D02*
X0161518Y0157562D01*
X0161524Y0157625D01*
X0161534Y0157686D01*
X0161548Y0157747D01*
X0161565Y0157807D01*
X0161586Y0157866D01*
X0161612Y0157923D01*
X0161640Y0157978D01*
X0161672Y0158032D01*
X0161708Y0158083D01*
X0161746Y0158133D01*
X0161788Y0158179D01*
X0161832Y0158223D01*
X0161880Y0158264D01*
X0161929Y0158302D01*
X0161981Y0158336D01*
X0162035Y0158367D01*
X0162091Y0158395D01*
X0162149Y0158419D01*
X0162208Y0158440D01*
X0162268Y0158456D01*
X0162329Y0158469D01*
X0162391Y0158478D01*
X0162453Y0158483D01*
X0162516Y0158484D01*
X0162578Y0158481D01*
X0162640Y0158474D01*
X0162702Y0158463D01*
X0162762Y0158448D01*
X0162822Y0158430D01*
X0162880Y0158408D01*
X0162937Y0158382D01*
X0162992Y0158352D01*
X0163045Y0158319D01*
X0163096Y0158283D01*
X0163144Y0158244D01*
X0163190Y0158201D01*
X0163233Y0158156D01*
X0163273Y0158108D01*
X0163310Y0158058D01*
X0163344Y0158005D01*
X0163375Y0157951D01*
X0163401Y0157895D01*
X0163425Y0157837D01*
X0163444Y0157777D01*
X0163460Y0157717D01*
X0163472Y0157655D01*
X0163480Y0157594D01*
X0163484Y0157531D01*
X0163484Y0157469D01*
X0163480Y0157406D01*
X0163472Y0157345D01*
X0163460Y0157283D01*
X0163444Y0157223D01*
X0163425Y0157163D01*
X0163401Y0157105D01*
X0163375Y0157049D01*
X0163344Y0156995D01*
X0163310Y0156942D01*
X0163273Y0156892D01*
X0163233Y0156844D01*
X0163190Y0156799D01*
X0163144Y0156756D01*
X0163096Y0156717D01*
X0163045Y0156681D01*
X0162992Y0156648D01*
X0162937Y0156618D01*
X0162880Y0156592D01*
X0162822Y0156570D01*
X0162762Y0156552D01*
X0162702Y0156537D01*
X0162640Y0156526D01*
X0162578Y0156519D01*
X0162516Y0156516D01*
X0162453Y0156517D01*
X0162391Y0156522D01*
X0162329Y0156531D01*
X0162268Y0156544D01*
X0162208Y0156560D01*
X0162149Y0156581D01*
X0162091Y0156605D01*
X0162035Y0156633D01*
X0161981Y0156664D01*
X0161929Y0156698D01*
X0161880Y0156736D01*
X0161832Y0156777D01*
X0161788Y0156821D01*
X0161746Y0156867D01*
X0161708Y0156917D01*
X0161672Y0156968D01*
X0161640Y0157022D01*
X0161612Y0157077D01*
X0161586Y0157134D01*
X0161565Y0157193D01*
X0161548Y0157253D01*
X0161534Y0157314D01*
X0161524Y0157375D01*
X0161518Y0157438D01*
X0161516Y0157500D01*
X0166516Y0157500D02*
X0166518Y0157562D01*
X0166524Y0157625D01*
X0166534Y0157686D01*
X0166548Y0157747D01*
X0166565Y0157807D01*
X0166586Y0157866D01*
X0166612Y0157923D01*
X0166640Y0157978D01*
X0166672Y0158032D01*
X0166708Y0158083D01*
X0166746Y0158133D01*
X0166788Y0158179D01*
X0166832Y0158223D01*
X0166880Y0158264D01*
X0166929Y0158302D01*
X0166981Y0158336D01*
X0167035Y0158367D01*
X0167091Y0158395D01*
X0167149Y0158419D01*
X0167208Y0158440D01*
X0167268Y0158456D01*
X0167329Y0158469D01*
X0167391Y0158478D01*
X0167453Y0158483D01*
X0167516Y0158484D01*
X0167578Y0158481D01*
X0167640Y0158474D01*
X0167702Y0158463D01*
X0167762Y0158448D01*
X0167822Y0158430D01*
X0167880Y0158408D01*
X0167937Y0158382D01*
X0167992Y0158352D01*
X0168045Y0158319D01*
X0168096Y0158283D01*
X0168144Y0158244D01*
X0168190Y0158201D01*
X0168233Y0158156D01*
X0168273Y0158108D01*
X0168310Y0158058D01*
X0168344Y0158005D01*
X0168375Y0157951D01*
X0168401Y0157895D01*
X0168425Y0157837D01*
X0168444Y0157777D01*
X0168460Y0157717D01*
X0168472Y0157655D01*
X0168480Y0157594D01*
X0168484Y0157531D01*
X0168484Y0157469D01*
X0168480Y0157406D01*
X0168472Y0157345D01*
X0168460Y0157283D01*
X0168444Y0157223D01*
X0168425Y0157163D01*
X0168401Y0157105D01*
X0168375Y0157049D01*
X0168344Y0156995D01*
X0168310Y0156942D01*
X0168273Y0156892D01*
X0168233Y0156844D01*
X0168190Y0156799D01*
X0168144Y0156756D01*
X0168096Y0156717D01*
X0168045Y0156681D01*
X0167992Y0156648D01*
X0167937Y0156618D01*
X0167880Y0156592D01*
X0167822Y0156570D01*
X0167762Y0156552D01*
X0167702Y0156537D01*
X0167640Y0156526D01*
X0167578Y0156519D01*
X0167516Y0156516D01*
X0167453Y0156517D01*
X0167391Y0156522D01*
X0167329Y0156531D01*
X0167268Y0156544D01*
X0167208Y0156560D01*
X0167149Y0156581D01*
X0167091Y0156605D01*
X0167035Y0156633D01*
X0166981Y0156664D01*
X0166929Y0156698D01*
X0166880Y0156736D01*
X0166832Y0156777D01*
X0166788Y0156821D01*
X0166746Y0156867D01*
X0166708Y0156917D01*
X0166672Y0156968D01*
X0166640Y0157022D01*
X0166612Y0157077D01*
X0166586Y0157134D01*
X0166565Y0157193D01*
X0166548Y0157253D01*
X0166534Y0157314D01*
X0166524Y0157375D01*
X0166518Y0157438D01*
X0166516Y0157500D01*
X0171516Y0157500D02*
X0171518Y0157562D01*
X0171524Y0157625D01*
X0171534Y0157686D01*
X0171548Y0157747D01*
X0171565Y0157807D01*
X0171586Y0157866D01*
X0171612Y0157923D01*
X0171640Y0157978D01*
X0171672Y0158032D01*
X0171708Y0158083D01*
X0171746Y0158133D01*
X0171788Y0158179D01*
X0171832Y0158223D01*
X0171880Y0158264D01*
X0171929Y0158302D01*
X0171981Y0158336D01*
X0172035Y0158367D01*
X0172091Y0158395D01*
X0172149Y0158419D01*
X0172208Y0158440D01*
X0172268Y0158456D01*
X0172329Y0158469D01*
X0172391Y0158478D01*
X0172453Y0158483D01*
X0172516Y0158484D01*
X0172578Y0158481D01*
X0172640Y0158474D01*
X0172702Y0158463D01*
X0172762Y0158448D01*
X0172822Y0158430D01*
X0172880Y0158408D01*
X0172937Y0158382D01*
X0172992Y0158352D01*
X0173045Y0158319D01*
X0173096Y0158283D01*
X0173144Y0158244D01*
X0173190Y0158201D01*
X0173233Y0158156D01*
X0173273Y0158108D01*
X0173310Y0158058D01*
X0173344Y0158005D01*
X0173375Y0157951D01*
X0173401Y0157895D01*
X0173425Y0157837D01*
X0173444Y0157777D01*
X0173460Y0157717D01*
X0173472Y0157655D01*
X0173480Y0157594D01*
X0173484Y0157531D01*
X0173484Y0157469D01*
X0173480Y0157406D01*
X0173472Y0157345D01*
X0173460Y0157283D01*
X0173444Y0157223D01*
X0173425Y0157163D01*
X0173401Y0157105D01*
X0173375Y0157049D01*
X0173344Y0156995D01*
X0173310Y0156942D01*
X0173273Y0156892D01*
X0173233Y0156844D01*
X0173190Y0156799D01*
X0173144Y0156756D01*
X0173096Y0156717D01*
X0173045Y0156681D01*
X0172992Y0156648D01*
X0172937Y0156618D01*
X0172880Y0156592D01*
X0172822Y0156570D01*
X0172762Y0156552D01*
X0172702Y0156537D01*
X0172640Y0156526D01*
X0172578Y0156519D01*
X0172516Y0156516D01*
X0172453Y0156517D01*
X0172391Y0156522D01*
X0172329Y0156531D01*
X0172268Y0156544D01*
X0172208Y0156560D01*
X0172149Y0156581D01*
X0172091Y0156605D01*
X0172035Y0156633D01*
X0171981Y0156664D01*
X0171929Y0156698D01*
X0171880Y0156736D01*
X0171832Y0156777D01*
X0171788Y0156821D01*
X0171746Y0156867D01*
X0171708Y0156917D01*
X0171672Y0156968D01*
X0171640Y0157022D01*
X0171612Y0157077D01*
X0171586Y0157134D01*
X0171565Y0157193D01*
X0171548Y0157253D01*
X0171534Y0157314D01*
X0171524Y0157375D01*
X0171518Y0157438D01*
X0171516Y0157500D01*
X0176516Y0157500D02*
X0176518Y0157562D01*
X0176524Y0157625D01*
X0176534Y0157686D01*
X0176548Y0157747D01*
X0176565Y0157807D01*
X0176586Y0157866D01*
X0176612Y0157923D01*
X0176640Y0157978D01*
X0176672Y0158032D01*
X0176708Y0158083D01*
X0176746Y0158133D01*
X0176788Y0158179D01*
X0176832Y0158223D01*
X0176880Y0158264D01*
X0176929Y0158302D01*
X0176981Y0158336D01*
X0177035Y0158367D01*
X0177091Y0158395D01*
X0177149Y0158419D01*
X0177208Y0158440D01*
X0177268Y0158456D01*
X0177329Y0158469D01*
X0177391Y0158478D01*
X0177453Y0158483D01*
X0177516Y0158484D01*
X0177578Y0158481D01*
X0177640Y0158474D01*
X0177702Y0158463D01*
X0177762Y0158448D01*
X0177822Y0158430D01*
X0177880Y0158408D01*
X0177937Y0158382D01*
X0177992Y0158352D01*
X0178045Y0158319D01*
X0178096Y0158283D01*
X0178144Y0158244D01*
X0178190Y0158201D01*
X0178233Y0158156D01*
X0178273Y0158108D01*
X0178310Y0158058D01*
X0178344Y0158005D01*
X0178375Y0157951D01*
X0178401Y0157895D01*
X0178425Y0157837D01*
X0178444Y0157777D01*
X0178460Y0157717D01*
X0178472Y0157655D01*
X0178480Y0157594D01*
X0178484Y0157531D01*
X0178484Y0157469D01*
X0178480Y0157406D01*
X0178472Y0157345D01*
X0178460Y0157283D01*
X0178444Y0157223D01*
X0178425Y0157163D01*
X0178401Y0157105D01*
X0178375Y0157049D01*
X0178344Y0156995D01*
X0178310Y0156942D01*
X0178273Y0156892D01*
X0178233Y0156844D01*
X0178190Y0156799D01*
X0178144Y0156756D01*
X0178096Y0156717D01*
X0178045Y0156681D01*
X0177992Y0156648D01*
X0177937Y0156618D01*
X0177880Y0156592D01*
X0177822Y0156570D01*
X0177762Y0156552D01*
X0177702Y0156537D01*
X0177640Y0156526D01*
X0177578Y0156519D01*
X0177516Y0156516D01*
X0177453Y0156517D01*
X0177391Y0156522D01*
X0177329Y0156531D01*
X0177268Y0156544D01*
X0177208Y0156560D01*
X0177149Y0156581D01*
X0177091Y0156605D01*
X0177035Y0156633D01*
X0176981Y0156664D01*
X0176929Y0156698D01*
X0176880Y0156736D01*
X0176832Y0156777D01*
X0176788Y0156821D01*
X0176746Y0156867D01*
X0176708Y0156917D01*
X0176672Y0156968D01*
X0176640Y0157022D01*
X0176612Y0157077D01*
X0176586Y0157134D01*
X0176565Y0157193D01*
X0176548Y0157253D01*
X0176534Y0157314D01*
X0176524Y0157375D01*
X0176518Y0157438D01*
X0176516Y0157500D01*
X0181516Y0157500D02*
X0181518Y0157562D01*
X0181524Y0157625D01*
X0181534Y0157686D01*
X0181548Y0157747D01*
X0181565Y0157807D01*
X0181586Y0157866D01*
X0181612Y0157923D01*
X0181640Y0157978D01*
X0181672Y0158032D01*
X0181708Y0158083D01*
X0181746Y0158133D01*
X0181788Y0158179D01*
X0181832Y0158223D01*
X0181880Y0158264D01*
X0181929Y0158302D01*
X0181981Y0158336D01*
X0182035Y0158367D01*
X0182091Y0158395D01*
X0182149Y0158419D01*
X0182208Y0158440D01*
X0182268Y0158456D01*
X0182329Y0158469D01*
X0182391Y0158478D01*
X0182453Y0158483D01*
X0182516Y0158484D01*
X0182578Y0158481D01*
X0182640Y0158474D01*
X0182702Y0158463D01*
X0182762Y0158448D01*
X0182822Y0158430D01*
X0182880Y0158408D01*
X0182937Y0158382D01*
X0182992Y0158352D01*
X0183045Y0158319D01*
X0183096Y0158283D01*
X0183144Y0158244D01*
X0183190Y0158201D01*
X0183233Y0158156D01*
X0183273Y0158108D01*
X0183310Y0158058D01*
X0183344Y0158005D01*
X0183375Y0157951D01*
X0183401Y0157895D01*
X0183425Y0157837D01*
X0183444Y0157777D01*
X0183460Y0157717D01*
X0183472Y0157655D01*
X0183480Y0157594D01*
X0183484Y0157531D01*
X0183484Y0157469D01*
X0183480Y0157406D01*
X0183472Y0157345D01*
X0183460Y0157283D01*
X0183444Y0157223D01*
X0183425Y0157163D01*
X0183401Y0157105D01*
X0183375Y0157049D01*
X0183344Y0156995D01*
X0183310Y0156942D01*
X0183273Y0156892D01*
X0183233Y0156844D01*
X0183190Y0156799D01*
X0183144Y0156756D01*
X0183096Y0156717D01*
X0183045Y0156681D01*
X0182992Y0156648D01*
X0182937Y0156618D01*
X0182880Y0156592D01*
X0182822Y0156570D01*
X0182762Y0156552D01*
X0182702Y0156537D01*
X0182640Y0156526D01*
X0182578Y0156519D01*
X0182516Y0156516D01*
X0182453Y0156517D01*
X0182391Y0156522D01*
X0182329Y0156531D01*
X0182268Y0156544D01*
X0182208Y0156560D01*
X0182149Y0156581D01*
X0182091Y0156605D01*
X0182035Y0156633D01*
X0181981Y0156664D01*
X0181929Y0156698D01*
X0181880Y0156736D01*
X0181832Y0156777D01*
X0181788Y0156821D01*
X0181746Y0156867D01*
X0181708Y0156917D01*
X0181672Y0156968D01*
X0181640Y0157022D01*
X0181612Y0157077D01*
X0181586Y0157134D01*
X0181565Y0157193D01*
X0181548Y0157253D01*
X0181534Y0157314D01*
X0181524Y0157375D01*
X0181518Y0157438D01*
X0181516Y0157500D01*
X0186516Y0157500D02*
X0186518Y0157562D01*
X0186524Y0157625D01*
X0186534Y0157686D01*
X0186548Y0157747D01*
X0186565Y0157807D01*
X0186586Y0157866D01*
X0186612Y0157923D01*
X0186640Y0157978D01*
X0186672Y0158032D01*
X0186708Y0158083D01*
X0186746Y0158133D01*
X0186788Y0158179D01*
X0186832Y0158223D01*
X0186880Y0158264D01*
X0186929Y0158302D01*
X0186981Y0158336D01*
X0187035Y0158367D01*
X0187091Y0158395D01*
X0187149Y0158419D01*
X0187208Y0158440D01*
X0187268Y0158456D01*
X0187329Y0158469D01*
X0187391Y0158478D01*
X0187453Y0158483D01*
X0187516Y0158484D01*
X0187578Y0158481D01*
X0187640Y0158474D01*
X0187702Y0158463D01*
X0187762Y0158448D01*
X0187822Y0158430D01*
X0187880Y0158408D01*
X0187937Y0158382D01*
X0187992Y0158352D01*
X0188045Y0158319D01*
X0188096Y0158283D01*
X0188144Y0158244D01*
X0188190Y0158201D01*
X0188233Y0158156D01*
X0188273Y0158108D01*
X0188310Y0158058D01*
X0188344Y0158005D01*
X0188375Y0157951D01*
X0188401Y0157895D01*
X0188425Y0157837D01*
X0188444Y0157777D01*
X0188460Y0157717D01*
X0188472Y0157655D01*
X0188480Y0157594D01*
X0188484Y0157531D01*
X0188484Y0157469D01*
X0188480Y0157406D01*
X0188472Y0157345D01*
X0188460Y0157283D01*
X0188444Y0157223D01*
X0188425Y0157163D01*
X0188401Y0157105D01*
X0188375Y0157049D01*
X0188344Y0156995D01*
X0188310Y0156942D01*
X0188273Y0156892D01*
X0188233Y0156844D01*
X0188190Y0156799D01*
X0188144Y0156756D01*
X0188096Y0156717D01*
X0188045Y0156681D01*
X0187992Y0156648D01*
X0187937Y0156618D01*
X0187880Y0156592D01*
X0187822Y0156570D01*
X0187762Y0156552D01*
X0187702Y0156537D01*
X0187640Y0156526D01*
X0187578Y0156519D01*
X0187516Y0156516D01*
X0187453Y0156517D01*
X0187391Y0156522D01*
X0187329Y0156531D01*
X0187268Y0156544D01*
X0187208Y0156560D01*
X0187149Y0156581D01*
X0187091Y0156605D01*
X0187035Y0156633D01*
X0186981Y0156664D01*
X0186929Y0156698D01*
X0186880Y0156736D01*
X0186832Y0156777D01*
X0186788Y0156821D01*
X0186746Y0156867D01*
X0186708Y0156917D01*
X0186672Y0156968D01*
X0186640Y0157022D01*
X0186612Y0157077D01*
X0186586Y0157134D01*
X0186565Y0157193D01*
X0186548Y0157253D01*
X0186534Y0157314D01*
X0186524Y0157375D01*
X0186518Y0157438D01*
X0186516Y0157500D01*
X0191516Y0157500D02*
X0191518Y0157562D01*
X0191524Y0157625D01*
X0191534Y0157686D01*
X0191548Y0157747D01*
X0191565Y0157807D01*
X0191586Y0157866D01*
X0191612Y0157923D01*
X0191640Y0157978D01*
X0191672Y0158032D01*
X0191708Y0158083D01*
X0191746Y0158133D01*
X0191788Y0158179D01*
X0191832Y0158223D01*
X0191880Y0158264D01*
X0191929Y0158302D01*
X0191981Y0158336D01*
X0192035Y0158367D01*
X0192091Y0158395D01*
X0192149Y0158419D01*
X0192208Y0158440D01*
X0192268Y0158456D01*
X0192329Y0158469D01*
X0192391Y0158478D01*
X0192453Y0158483D01*
X0192516Y0158484D01*
X0192578Y0158481D01*
X0192640Y0158474D01*
X0192702Y0158463D01*
X0192762Y0158448D01*
X0192822Y0158430D01*
X0192880Y0158408D01*
X0192937Y0158382D01*
X0192992Y0158352D01*
X0193045Y0158319D01*
X0193096Y0158283D01*
X0193144Y0158244D01*
X0193190Y0158201D01*
X0193233Y0158156D01*
X0193273Y0158108D01*
X0193310Y0158058D01*
X0193344Y0158005D01*
X0193375Y0157951D01*
X0193401Y0157895D01*
X0193425Y0157837D01*
X0193444Y0157777D01*
X0193460Y0157717D01*
X0193472Y0157655D01*
X0193480Y0157594D01*
X0193484Y0157531D01*
X0193484Y0157469D01*
X0193480Y0157406D01*
X0193472Y0157345D01*
X0193460Y0157283D01*
X0193444Y0157223D01*
X0193425Y0157163D01*
X0193401Y0157105D01*
X0193375Y0157049D01*
X0193344Y0156995D01*
X0193310Y0156942D01*
X0193273Y0156892D01*
X0193233Y0156844D01*
X0193190Y0156799D01*
X0193144Y0156756D01*
X0193096Y0156717D01*
X0193045Y0156681D01*
X0192992Y0156648D01*
X0192937Y0156618D01*
X0192880Y0156592D01*
X0192822Y0156570D01*
X0192762Y0156552D01*
X0192702Y0156537D01*
X0192640Y0156526D01*
X0192578Y0156519D01*
X0192516Y0156516D01*
X0192453Y0156517D01*
X0192391Y0156522D01*
X0192329Y0156531D01*
X0192268Y0156544D01*
X0192208Y0156560D01*
X0192149Y0156581D01*
X0192091Y0156605D01*
X0192035Y0156633D01*
X0191981Y0156664D01*
X0191929Y0156698D01*
X0191880Y0156736D01*
X0191832Y0156777D01*
X0191788Y0156821D01*
X0191746Y0156867D01*
X0191708Y0156917D01*
X0191672Y0156968D01*
X0191640Y0157022D01*
X0191612Y0157077D01*
X0191586Y0157134D01*
X0191565Y0157193D01*
X0191548Y0157253D01*
X0191534Y0157314D01*
X0191524Y0157375D01*
X0191518Y0157438D01*
X0191516Y0157500D01*
X0196516Y0157500D02*
X0196518Y0157562D01*
X0196524Y0157625D01*
X0196534Y0157686D01*
X0196548Y0157747D01*
X0196565Y0157807D01*
X0196586Y0157866D01*
X0196612Y0157923D01*
X0196640Y0157978D01*
X0196672Y0158032D01*
X0196708Y0158083D01*
X0196746Y0158133D01*
X0196788Y0158179D01*
X0196832Y0158223D01*
X0196880Y0158264D01*
X0196929Y0158302D01*
X0196981Y0158336D01*
X0197035Y0158367D01*
X0197091Y0158395D01*
X0197149Y0158419D01*
X0197208Y0158440D01*
X0197268Y0158456D01*
X0197329Y0158469D01*
X0197391Y0158478D01*
X0197453Y0158483D01*
X0197516Y0158484D01*
X0197578Y0158481D01*
X0197640Y0158474D01*
X0197702Y0158463D01*
X0197762Y0158448D01*
X0197822Y0158430D01*
X0197880Y0158408D01*
X0197937Y0158382D01*
X0197992Y0158352D01*
X0198045Y0158319D01*
X0198096Y0158283D01*
X0198144Y0158244D01*
X0198190Y0158201D01*
X0198233Y0158156D01*
X0198273Y0158108D01*
X0198310Y0158058D01*
X0198344Y0158005D01*
X0198375Y0157951D01*
X0198401Y0157895D01*
X0198425Y0157837D01*
X0198444Y0157777D01*
X0198460Y0157717D01*
X0198472Y0157655D01*
X0198480Y0157594D01*
X0198484Y0157531D01*
X0198484Y0157469D01*
X0198480Y0157406D01*
X0198472Y0157345D01*
X0198460Y0157283D01*
X0198444Y0157223D01*
X0198425Y0157163D01*
X0198401Y0157105D01*
X0198375Y0157049D01*
X0198344Y0156995D01*
X0198310Y0156942D01*
X0198273Y0156892D01*
X0198233Y0156844D01*
X0198190Y0156799D01*
X0198144Y0156756D01*
X0198096Y0156717D01*
X0198045Y0156681D01*
X0197992Y0156648D01*
X0197937Y0156618D01*
X0197880Y0156592D01*
X0197822Y0156570D01*
X0197762Y0156552D01*
X0197702Y0156537D01*
X0197640Y0156526D01*
X0197578Y0156519D01*
X0197516Y0156516D01*
X0197453Y0156517D01*
X0197391Y0156522D01*
X0197329Y0156531D01*
X0197268Y0156544D01*
X0197208Y0156560D01*
X0197149Y0156581D01*
X0197091Y0156605D01*
X0197035Y0156633D01*
X0196981Y0156664D01*
X0196929Y0156698D01*
X0196880Y0156736D01*
X0196832Y0156777D01*
X0196788Y0156821D01*
X0196746Y0156867D01*
X0196708Y0156917D01*
X0196672Y0156968D01*
X0196640Y0157022D01*
X0196612Y0157077D01*
X0196586Y0157134D01*
X0196565Y0157193D01*
X0196548Y0157253D01*
X0196534Y0157314D01*
X0196524Y0157375D01*
X0196518Y0157438D01*
X0196516Y0157500D01*
X0201516Y0157500D02*
X0201518Y0157562D01*
X0201524Y0157625D01*
X0201534Y0157686D01*
X0201548Y0157747D01*
X0201565Y0157807D01*
X0201586Y0157866D01*
X0201612Y0157923D01*
X0201640Y0157978D01*
X0201672Y0158032D01*
X0201708Y0158083D01*
X0201746Y0158133D01*
X0201788Y0158179D01*
X0201832Y0158223D01*
X0201880Y0158264D01*
X0201929Y0158302D01*
X0201981Y0158336D01*
X0202035Y0158367D01*
X0202091Y0158395D01*
X0202149Y0158419D01*
X0202208Y0158440D01*
X0202268Y0158456D01*
X0202329Y0158469D01*
X0202391Y0158478D01*
X0202453Y0158483D01*
X0202516Y0158484D01*
X0202578Y0158481D01*
X0202640Y0158474D01*
X0202702Y0158463D01*
X0202762Y0158448D01*
X0202822Y0158430D01*
X0202880Y0158408D01*
X0202937Y0158382D01*
X0202992Y0158352D01*
X0203045Y0158319D01*
X0203096Y0158283D01*
X0203144Y0158244D01*
X0203190Y0158201D01*
X0203233Y0158156D01*
X0203273Y0158108D01*
X0203310Y0158058D01*
X0203344Y0158005D01*
X0203375Y0157951D01*
X0203401Y0157895D01*
X0203425Y0157837D01*
X0203444Y0157777D01*
X0203460Y0157717D01*
X0203472Y0157655D01*
X0203480Y0157594D01*
X0203484Y0157531D01*
X0203484Y0157469D01*
X0203480Y0157406D01*
X0203472Y0157345D01*
X0203460Y0157283D01*
X0203444Y0157223D01*
X0203425Y0157163D01*
X0203401Y0157105D01*
X0203375Y0157049D01*
X0203344Y0156995D01*
X0203310Y0156942D01*
X0203273Y0156892D01*
X0203233Y0156844D01*
X0203190Y0156799D01*
X0203144Y0156756D01*
X0203096Y0156717D01*
X0203045Y0156681D01*
X0202992Y0156648D01*
X0202937Y0156618D01*
X0202880Y0156592D01*
X0202822Y0156570D01*
X0202762Y0156552D01*
X0202702Y0156537D01*
X0202640Y0156526D01*
X0202578Y0156519D01*
X0202516Y0156516D01*
X0202453Y0156517D01*
X0202391Y0156522D01*
X0202329Y0156531D01*
X0202268Y0156544D01*
X0202208Y0156560D01*
X0202149Y0156581D01*
X0202091Y0156605D01*
X0202035Y0156633D01*
X0201981Y0156664D01*
X0201929Y0156698D01*
X0201880Y0156736D01*
X0201832Y0156777D01*
X0201788Y0156821D01*
X0201746Y0156867D01*
X0201708Y0156917D01*
X0201672Y0156968D01*
X0201640Y0157022D01*
X0201612Y0157077D01*
X0201586Y0157134D01*
X0201565Y0157193D01*
X0201548Y0157253D01*
X0201534Y0157314D01*
X0201524Y0157375D01*
X0201518Y0157438D01*
X0201516Y0157500D01*
X0206516Y0157500D02*
X0206518Y0157562D01*
X0206524Y0157625D01*
X0206534Y0157686D01*
X0206548Y0157747D01*
X0206565Y0157807D01*
X0206586Y0157866D01*
X0206612Y0157923D01*
X0206640Y0157978D01*
X0206672Y0158032D01*
X0206708Y0158083D01*
X0206746Y0158133D01*
X0206788Y0158179D01*
X0206832Y0158223D01*
X0206880Y0158264D01*
X0206929Y0158302D01*
X0206981Y0158336D01*
X0207035Y0158367D01*
X0207091Y0158395D01*
X0207149Y0158419D01*
X0207208Y0158440D01*
X0207268Y0158456D01*
X0207329Y0158469D01*
X0207391Y0158478D01*
X0207453Y0158483D01*
X0207516Y0158484D01*
X0207578Y0158481D01*
X0207640Y0158474D01*
X0207702Y0158463D01*
X0207762Y0158448D01*
X0207822Y0158430D01*
X0207880Y0158408D01*
X0207937Y0158382D01*
X0207992Y0158352D01*
X0208045Y0158319D01*
X0208096Y0158283D01*
X0208144Y0158244D01*
X0208190Y0158201D01*
X0208233Y0158156D01*
X0208273Y0158108D01*
X0208310Y0158058D01*
X0208344Y0158005D01*
X0208375Y0157951D01*
X0208401Y0157895D01*
X0208425Y0157837D01*
X0208444Y0157777D01*
X0208460Y0157717D01*
X0208472Y0157655D01*
X0208480Y0157594D01*
X0208484Y0157531D01*
X0208484Y0157469D01*
X0208480Y0157406D01*
X0208472Y0157345D01*
X0208460Y0157283D01*
X0208444Y0157223D01*
X0208425Y0157163D01*
X0208401Y0157105D01*
X0208375Y0157049D01*
X0208344Y0156995D01*
X0208310Y0156942D01*
X0208273Y0156892D01*
X0208233Y0156844D01*
X0208190Y0156799D01*
X0208144Y0156756D01*
X0208096Y0156717D01*
X0208045Y0156681D01*
X0207992Y0156648D01*
X0207937Y0156618D01*
X0207880Y0156592D01*
X0207822Y0156570D01*
X0207762Y0156552D01*
X0207702Y0156537D01*
X0207640Y0156526D01*
X0207578Y0156519D01*
X0207516Y0156516D01*
X0207453Y0156517D01*
X0207391Y0156522D01*
X0207329Y0156531D01*
X0207268Y0156544D01*
X0207208Y0156560D01*
X0207149Y0156581D01*
X0207091Y0156605D01*
X0207035Y0156633D01*
X0206981Y0156664D01*
X0206929Y0156698D01*
X0206880Y0156736D01*
X0206832Y0156777D01*
X0206788Y0156821D01*
X0206746Y0156867D01*
X0206708Y0156917D01*
X0206672Y0156968D01*
X0206640Y0157022D01*
X0206612Y0157077D01*
X0206586Y0157134D01*
X0206565Y0157193D01*
X0206548Y0157253D01*
X0206534Y0157314D01*
X0206524Y0157375D01*
X0206518Y0157438D01*
X0206516Y0157500D01*
X0189409Y0042500D02*
X0189411Y0042584D01*
X0189417Y0042667D01*
X0189427Y0042750D01*
X0189441Y0042833D01*
X0189458Y0042915D01*
X0189480Y0042996D01*
X0189505Y0043075D01*
X0189534Y0043154D01*
X0189567Y0043231D01*
X0189603Y0043306D01*
X0189643Y0043380D01*
X0189686Y0043452D01*
X0189733Y0043521D01*
X0189783Y0043588D01*
X0189836Y0043653D01*
X0189892Y0043715D01*
X0189950Y0043775D01*
X0190012Y0043832D01*
X0190076Y0043885D01*
X0190143Y0043936D01*
X0190212Y0043983D01*
X0190283Y0044028D01*
X0190356Y0044068D01*
X0190431Y0044105D01*
X0190508Y0044139D01*
X0190586Y0044169D01*
X0190665Y0044195D01*
X0190746Y0044218D01*
X0190828Y0044236D01*
X0190910Y0044251D01*
X0190993Y0044262D01*
X0191076Y0044269D01*
X0191160Y0044272D01*
X0191244Y0044271D01*
X0191327Y0044266D01*
X0191411Y0044257D01*
X0191493Y0044244D01*
X0191575Y0044228D01*
X0191656Y0044207D01*
X0191737Y0044183D01*
X0191815Y0044155D01*
X0191893Y0044123D01*
X0191969Y0044087D01*
X0192043Y0044048D01*
X0192115Y0044006D01*
X0192185Y0043960D01*
X0192253Y0043911D01*
X0192318Y0043859D01*
X0192381Y0043804D01*
X0192441Y0043746D01*
X0192499Y0043685D01*
X0192553Y0043621D01*
X0192605Y0043555D01*
X0192653Y0043487D01*
X0192698Y0043416D01*
X0192739Y0043343D01*
X0192778Y0043269D01*
X0192812Y0043193D01*
X0192843Y0043115D01*
X0192870Y0043036D01*
X0192894Y0042955D01*
X0192913Y0042874D01*
X0192929Y0042792D01*
X0192941Y0042709D01*
X0192949Y0042625D01*
X0192953Y0042542D01*
X0192953Y0042458D01*
X0192949Y0042375D01*
X0192941Y0042291D01*
X0192929Y0042208D01*
X0192913Y0042126D01*
X0192894Y0042045D01*
X0192870Y0041964D01*
X0192843Y0041885D01*
X0192812Y0041807D01*
X0192778Y0041731D01*
X0192739Y0041657D01*
X0192698Y0041584D01*
X0192653Y0041513D01*
X0192605Y0041445D01*
X0192553Y0041379D01*
X0192499Y0041315D01*
X0192441Y0041254D01*
X0192381Y0041196D01*
X0192318Y0041141D01*
X0192253Y0041089D01*
X0192185Y0041040D01*
X0192115Y0040994D01*
X0192043Y0040952D01*
X0191969Y0040913D01*
X0191893Y0040877D01*
X0191815Y0040845D01*
X0191737Y0040817D01*
X0191656Y0040793D01*
X0191575Y0040772D01*
X0191493Y0040756D01*
X0191411Y0040743D01*
X0191327Y0040734D01*
X0191244Y0040729D01*
X0191160Y0040728D01*
X0191076Y0040731D01*
X0190993Y0040738D01*
X0190910Y0040749D01*
X0190828Y0040764D01*
X0190746Y0040782D01*
X0190665Y0040805D01*
X0190586Y0040831D01*
X0190508Y0040861D01*
X0190431Y0040895D01*
X0190356Y0040932D01*
X0190283Y0040972D01*
X0190212Y0041017D01*
X0190143Y0041064D01*
X0190076Y0041115D01*
X0190012Y0041168D01*
X0189950Y0041225D01*
X0189892Y0041285D01*
X0189836Y0041347D01*
X0189783Y0041412D01*
X0189733Y0041479D01*
X0189686Y0041548D01*
X0189643Y0041620D01*
X0189603Y0041694D01*
X0189567Y0041769D01*
X0189534Y0041846D01*
X0189505Y0041925D01*
X0189480Y0042004D01*
X0189458Y0042085D01*
X0189441Y0042167D01*
X0189427Y0042250D01*
X0189417Y0042333D01*
X0189411Y0042416D01*
X0189409Y0042500D01*
X0194488Y0015000D02*
X0194490Y0015148D01*
X0194496Y0015296D01*
X0194506Y0015444D01*
X0194520Y0015591D01*
X0194538Y0015738D01*
X0194559Y0015884D01*
X0194585Y0016030D01*
X0194615Y0016175D01*
X0194648Y0016319D01*
X0194686Y0016462D01*
X0194727Y0016604D01*
X0194772Y0016745D01*
X0194820Y0016885D01*
X0194873Y0017024D01*
X0194929Y0017161D01*
X0194989Y0017296D01*
X0195052Y0017430D01*
X0195119Y0017562D01*
X0195190Y0017692D01*
X0195264Y0017820D01*
X0195341Y0017946D01*
X0195422Y0018070D01*
X0195506Y0018192D01*
X0195593Y0018311D01*
X0195684Y0018428D01*
X0195778Y0018543D01*
X0195874Y0018655D01*
X0195974Y0018765D01*
X0196076Y0018871D01*
X0196182Y0018975D01*
X0196290Y0019076D01*
X0196401Y0019174D01*
X0196514Y0019270D01*
X0196630Y0019362D01*
X0196748Y0019451D01*
X0196869Y0019536D01*
X0196992Y0019619D01*
X0197117Y0019698D01*
X0197244Y0019774D01*
X0197373Y0019846D01*
X0197504Y0019915D01*
X0197637Y0019980D01*
X0197772Y0020041D01*
X0197908Y0020099D01*
X0198045Y0020154D01*
X0198184Y0020204D01*
X0198325Y0020251D01*
X0198466Y0020294D01*
X0198609Y0020334D01*
X0198753Y0020369D01*
X0198897Y0020401D01*
X0199043Y0020428D01*
X0199189Y0020452D01*
X0199336Y0020472D01*
X0199483Y0020488D01*
X0199630Y0020500D01*
X0199778Y0020508D01*
X0199926Y0020512D01*
X0200074Y0020512D01*
X0200222Y0020508D01*
X0200370Y0020500D01*
X0200517Y0020488D01*
X0200664Y0020472D01*
X0200811Y0020452D01*
X0200957Y0020428D01*
X0201103Y0020401D01*
X0201247Y0020369D01*
X0201391Y0020334D01*
X0201534Y0020294D01*
X0201675Y0020251D01*
X0201816Y0020204D01*
X0201955Y0020154D01*
X0202092Y0020099D01*
X0202228Y0020041D01*
X0202363Y0019980D01*
X0202496Y0019915D01*
X0202627Y0019846D01*
X0202756Y0019774D01*
X0202883Y0019698D01*
X0203008Y0019619D01*
X0203131Y0019536D01*
X0203252Y0019451D01*
X0203370Y0019362D01*
X0203486Y0019270D01*
X0203599Y0019174D01*
X0203710Y0019076D01*
X0203818Y0018975D01*
X0203924Y0018871D01*
X0204026Y0018765D01*
X0204126Y0018655D01*
X0204222Y0018543D01*
X0204316Y0018428D01*
X0204407Y0018311D01*
X0204494Y0018192D01*
X0204578Y0018070D01*
X0204659Y0017946D01*
X0204736Y0017820D01*
X0204810Y0017692D01*
X0204881Y0017562D01*
X0204948Y0017430D01*
X0205011Y0017296D01*
X0205071Y0017161D01*
X0205127Y0017024D01*
X0205180Y0016885D01*
X0205228Y0016745D01*
X0205273Y0016604D01*
X0205314Y0016462D01*
X0205352Y0016319D01*
X0205385Y0016175D01*
X0205415Y0016030D01*
X0205441Y0015884D01*
X0205462Y0015738D01*
X0205480Y0015591D01*
X0205494Y0015444D01*
X0205504Y0015296D01*
X0205510Y0015148D01*
X0205512Y0015000D01*
X0205510Y0014852D01*
X0205504Y0014704D01*
X0205494Y0014556D01*
X0205480Y0014409D01*
X0205462Y0014262D01*
X0205441Y0014116D01*
X0205415Y0013970D01*
X0205385Y0013825D01*
X0205352Y0013681D01*
X0205314Y0013538D01*
X0205273Y0013396D01*
X0205228Y0013255D01*
X0205180Y0013115D01*
X0205127Y0012976D01*
X0205071Y0012839D01*
X0205011Y0012704D01*
X0204948Y0012570D01*
X0204881Y0012438D01*
X0204810Y0012308D01*
X0204736Y0012180D01*
X0204659Y0012054D01*
X0204578Y0011930D01*
X0204494Y0011808D01*
X0204407Y0011689D01*
X0204316Y0011572D01*
X0204222Y0011457D01*
X0204126Y0011345D01*
X0204026Y0011235D01*
X0203924Y0011129D01*
X0203818Y0011025D01*
X0203710Y0010924D01*
X0203599Y0010826D01*
X0203486Y0010730D01*
X0203370Y0010638D01*
X0203252Y0010549D01*
X0203131Y0010464D01*
X0203008Y0010381D01*
X0202883Y0010302D01*
X0202756Y0010226D01*
X0202627Y0010154D01*
X0202496Y0010085D01*
X0202363Y0010020D01*
X0202228Y0009959D01*
X0202092Y0009901D01*
X0201955Y0009846D01*
X0201816Y0009796D01*
X0201675Y0009749D01*
X0201534Y0009706D01*
X0201391Y0009666D01*
X0201247Y0009631D01*
X0201103Y0009599D01*
X0200957Y0009572D01*
X0200811Y0009548D01*
X0200664Y0009528D01*
X0200517Y0009512D01*
X0200370Y0009500D01*
X0200222Y0009492D01*
X0200074Y0009488D01*
X0199926Y0009488D01*
X0199778Y0009492D01*
X0199630Y0009500D01*
X0199483Y0009512D01*
X0199336Y0009528D01*
X0199189Y0009548D01*
X0199043Y0009572D01*
X0198897Y0009599D01*
X0198753Y0009631D01*
X0198609Y0009666D01*
X0198466Y0009706D01*
X0198325Y0009749D01*
X0198184Y0009796D01*
X0198045Y0009846D01*
X0197908Y0009901D01*
X0197772Y0009959D01*
X0197637Y0010020D01*
X0197504Y0010085D01*
X0197373Y0010154D01*
X0197244Y0010226D01*
X0197117Y0010302D01*
X0196992Y0010381D01*
X0196869Y0010464D01*
X0196748Y0010549D01*
X0196630Y0010638D01*
X0196514Y0010730D01*
X0196401Y0010826D01*
X0196290Y0010924D01*
X0196182Y0011025D01*
X0196076Y0011129D01*
X0195974Y0011235D01*
X0195874Y0011345D01*
X0195778Y0011457D01*
X0195684Y0011572D01*
X0195593Y0011689D01*
X0195506Y0011808D01*
X0195422Y0011930D01*
X0195341Y0012054D01*
X0195264Y0012180D01*
X0195190Y0012308D01*
X0195119Y0012438D01*
X0195052Y0012570D01*
X0194989Y0012704D01*
X0194929Y0012839D01*
X0194873Y0012976D01*
X0194820Y0013115D01*
X0194772Y0013255D01*
X0194727Y0013396D01*
X0194686Y0013538D01*
X0194648Y0013681D01*
X0194615Y0013825D01*
X0194585Y0013970D01*
X0194559Y0014116D01*
X0194538Y0014262D01*
X0194520Y0014409D01*
X0194506Y0014556D01*
X0194496Y0014704D01*
X0194490Y0014852D01*
X0194488Y0015000D01*
X0132441Y0042500D02*
X0132443Y0042574D01*
X0132449Y0042648D01*
X0132459Y0042721D01*
X0132473Y0042794D01*
X0132490Y0042866D01*
X0132512Y0042936D01*
X0132537Y0043006D01*
X0132566Y0043074D01*
X0132599Y0043140D01*
X0132635Y0043205D01*
X0132675Y0043267D01*
X0132717Y0043328D01*
X0132763Y0043386D01*
X0132812Y0043441D01*
X0132864Y0043494D01*
X0132919Y0043544D01*
X0132976Y0043590D01*
X0133036Y0043634D01*
X0133098Y0043674D01*
X0133162Y0043711D01*
X0133228Y0043745D01*
X0133296Y0043775D01*
X0133365Y0043801D01*
X0133436Y0043824D01*
X0133507Y0043842D01*
X0133580Y0043857D01*
X0133653Y0043868D01*
X0133727Y0043875D01*
X0133801Y0043878D01*
X0133874Y0043877D01*
X0133948Y0043872D01*
X0134022Y0043863D01*
X0134095Y0043850D01*
X0134167Y0043833D01*
X0134238Y0043813D01*
X0134308Y0043788D01*
X0134376Y0043760D01*
X0134443Y0043729D01*
X0134508Y0043693D01*
X0134571Y0043655D01*
X0134632Y0043613D01*
X0134691Y0043567D01*
X0134747Y0043519D01*
X0134800Y0043468D01*
X0134850Y0043414D01*
X0134898Y0043357D01*
X0134942Y0043298D01*
X0134984Y0043236D01*
X0135022Y0043173D01*
X0135056Y0043107D01*
X0135087Y0043040D01*
X0135114Y0042971D01*
X0135137Y0042901D01*
X0135157Y0042830D01*
X0135173Y0042757D01*
X0135185Y0042684D01*
X0135193Y0042611D01*
X0135197Y0042537D01*
X0135197Y0042463D01*
X0135193Y0042389D01*
X0135185Y0042316D01*
X0135173Y0042243D01*
X0135157Y0042170D01*
X0135137Y0042099D01*
X0135114Y0042029D01*
X0135087Y0041960D01*
X0135056Y0041893D01*
X0135022Y0041827D01*
X0134984Y0041764D01*
X0134942Y0041702D01*
X0134898Y0041643D01*
X0134850Y0041586D01*
X0134800Y0041532D01*
X0134747Y0041481D01*
X0134691Y0041433D01*
X0134632Y0041387D01*
X0134571Y0041345D01*
X0134508Y0041307D01*
X0134443Y0041271D01*
X0134376Y0041240D01*
X0134308Y0041212D01*
X0134238Y0041187D01*
X0134167Y0041167D01*
X0134095Y0041150D01*
X0134022Y0041137D01*
X0133948Y0041128D01*
X0133874Y0041123D01*
X0133801Y0041122D01*
X0133727Y0041125D01*
X0133653Y0041132D01*
X0133580Y0041143D01*
X0133507Y0041158D01*
X0133436Y0041176D01*
X0133365Y0041199D01*
X0133296Y0041225D01*
X0133228Y0041255D01*
X0133162Y0041289D01*
X0133098Y0041326D01*
X0133036Y0041366D01*
X0132976Y0041410D01*
X0132919Y0041456D01*
X0132864Y0041506D01*
X0132812Y0041559D01*
X0132763Y0041614D01*
X0132717Y0041672D01*
X0132675Y0041733D01*
X0132635Y0041795D01*
X0132599Y0041860D01*
X0132566Y0041926D01*
X0132537Y0041994D01*
X0132512Y0042064D01*
X0132490Y0042134D01*
X0132473Y0042206D01*
X0132459Y0042279D01*
X0132449Y0042352D01*
X0132443Y0042426D01*
X0132441Y0042500D01*
X0009488Y0177500D02*
X0009490Y0177648D01*
X0009496Y0177796D01*
X0009506Y0177944D01*
X0009520Y0178091D01*
X0009538Y0178238D01*
X0009559Y0178384D01*
X0009585Y0178530D01*
X0009615Y0178675D01*
X0009648Y0178819D01*
X0009686Y0178962D01*
X0009727Y0179104D01*
X0009772Y0179245D01*
X0009820Y0179385D01*
X0009873Y0179524D01*
X0009929Y0179661D01*
X0009989Y0179796D01*
X0010052Y0179930D01*
X0010119Y0180062D01*
X0010190Y0180192D01*
X0010264Y0180320D01*
X0010341Y0180446D01*
X0010422Y0180570D01*
X0010506Y0180692D01*
X0010593Y0180811D01*
X0010684Y0180928D01*
X0010778Y0181043D01*
X0010874Y0181155D01*
X0010974Y0181265D01*
X0011076Y0181371D01*
X0011182Y0181475D01*
X0011290Y0181576D01*
X0011401Y0181674D01*
X0011514Y0181770D01*
X0011630Y0181862D01*
X0011748Y0181951D01*
X0011869Y0182036D01*
X0011992Y0182119D01*
X0012117Y0182198D01*
X0012244Y0182274D01*
X0012373Y0182346D01*
X0012504Y0182415D01*
X0012637Y0182480D01*
X0012772Y0182541D01*
X0012908Y0182599D01*
X0013045Y0182654D01*
X0013184Y0182704D01*
X0013325Y0182751D01*
X0013466Y0182794D01*
X0013609Y0182834D01*
X0013753Y0182869D01*
X0013897Y0182901D01*
X0014043Y0182928D01*
X0014189Y0182952D01*
X0014336Y0182972D01*
X0014483Y0182988D01*
X0014630Y0183000D01*
X0014778Y0183008D01*
X0014926Y0183012D01*
X0015074Y0183012D01*
X0015222Y0183008D01*
X0015370Y0183000D01*
X0015517Y0182988D01*
X0015664Y0182972D01*
X0015811Y0182952D01*
X0015957Y0182928D01*
X0016103Y0182901D01*
X0016247Y0182869D01*
X0016391Y0182834D01*
X0016534Y0182794D01*
X0016675Y0182751D01*
X0016816Y0182704D01*
X0016955Y0182654D01*
X0017092Y0182599D01*
X0017228Y0182541D01*
X0017363Y0182480D01*
X0017496Y0182415D01*
X0017627Y0182346D01*
X0017756Y0182274D01*
X0017883Y0182198D01*
X0018008Y0182119D01*
X0018131Y0182036D01*
X0018252Y0181951D01*
X0018370Y0181862D01*
X0018486Y0181770D01*
X0018599Y0181674D01*
X0018710Y0181576D01*
X0018818Y0181475D01*
X0018924Y0181371D01*
X0019026Y0181265D01*
X0019126Y0181155D01*
X0019222Y0181043D01*
X0019316Y0180928D01*
X0019407Y0180811D01*
X0019494Y0180692D01*
X0019578Y0180570D01*
X0019659Y0180446D01*
X0019736Y0180320D01*
X0019810Y0180192D01*
X0019881Y0180062D01*
X0019948Y0179930D01*
X0020011Y0179796D01*
X0020071Y0179661D01*
X0020127Y0179524D01*
X0020180Y0179385D01*
X0020228Y0179245D01*
X0020273Y0179104D01*
X0020314Y0178962D01*
X0020352Y0178819D01*
X0020385Y0178675D01*
X0020415Y0178530D01*
X0020441Y0178384D01*
X0020462Y0178238D01*
X0020480Y0178091D01*
X0020494Y0177944D01*
X0020504Y0177796D01*
X0020510Y0177648D01*
X0020512Y0177500D01*
X0020510Y0177352D01*
X0020504Y0177204D01*
X0020494Y0177056D01*
X0020480Y0176909D01*
X0020462Y0176762D01*
X0020441Y0176616D01*
X0020415Y0176470D01*
X0020385Y0176325D01*
X0020352Y0176181D01*
X0020314Y0176038D01*
X0020273Y0175896D01*
X0020228Y0175755D01*
X0020180Y0175615D01*
X0020127Y0175476D01*
X0020071Y0175339D01*
X0020011Y0175204D01*
X0019948Y0175070D01*
X0019881Y0174938D01*
X0019810Y0174808D01*
X0019736Y0174680D01*
X0019659Y0174554D01*
X0019578Y0174430D01*
X0019494Y0174308D01*
X0019407Y0174189D01*
X0019316Y0174072D01*
X0019222Y0173957D01*
X0019126Y0173845D01*
X0019026Y0173735D01*
X0018924Y0173629D01*
X0018818Y0173525D01*
X0018710Y0173424D01*
X0018599Y0173326D01*
X0018486Y0173230D01*
X0018370Y0173138D01*
X0018252Y0173049D01*
X0018131Y0172964D01*
X0018008Y0172881D01*
X0017883Y0172802D01*
X0017756Y0172726D01*
X0017627Y0172654D01*
X0017496Y0172585D01*
X0017363Y0172520D01*
X0017228Y0172459D01*
X0017092Y0172401D01*
X0016955Y0172346D01*
X0016816Y0172296D01*
X0016675Y0172249D01*
X0016534Y0172206D01*
X0016391Y0172166D01*
X0016247Y0172131D01*
X0016103Y0172099D01*
X0015957Y0172072D01*
X0015811Y0172048D01*
X0015664Y0172028D01*
X0015517Y0172012D01*
X0015370Y0172000D01*
X0015222Y0171992D01*
X0015074Y0171988D01*
X0014926Y0171988D01*
X0014778Y0171992D01*
X0014630Y0172000D01*
X0014483Y0172012D01*
X0014336Y0172028D01*
X0014189Y0172048D01*
X0014043Y0172072D01*
X0013897Y0172099D01*
X0013753Y0172131D01*
X0013609Y0172166D01*
X0013466Y0172206D01*
X0013325Y0172249D01*
X0013184Y0172296D01*
X0013045Y0172346D01*
X0012908Y0172401D01*
X0012772Y0172459D01*
X0012637Y0172520D01*
X0012504Y0172585D01*
X0012373Y0172654D01*
X0012244Y0172726D01*
X0012117Y0172802D01*
X0011992Y0172881D01*
X0011869Y0172964D01*
X0011748Y0173049D01*
X0011630Y0173138D01*
X0011514Y0173230D01*
X0011401Y0173326D01*
X0011290Y0173424D01*
X0011182Y0173525D01*
X0011076Y0173629D01*
X0010974Y0173735D01*
X0010874Y0173845D01*
X0010778Y0173957D01*
X0010684Y0174072D01*
X0010593Y0174189D01*
X0010506Y0174308D01*
X0010422Y0174430D01*
X0010341Y0174554D01*
X0010264Y0174680D01*
X0010190Y0174808D01*
X0010119Y0174938D01*
X0010052Y0175070D01*
X0009989Y0175204D01*
X0009929Y0175339D01*
X0009873Y0175476D01*
X0009820Y0175615D01*
X0009772Y0175755D01*
X0009727Y0175896D01*
X0009686Y0176038D01*
X0009648Y0176181D01*
X0009615Y0176325D01*
X0009585Y0176470D01*
X0009559Y0176616D01*
X0009538Y0176762D01*
X0009520Y0176909D01*
X0009506Y0177056D01*
X0009496Y0177204D01*
X0009490Y0177352D01*
X0009488Y0177500D01*
X0151988Y0285000D02*
X0151990Y0285148D01*
X0151996Y0285296D01*
X0152006Y0285444D01*
X0152020Y0285591D01*
X0152038Y0285738D01*
X0152059Y0285884D01*
X0152085Y0286030D01*
X0152115Y0286175D01*
X0152148Y0286319D01*
X0152186Y0286462D01*
X0152227Y0286604D01*
X0152272Y0286745D01*
X0152320Y0286885D01*
X0152373Y0287024D01*
X0152429Y0287161D01*
X0152489Y0287296D01*
X0152552Y0287430D01*
X0152619Y0287562D01*
X0152690Y0287692D01*
X0152764Y0287820D01*
X0152841Y0287946D01*
X0152922Y0288070D01*
X0153006Y0288192D01*
X0153093Y0288311D01*
X0153184Y0288428D01*
X0153278Y0288543D01*
X0153374Y0288655D01*
X0153474Y0288765D01*
X0153576Y0288871D01*
X0153682Y0288975D01*
X0153790Y0289076D01*
X0153901Y0289174D01*
X0154014Y0289270D01*
X0154130Y0289362D01*
X0154248Y0289451D01*
X0154369Y0289536D01*
X0154492Y0289619D01*
X0154617Y0289698D01*
X0154744Y0289774D01*
X0154873Y0289846D01*
X0155004Y0289915D01*
X0155137Y0289980D01*
X0155272Y0290041D01*
X0155408Y0290099D01*
X0155545Y0290154D01*
X0155684Y0290204D01*
X0155825Y0290251D01*
X0155966Y0290294D01*
X0156109Y0290334D01*
X0156253Y0290369D01*
X0156397Y0290401D01*
X0156543Y0290428D01*
X0156689Y0290452D01*
X0156836Y0290472D01*
X0156983Y0290488D01*
X0157130Y0290500D01*
X0157278Y0290508D01*
X0157426Y0290512D01*
X0157574Y0290512D01*
X0157722Y0290508D01*
X0157870Y0290500D01*
X0158017Y0290488D01*
X0158164Y0290472D01*
X0158311Y0290452D01*
X0158457Y0290428D01*
X0158603Y0290401D01*
X0158747Y0290369D01*
X0158891Y0290334D01*
X0159034Y0290294D01*
X0159175Y0290251D01*
X0159316Y0290204D01*
X0159455Y0290154D01*
X0159592Y0290099D01*
X0159728Y0290041D01*
X0159863Y0289980D01*
X0159996Y0289915D01*
X0160127Y0289846D01*
X0160256Y0289774D01*
X0160383Y0289698D01*
X0160508Y0289619D01*
X0160631Y0289536D01*
X0160752Y0289451D01*
X0160870Y0289362D01*
X0160986Y0289270D01*
X0161099Y0289174D01*
X0161210Y0289076D01*
X0161318Y0288975D01*
X0161424Y0288871D01*
X0161526Y0288765D01*
X0161626Y0288655D01*
X0161722Y0288543D01*
X0161816Y0288428D01*
X0161907Y0288311D01*
X0161994Y0288192D01*
X0162078Y0288070D01*
X0162159Y0287946D01*
X0162236Y0287820D01*
X0162310Y0287692D01*
X0162381Y0287562D01*
X0162448Y0287430D01*
X0162511Y0287296D01*
X0162571Y0287161D01*
X0162627Y0287024D01*
X0162680Y0286885D01*
X0162728Y0286745D01*
X0162773Y0286604D01*
X0162814Y0286462D01*
X0162852Y0286319D01*
X0162885Y0286175D01*
X0162915Y0286030D01*
X0162941Y0285884D01*
X0162962Y0285738D01*
X0162980Y0285591D01*
X0162994Y0285444D01*
X0163004Y0285296D01*
X0163010Y0285148D01*
X0163012Y0285000D01*
X0163010Y0284852D01*
X0163004Y0284704D01*
X0162994Y0284556D01*
X0162980Y0284409D01*
X0162962Y0284262D01*
X0162941Y0284116D01*
X0162915Y0283970D01*
X0162885Y0283825D01*
X0162852Y0283681D01*
X0162814Y0283538D01*
X0162773Y0283396D01*
X0162728Y0283255D01*
X0162680Y0283115D01*
X0162627Y0282976D01*
X0162571Y0282839D01*
X0162511Y0282704D01*
X0162448Y0282570D01*
X0162381Y0282438D01*
X0162310Y0282308D01*
X0162236Y0282180D01*
X0162159Y0282054D01*
X0162078Y0281930D01*
X0161994Y0281808D01*
X0161907Y0281689D01*
X0161816Y0281572D01*
X0161722Y0281457D01*
X0161626Y0281345D01*
X0161526Y0281235D01*
X0161424Y0281129D01*
X0161318Y0281025D01*
X0161210Y0280924D01*
X0161099Y0280826D01*
X0160986Y0280730D01*
X0160870Y0280638D01*
X0160752Y0280549D01*
X0160631Y0280464D01*
X0160508Y0280381D01*
X0160383Y0280302D01*
X0160256Y0280226D01*
X0160127Y0280154D01*
X0159996Y0280085D01*
X0159863Y0280020D01*
X0159728Y0279959D01*
X0159592Y0279901D01*
X0159455Y0279846D01*
X0159316Y0279796D01*
X0159175Y0279749D01*
X0159034Y0279706D01*
X0158891Y0279666D01*
X0158747Y0279631D01*
X0158603Y0279599D01*
X0158457Y0279572D01*
X0158311Y0279548D01*
X0158164Y0279528D01*
X0158017Y0279512D01*
X0157870Y0279500D01*
X0157722Y0279492D01*
X0157574Y0279488D01*
X0157426Y0279488D01*
X0157278Y0279492D01*
X0157130Y0279500D01*
X0156983Y0279512D01*
X0156836Y0279528D01*
X0156689Y0279548D01*
X0156543Y0279572D01*
X0156397Y0279599D01*
X0156253Y0279631D01*
X0156109Y0279666D01*
X0155966Y0279706D01*
X0155825Y0279749D01*
X0155684Y0279796D01*
X0155545Y0279846D01*
X0155408Y0279901D01*
X0155272Y0279959D01*
X0155137Y0280020D01*
X0155004Y0280085D01*
X0154873Y0280154D01*
X0154744Y0280226D01*
X0154617Y0280302D01*
X0154492Y0280381D01*
X0154369Y0280464D01*
X0154248Y0280549D01*
X0154130Y0280638D01*
X0154014Y0280730D01*
X0153901Y0280826D01*
X0153790Y0280924D01*
X0153682Y0281025D01*
X0153576Y0281129D01*
X0153474Y0281235D01*
X0153374Y0281345D01*
X0153278Y0281457D01*
X0153184Y0281572D01*
X0153093Y0281689D01*
X0153006Y0281808D01*
X0152922Y0281930D01*
X0152841Y0282054D01*
X0152764Y0282180D01*
X0152690Y0282308D01*
X0152619Y0282438D01*
X0152552Y0282570D01*
X0152489Y0282704D01*
X0152429Y0282839D01*
X0152373Y0282976D01*
X0152320Y0283115D01*
X0152272Y0283255D01*
X0152227Y0283396D01*
X0152186Y0283538D01*
X0152148Y0283681D01*
X0152115Y0283825D01*
X0152085Y0283970D01*
X0152059Y0284116D01*
X0152038Y0284262D01*
X0152020Y0284409D01*
X0152006Y0284556D01*
X0151996Y0284704D01*
X0151990Y0284852D01*
X0151988Y0285000D01*
M02*
