G75*
%MOIN*%
%OFA0B0*%
%FSLAX25Y25*%
%IPPOS*%
%LPD*%
%AMOC8*
5,1,8,0,0,1.08239X$1,22.5*
%
%ADD10R,0.01378X0.09843*%
%ADD11R,0.09843X0.07874*%
%ADD12OC8,0.06000*%
%ADD13R,0.08661X0.01181*%
%ADD14R,0.05512X0.06890*%
%ADD15C,0.00600*%
%ADD16C,0.02700*%
D10*
X0138750Y0033248D03*
X0141250Y0033248D03*
X0143750Y0033248D03*
X0146250Y0033248D03*
X0148750Y0033248D03*
X0151250Y0033248D03*
X0153750Y0033248D03*
X0156250Y0033248D03*
X0158750Y0033248D03*
X0161250Y0033248D03*
X0163750Y0033248D03*
X0166250Y0033248D03*
X0168750Y0033248D03*
X0171250Y0033248D03*
X0173750Y0033248D03*
X0176250Y0033248D03*
X0178750Y0033248D03*
X0181250Y0033248D03*
X0183750Y0033248D03*
X0186250Y0033248D03*
X0186250Y0051752D03*
X0183750Y0051752D03*
X0181250Y0051752D03*
X0178750Y0051752D03*
X0176250Y0051752D03*
X0173750Y0051752D03*
X0171250Y0051752D03*
X0168750Y0051752D03*
X0166250Y0051752D03*
X0163750Y0051752D03*
X0161250Y0051752D03*
X0158750Y0051752D03*
X0156250Y0051752D03*
X0153750Y0051752D03*
X0151250Y0051752D03*
X0148750Y0051752D03*
X0146250Y0051752D03*
X0143750Y0051752D03*
X0141250Y0051752D03*
X0138750Y0051752D03*
D11*
X0126673Y0042500D03*
X0198327Y0042500D03*
D12*
X0137500Y0122500D03*
X0137500Y0132500D03*
X0127500Y0132500D03*
X0127500Y0122500D03*
X0117500Y0122500D03*
X0117500Y0132500D03*
X0107500Y0132500D03*
X0107500Y0122500D03*
D13*
X0167500Y0127500D03*
X0167500Y0129469D03*
X0167500Y0131437D03*
X0167500Y0133406D03*
X0167500Y0135374D03*
X0187185Y0135374D03*
X0187185Y0133406D03*
X0187185Y0131437D03*
X0187185Y0129469D03*
X0187185Y0127500D03*
D14*
X0177343Y0121201D03*
X0177343Y0141673D03*
D15*
X0107500Y0122500D02*
X0107500Y0121300D01*
X0151900Y0076900D01*
X0151900Y0075100D01*
X0163300Y0067300D02*
X0123100Y0107500D01*
X0123100Y0133900D01*
X0126100Y0136900D01*
X0138700Y0136900D01*
X0139900Y0135700D01*
X0167500Y0135700D01*
X0167500Y0135374D01*
X0167500Y0133406D02*
X0167500Y0133300D01*
X0174100Y0133300D01*
X0174700Y0133900D01*
X0175900Y0127300D02*
X0186700Y0127300D01*
X0187185Y0127500D01*
X0187300Y0129100D02*
X0187185Y0129469D01*
X0187300Y0129100D02*
X0192100Y0129100D01*
X0192700Y0128500D01*
X0192700Y0126700D01*
X0190900Y0124900D01*
X0190900Y0117700D01*
X0180100Y0106900D01*
X0187900Y0111100D02*
X0193900Y0117100D01*
X0193900Y0131500D01*
X0192100Y0133300D01*
X0187300Y0133300D01*
X0187185Y0133406D01*
X0187300Y0135100D02*
X0187185Y0135374D01*
X0187300Y0135100D02*
X0192100Y0135100D01*
X0195100Y0132100D01*
X0195100Y0084100D01*
X0192700Y0081700D01*
X0187900Y0078700D02*
X0204700Y0061900D01*
X0204700Y0038500D01*
X0203500Y0037300D01*
X0201700Y0037300D01*
X0190300Y0025900D01*
X0176500Y0025900D01*
X0174100Y0028300D01*
X0174100Y0033100D01*
X0173750Y0033248D01*
X0171250Y0033248D02*
X0171100Y0037900D01*
X0172300Y0039100D01*
X0174100Y0039100D01*
X0174100Y0051700D01*
X0173750Y0051752D01*
X0173500Y0052300D01*
X0173500Y0060100D01*
X0173500Y0088900D01*
X0160300Y0102100D01*
X0160300Y0128500D01*
X0163300Y0131500D01*
X0167500Y0131500D01*
X0167500Y0131437D01*
X0167500Y0131500D02*
X0186700Y0131500D01*
X0187185Y0131437D01*
X0175900Y0127300D02*
X0172300Y0123700D01*
X0167500Y0127500D02*
X0167500Y0103900D01*
X0185500Y0085900D01*
X0185500Y0067900D01*
X0195700Y0057700D01*
X0195700Y0052300D01*
X0181300Y0037900D01*
X0181300Y0033700D01*
X0181250Y0033248D01*
X0178750Y0033248D02*
X0178300Y0033700D01*
X0178300Y0038500D01*
X0177700Y0039100D01*
X0174100Y0039100D01*
X0171100Y0037900D02*
X0169900Y0039100D01*
X0166300Y0039100D01*
X0166300Y0051700D01*
X0166250Y0051752D01*
X0168100Y0052900D02*
X0168700Y0052300D01*
X0168750Y0051752D01*
X0168100Y0052900D02*
X0168100Y0058900D01*
X0171100Y0059500D02*
X0171100Y0052300D01*
X0171250Y0051752D01*
X0175900Y0052300D02*
X0176250Y0051752D01*
X0175900Y0052300D02*
X0175900Y0090100D01*
X0162700Y0103300D01*
X0162100Y0107500D02*
X0184300Y0085300D01*
X0184300Y0065500D01*
X0193300Y0056500D01*
X0176500Y0033100D02*
X0176250Y0033248D01*
X0176500Y0033100D02*
X0176500Y0028300D01*
X0177700Y0027100D01*
X0187300Y0027100D01*
X0189100Y0028900D01*
X0171250Y0033248D02*
X0171100Y0033700D01*
X0171100Y0037900D01*
X0166300Y0039100D02*
X0160300Y0039100D01*
X0160900Y0038500D01*
X0160900Y0033700D01*
X0161250Y0033248D01*
X0160300Y0039100D02*
X0156700Y0039100D01*
X0156700Y0045700D01*
X0150100Y0045700D01*
X0148900Y0046900D01*
X0148900Y0051700D01*
X0148750Y0051752D01*
X0148300Y0051700D01*
X0146500Y0051700D01*
X0146250Y0051752D01*
X0141250Y0051752D02*
X0141100Y0051700D01*
X0139300Y0051700D01*
X0138750Y0051752D01*
X0138700Y0051700D01*
X0138700Y0033700D01*
X0138750Y0033248D01*
X0139300Y0033100D01*
X0141100Y0033100D01*
X0141250Y0033248D01*
X0153750Y0033248D02*
X0154300Y0033700D01*
X0154300Y0038500D01*
X0154900Y0039100D01*
X0156700Y0039100D01*
X0156700Y0045700D02*
X0156700Y0051700D01*
X0156250Y0051752D01*
X0171100Y0059500D02*
X0163300Y0067300D01*
X0187900Y0078700D02*
X0187900Y0111100D01*
X0167500Y0129100D02*
X0167500Y0129469D01*
X0167500Y0129100D02*
X0162700Y0129100D01*
X0162100Y0128500D01*
X0162100Y0107500D01*
X0160300Y0128500D02*
X0135700Y0128500D01*
X0132100Y0132100D01*
X0127900Y0132100D01*
X0127500Y0132500D01*
D16*
X0162700Y0103300D03*
X0172300Y0123700D03*
X0174700Y0133900D03*
X0190900Y0117700D03*
X0180100Y0106900D03*
X0192700Y0081700D03*
X0187900Y0078700D03*
X0173500Y0060100D03*
X0168100Y0058900D03*
X0163300Y0067300D03*
X0151900Y0075100D03*
X0189100Y0028900D03*
X0193300Y0056500D03*
M02*
