G75*
%MOIN*%
%OFA0B0*%
%FSLAX25Y25*%
%IPPOS*%
%LPD*%
%AMOC8*
5,1,8,0,0,1.08239X$1,22.5*
%
%ADD10C,0.02569*%
%ADD11R,0.10443X0.08474*%
%ADD12R,0.01575X0.10039*%
%ADD13C,0.03356*%
%ADD14C,0.04143*%
%ADD15C,0.11624*%
%ADD16OC8,0.06600*%
%ADD17R,0.09261X0.01781*%
%ADD18R,0.06112X0.07490*%
%ADD19C,0.03300*%
D10*
X0007500Y0157500D03*
X0012500Y0157500D03*
X0017500Y0157500D03*
X0022500Y0157500D03*
X0027500Y0157500D03*
X0032500Y0157500D03*
X0037500Y0157500D03*
X0042500Y0157500D03*
X0047500Y0157500D03*
X0052500Y0157500D03*
X0057500Y0157500D03*
X0062500Y0157500D03*
X0067500Y0157500D03*
X0072500Y0157500D03*
X0077500Y0157500D03*
X0082500Y0157500D03*
X0087500Y0157500D03*
X0092500Y0157500D03*
X0097500Y0157500D03*
X0102500Y0157500D03*
X0107500Y0157500D03*
X0112500Y0157500D03*
X0117500Y0157500D03*
X0122500Y0157500D03*
X0127500Y0157500D03*
X0132500Y0157500D03*
X0137500Y0157500D03*
X0142500Y0157500D03*
X0147500Y0157500D03*
X0152500Y0157500D03*
X0157500Y0157500D03*
X0162500Y0157500D03*
X0167500Y0157500D03*
X0172500Y0157500D03*
X0177500Y0157500D03*
X0182500Y0157500D03*
X0187500Y0157500D03*
X0192500Y0157500D03*
X0197500Y0157500D03*
X0202500Y0157500D03*
X0207500Y0157500D03*
D11*
X0198327Y0042500D03*
X0126673Y0042500D03*
D12*
X0138750Y0033248D03*
X0141250Y0033248D03*
X0143750Y0033248D03*
X0146250Y0033248D03*
X0148750Y0033248D03*
X0151250Y0033248D03*
X0153750Y0033248D03*
X0156250Y0033248D03*
X0158750Y0033248D03*
X0161250Y0033248D03*
X0163750Y0033248D03*
X0166250Y0033248D03*
X0168750Y0033248D03*
X0171250Y0033248D03*
X0173750Y0033248D03*
X0176250Y0033248D03*
X0178750Y0033248D03*
X0181250Y0033248D03*
X0183750Y0033248D03*
X0186250Y0033248D03*
X0186250Y0051752D03*
X0183750Y0051752D03*
X0181250Y0051752D03*
X0178750Y0051752D03*
X0176250Y0051752D03*
X0173750Y0051752D03*
X0171250Y0051752D03*
X0168750Y0051752D03*
X0166250Y0051752D03*
X0163750Y0051752D03*
X0161250Y0051752D03*
X0158750Y0051752D03*
X0156250Y0051752D03*
X0153750Y0051752D03*
X0151250Y0051752D03*
X0148750Y0051752D03*
X0146250Y0051752D03*
X0143750Y0051752D03*
X0141250Y0051752D03*
X0138750Y0051752D03*
D13*
X0133819Y0042500D03*
D14*
X0191181Y0042500D03*
D15*
X0200000Y0015000D03*
X0015000Y0177500D03*
X0157500Y0285000D03*
D16*
X0107500Y0122500D03*
X0107500Y0132500D03*
X0117500Y0132500D03*
X0117500Y0122500D03*
X0127500Y0122500D03*
X0127500Y0132500D03*
X0137500Y0132500D03*
X0137500Y0122500D03*
D17*
X0167500Y0127500D03*
X0167500Y0129469D03*
X0167500Y0131437D03*
X0167500Y0133406D03*
X0167500Y0135374D03*
X0187185Y0135374D03*
X0187185Y0133406D03*
X0187185Y0131437D03*
X0187185Y0129469D03*
X0187185Y0127500D03*
D18*
X0177343Y0121201D03*
X0177343Y0141673D03*
D19*
X0174700Y0133900D03*
X0172300Y0123700D03*
X0180100Y0106900D03*
X0190900Y0117700D03*
X0192700Y0081700D03*
X0187900Y0078700D03*
X0173500Y0060100D03*
X0168100Y0058900D03*
X0163300Y0067300D03*
X0151900Y0075100D03*
X0162700Y0103300D03*
X0193300Y0056500D03*
X0189100Y0028900D03*
M02*
