G75*
%MOIN*%
%OFA0B0*%
%FSLAX25Y25*%
%IPPOS*%
%LPD*%
%AMOC8*
5,1,8,0,0,1.08239X$1,22.5*
%
%ADD10R,0.08100X0.02400*%
%ADD11R,0.01378X0.09843*%
%ADD12R,0.09843X0.07874*%
%ADD13R,0.03937X0.04331*%
%ADD14R,0.04331X0.03937*%
%ADD15R,0.04921X0.03150*%
D10*
X0036000Y0106625D03*
X0036000Y0111625D03*
X0036000Y0116625D03*
X0036000Y0121625D03*
X0036000Y0126625D03*
X0036000Y0131625D03*
X0036000Y0136625D03*
X0036000Y0141625D03*
X0054900Y0141625D03*
X0054900Y0136625D03*
X0054900Y0131625D03*
X0054900Y0126625D03*
X0054900Y0121625D03*
X0054900Y0116625D03*
X0054900Y0111625D03*
X0054900Y0106625D03*
X0163600Y0114625D03*
X0163600Y0119625D03*
X0163600Y0124625D03*
X0163600Y0129625D03*
X0163600Y0134625D03*
X0163600Y0139625D03*
X0163600Y0144625D03*
X0163600Y0149625D03*
X0182500Y0149625D03*
X0182500Y0144625D03*
X0182500Y0139625D03*
X0182500Y0134625D03*
X0182500Y0129625D03*
X0182500Y0124625D03*
X0182500Y0119625D03*
X0182500Y0114625D03*
D11*
X0183250Y0057877D03*
X0185750Y0057877D03*
X0188250Y0057877D03*
X0180750Y0057877D03*
X0178250Y0057877D03*
X0175750Y0057877D03*
X0173250Y0057877D03*
X0170750Y0057877D03*
X0168250Y0057877D03*
X0165750Y0057877D03*
X0163250Y0057877D03*
X0160750Y0057877D03*
X0158250Y0057877D03*
X0155750Y0057877D03*
X0153250Y0057877D03*
X0150750Y0057877D03*
X0148250Y0057877D03*
X0145750Y0057877D03*
X0143250Y0057877D03*
X0140750Y0057877D03*
X0140750Y0039373D03*
X0143250Y0039373D03*
X0145750Y0039373D03*
X0148250Y0039373D03*
X0150750Y0039373D03*
X0153250Y0039373D03*
X0155750Y0039373D03*
X0158250Y0039373D03*
X0160750Y0039373D03*
X0163250Y0039373D03*
X0165750Y0039373D03*
X0168250Y0039373D03*
X0170750Y0039373D03*
X0173250Y0039373D03*
X0175750Y0039373D03*
X0178250Y0039373D03*
X0180750Y0039373D03*
X0183250Y0039373D03*
X0185750Y0039373D03*
X0188250Y0039373D03*
D12*
X0203220Y0048625D03*
X0125780Y0048625D03*
D13*
X0025500Y0106279D03*
X0025500Y0112971D03*
X0080500Y0115971D03*
X0080500Y0122279D03*
X0080500Y0128971D03*
X0080500Y0136279D03*
X0080500Y0142971D03*
X0080500Y0109279D03*
X0080500Y0102971D03*
X0080500Y0096279D03*
X0137500Y0097279D03*
X0137500Y0103971D03*
X0137500Y0110279D03*
X0137500Y0116971D03*
X0137500Y0143279D03*
X0137500Y0149971D03*
X0194300Y0149571D03*
X0194300Y0142879D03*
D14*
X0205500Y0133971D03*
X0205500Y0127279D03*
X0194500Y0123971D03*
X0194500Y0117279D03*
X0067500Y0111971D03*
X0067500Y0105279D03*
D15*
X0205500Y0107342D03*
X0205500Y0121908D03*
X0205500Y0139342D03*
X0205500Y0153908D03*
M02*
