%
M48
M72
T01C0.0130
T02C0.0197
T03C0.0276
T04C0.0354
T05C0.0400
T06C0.0787
T07C0.1181
%
T01
X7650Y10943
X8790Y13283
X6750Y13643
X10950Y9683
X13770Y5483
X13950Y4643
X15690Y4643
X21150Y13103
T02
X20950Y16363
X20450Y16363
X19950Y16363
X19450Y16363
X18950Y16363
X18450Y16363
X17950Y16363
X17450Y16363
X16950Y16363
X16450Y16363
X15950Y16363
X15450Y16363
X14950Y16363
X14450Y16363
X13950Y16363
X13450Y16363
X12950Y16363
X12450Y16363
X11950Y16363
X11450Y16363
X10950Y16363
X10450Y16363
X9950Y16363
X9450Y16363
X8950Y16363
X8450Y16363
X7950Y16363
X7450Y16363
X6950Y16363
X6450Y16363
X5950Y16363
X5450Y16363
X4950Y16363
X4450Y16363
X3950Y16363
X3450Y16363
X2950Y16363
X2450Y16363
X1950Y16363
X1450Y16363
X950Y16363
T03
X13424Y4863
T04
X19476Y4863
T05
X11450Y10563
X11450Y11563
X11450Y12563
X11450Y13563
X10450Y13563
X10450Y12563
X10450Y11563
X10450Y10563
T06
X20550Y11463
X20550Y14663
T07
X20356Y1800
X1700Y18363
X16075Y29063
M30
