G75*
%MOIN*%
%OFA0B0*%
%FSLAX25Y25*%
%IPPOS*%
%LPD*%
%AMOC8*
5,1,8,0,0,1.08239X$1,22.5*
%
%ADD10OC8,0.06000*%
%ADD11C,0.01200*%
%ADD12C,0.02700*%
%ADD13C,0.00600*%
D10*
X0104500Y0105625D03*
X0104500Y0115625D03*
X0104500Y0125625D03*
X0104500Y0135625D03*
X0114500Y0135625D03*
X0114500Y0125625D03*
X0114500Y0115625D03*
X0114500Y0105625D03*
D11*
X0188656Y0010725D02*
X0006600Y0010725D01*
X0006600Y0158625D01*
X0212400Y0158625D01*
X0212400Y0031852D01*
X0209627Y0033452D01*
X0204803Y0034554D01*
X0199869Y0034184D01*
X0199869Y0034184D01*
X0195262Y0032376D01*
X0191394Y0029291D01*
X0191394Y0029291D01*
X0188606Y0025202D01*
X0187148Y0020474D01*
X0187148Y0015526D01*
X0188606Y0010798D01*
X0188606Y0010798D01*
X0188656Y0010725D01*
X0188537Y0011022D02*
X0006600Y0011022D01*
X0006600Y0012221D02*
X0188167Y0012221D01*
X0187798Y0013419D02*
X0006600Y0013419D01*
X0006600Y0014618D02*
X0187428Y0014618D01*
X0187148Y0015816D02*
X0006600Y0015816D01*
X0006600Y0017015D02*
X0187148Y0017015D01*
X0187148Y0018213D02*
X0006600Y0018213D01*
X0006600Y0019412D02*
X0187148Y0019412D01*
X0187190Y0020610D02*
X0006600Y0020610D01*
X0006600Y0021809D02*
X0187560Y0021809D01*
X0187929Y0023007D02*
X0006600Y0023007D01*
X0006600Y0024206D02*
X0188299Y0024206D01*
X0188606Y0025202D02*
X0188606Y0025202D01*
X0188744Y0025404D02*
X0006600Y0025404D01*
X0006600Y0026603D02*
X0189561Y0026603D01*
X0190378Y0027801D02*
X0006600Y0027801D01*
X0006600Y0029000D02*
X0191195Y0029000D01*
X0191394Y0029291D02*
X0191394Y0029291D01*
X0192532Y0030198D02*
X0006600Y0030198D01*
X0006600Y0031397D02*
X0194034Y0031397D01*
X0195262Y0032376D02*
X0195262Y0032376D01*
X0195821Y0032595D02*
X0006600Y0032595D01*
X0006600Y0033794D02*
X0198875Y0033794D01*
X0204803Y0034554D02*
X0204803Y0034554D01*
X0208132Y0033794D02*
X0212400Y0033794D01*
X0212400Y0034992D02*
X0006600Y0034992D01*
X0006600Y0036191D02*
X0212400Y0036191D01*
X0212400Y0037389D02*
X0006600Y0037389D01*
X0006600Y0038588D02*
X0212400Y0038588D01*
X0212400Y0039786D02*
X0006600Y0039786D01*
X0006600Y0040985D02*
X0212400Y0040985D01*
X0212400Y0042183D02*
X0006600Y0042183D01*
X0006600Y0043382D02*
X0212400Y0043382D01*
X0212400Y0044580D02*
X0141262Y0044580D01*
X0140944Y0044263D02*
X0141662Y0044981D01*
X0142050Y0045918D01*
X0142050Y0046932D01*
X0141662Y0047869D01*
X0141000Y0048531D01*
X0141000Y0051246D01*
X0140121Y0052125D01*
X0139364Y0052883D01*
X0139862Y0053381D01*
X0140250Y0054318D01*
X0140250Y0055332D01*
X0139862Y0056269D01*
X0139144Y0056987D01*
X0138207Y0057375D01*
X0137193Y0057375D01*
X0136256Y0056987D01*
X0135538Y0056269D01*
X0135150Y0055332D01*
X0135150Y0054318D01*
X0135538Y0053381D01*
X0136200Y0052719D01*
X0136200Y0051804D01*
X0138000Y0050004D01*
X0138000Y0048531D01*
X0137722Y0048253D01*
X0137722Y0049317D01*
X0137193Y0050595D01*
X0136214Y0051573D01*
X0134936Y0052103D01*
X0133552Y0052103D01*
X0132274Y0051573D01*
X0131296Y0050595D01*
X0130766Y0049317D01*
X0130766Y0047933D01*
X0131296Y0046655D01*
X0132274Y0045677D01*
X0133552Y0045147D01*
X0134936Y0045147D01*
X0136214Y0045677D01*
X0136950Y0046412D01*
X0136950Y0045918D01*
X0137338Y0044981D01*
X0138056Y0044263D01*
X0138993Y0043875D01*
X0140007Y0043875D01*
X0140944Y0044263D01*
X0141992Y0045779D02*
X0192127Y0045779D01*
X0192563Y0045343D02*
X0193986Y0044753D01*
X0195526Y0044753D01*
X0196949Y0045343D01*
X0198038Y0046432D01*
X0198628Y0047855D01*
X0198628Y0049395D01*
X0198038Y0050818D01*
X0196949Y0051907D01*
X0195526Y0052497D01*
X0193986Y0052497D01*
X0192563Y0051907D01*
X0191474Y0050818D01*
X0190884Y0049395D01*
X0190884Y0047855D01*
X0191474Y0046432D01*
X0192563Y0045343D01*
X0191248Y0046977D02*
X0142031Y0046977D01*
X0141355Y0048176D02*
X0190884Y0048176D01*
X0190884Y0049374D02*
X0141000Y0049374D01*
X0141000Y0050573D02*
X0191372Y0050573D01*
X0192427Y0051771D02*
X0140475Y0051771D01*
X0139451Y0052970D02*
X0212400Y0052970D01*
X0212400Y0054168D02*
X0140188Y0054168D01*
X0140236Y0055367D02*
X0212400Y0055367D01*
X0212400Y0056565D02*
X0139566Y0056565D01*
X0135834Y0056565D02*
X0006600Y0056565D01*
X0006600Y0055367D02*
X0135164Y0055367D01*
X0135212Y0054168D02*
X0006600Y0054168D01*
X0006600Y0052970D02*
X0135949Y0052970D01*
X0135736Y0051771D02*
X0136232Y0051771D01*
X0137202Y0050573D02*
X0137431Y0050573D01*
X0137698Y0049374D02*
X0138000Y0049374D01*
X0137008Y0045779D02*
X0136316Y0045779D01*
X0137738Y0044580D02*
X0006600Y0044580D01*
X0006600Y0045779D02*
X0132172Y0045779D01*
X0131162Y0046977D02*
X0006600Y0046977D01*
X0006600Y0048176D02*
X0130766Y0048176D01*
X0130790Y0049374D02*
X0006600Y0049374D01*
X0006600Y0050573D02*
X0131286Y0050573D01*
X0132752Y0051771D02*
X0006600Y0051771D01*
X0006600Y0057764D02*
X0212400Y0057764D01*
X0212400Y0058962D02*
X0006600Y0058962D01*
X0006600Y0060161D02*
X0212400Y0060161D01*
X0212400Y0061359D02*
X0006600Y0061359D01*
X0006600Y0062558D02*
X0212400Y0062558D01*
X0212400Y0063757D02*
X0006600Y0063757D01*
X0006600Y0064955D02*
X0212400Y0064955D01*
X0212400Y0066154D02*
X0006600Y0066154D01*
X0006600Y0067352D02*
X0212400Y0067352D01*
X0212400Y0068551D02*
X0006600Y0068551D01*
X0006600Y0069749D02*
X0212400Y0069749D01*
X0212400Y0070948D02*
X0006600Y0070948D01*
X0006600Y0072146D02*
X0212400Y0072146D01*
X0212400Y0073345D02*
X0006600Y0073345D01*
X0006600Y0074543D02*
X0212400Y0074543D01*
X0212400Y0075742D02*
X0006600Y0075742D01*
X0006600Y0076940D02*
X0212400Y0076940D01*
X0212400Y0078139D02*
X0006600Y0078139D01*
X0006600Y0079337D02*
X0212400Y0079337D01*
X0212400Y0080536D02*
X0006600Y0080536D01*
X0006600Y0081734D02*
X0212400Y0081734D01*
X0212400Y0082933D02*
X0006600Y0082933D01*
X0006600Y0084131D02*
X0212400Y0084131D01*
X0212400Y0085330D02*
X0006600Y0085330D01*
X0006600Y0086528D02*
X0212400Y0086528D01*
X0212400Y0087727D02*
X0006600Y0087727D01*
X0006600Y0088925D02*
X0212400Y0088925D01*
X0212400Y0090124D02*
X0006600Y0090124D01*
X0006600Y0091322D02*
X0212400Y0091322D01*
X0212400Y0092521D02*
X0006600Y0092521D01*
X0006600Y0093719D02*
X0212400Y0093719D01*
X0212400Y0094918D02*
X0006600Y0094918D01*
X0006600Y0096116D02*
X0212400Y0096116D01*
X0212400Y0097315D02*
X0006600Y0097315D01*
X0006600Y0098513D02*
X0100890Y0098513D01*
X0101079Y0098325D02*
X0109521Y0098325D01*
X0110400Y0099204D01*
X0112691Y0101495D01*
X0112760Y0101425D01*
X0116240Y0101425D01*
X0118700Y0103885D01*
X0118700Y0107365D01*
X0116240Y0109825D01*
X0112760Y0109825D01*
X0110300Y0107365D01*
X0110300Y0103885D01*
X0110570Y0103616D01*
X0108279Y0101325D01*
X0102321Y0101325D01*
X0089400Y0114246D01*
X0089400Y0130719D01*
X0090062Y0131381D01*
X0090450Y0132318D01*
X0090450Y0133332D01*
X0090062Y0134269D01*
X0089344Y0134987D01*
X0088407Y0135375D01*
X0087393Y0135375D01*
X0086456Y0134987D01*
X0085738Y0134269D01*
X0085350Y0133332D01*
X0085350Y0132318D01*
X0085738Y0131381D01*
X0086400Y0130719D01*
X0086400Y0113004D01*
X0087279Y0112125D01*
X0101079Y0098325D01*
X0099692Y0099712D02*
X0006600Y0099712D01*
X0006600Y0100910D02*
X0098493Y0100910D01*
X0097295Y0102109D02*
X0006600Y0102109D01*
X0006600Y0103307D02*
X0096096Y0103307D01*
X0094898Y0104506D02*
X0006600Y0104506D01*
X0006600Y0105704D02*
X0093699Y0105704D01*
X0092501Y0106903D02*
X0006600Y0106903D01*
X0006600Y0108101D02*
X0091302Y0108101D01*
X0090104Y0109300D02*
X0006600Y0109300D01*
X0006600Y0110498D02*
X0088905Y0110498D01*
X0087707Y0111697D02*
X0006600Y0111697D01*
X0006600Y0112895D02*
X0086508Y0112895D01*
X0086400Y0114094D02*
X0006600Y0114094D01*
X0006600Y0115293D02*
X0086400Y0115293D01*
X0086400Y0116491D02*
X0006600Y0116491D01*
X0006600Y0117690D02*
X0086400Y0117690D01*
X0086400Y0118888D02*
X0006600Y0118888D01*
X0006600Y0120087D02*
X0086400Y0120087D01*
X0086400Y0121285D02*
X0006600Y0121285D01*
X0006600Y0122484D02*
X0086400Y0122484D01*
X0086400Y0123682D02*
X0006600Y0123682D01*
X0006600Y0124881D02*
X0086400Y0124881D01*
X0086400Y0126079D02*
X0006600Y0126079D01*
X0006600Y0127278D02*
X0086400Y0127278D01*
X0086400Y0128476D02*
X0006600Y0128476D01*
X0006600Y0129675D02*
X0086400Y0129675D01*
X0086246Y0130873D02*
X0006600Y0130873D01*
X0006600Y0132072D02*
X0085452Y0132072D01*
X0085350Y0133270D02*
X0006600Y0133270D01*
X0006600Y0134469D02*
X0085937Y0134469D01*
X0089863Y0134469D02*
X0100300Y0134469D01*
X0100300Y0133885D02*
X0102760Y0131425D01*
X0106240Y0131425D01*
X0108700Y0133885D01*
X0108700Y0137365D01*
X0106240Y0139825D01*
X0102760Y0139825D01*
X0100300Y0137365D01*
X0100300Y0133885D01*
X0100915Y0133270D02*
X0090450Y0133270D01*
X0090348Y0132072D02*
X0102114Y0132072D01*
X0100300Y0135667D02*
X0006600Y0135667D01*
X0006600Y0136866D02*
X0100300Y0136866D01*
X0101000Y0138064D02*
X0006600Y0138064D01*
X0006600Y0139263D02*
X0102198Y0139263D01*
X0106802Y0139263D02*
X0112198Y0139263D01*
X0112760Y0139825D02*
X0110300Y0137365D01*
X0110300Y0133885D01*
X0112760Y0131425D01*
X0116240Y0131425D01*
X0118700Y0133885D01*
X0118700Y0137365D01*
X0116240Y0139825D01*
X0112760Y0139825D01*
X0111000Y0138064D02*
X0108000Y0138064D01*
X0108700Y0136866D02*
X0110300Y0136866D01*
X0110300Y0135667D02*
X0108700Y0135667D01*
X0108700Y0134469D02*
X0110300Y0134469D01*
X0110915Y0133270D02*
X0108085Y0133270D01*
X0106886Y0132072D02*
X0112114Y0132072D01*
X0112760Y0129825D02*
X0110300Y0127365D01*
X0110300Y0123885D01*
X0112760Y0121425D01*
X0116240Y0121425D01*
X0118700Y0123885D01*
X0118700Y0127365D01*
X0116240Y0129825D01*
X0112760Y0129825D01*
X0112610Y0129675D02*
X0089400Y0129675D01*
X0089400Y0128476D02*
X0111411Y0128476D01*
X0110300Y0127278D02*
X0089400Y0127278D01*
X0089400Y0126079D02*
X0110300Y0126079D01*
X0110300Y0124881D02*
X0089400Y0124881D01*
X0089400Y0123682D02*
X0110503Y0123682D01*
X0111702Y0122484D02*
X0089400Y0122484D01*
X0089400Y0121285D02*
X0212400Y0121285D01*
X0212400Y0120087D02*
X0208090Y0120087D01*
X0208920Y0119743D02*
X0206701Y0120662D01*
X0204299Y0120662D01*
X0202080Y0119743D01*
X0200382Y0118045D01*
X0199463Y0115826D01*
X0199463Y0113424D01*
X0200382Y0111205D01*
X0202080Y0109507D01*
X0204299Y0108588D01*
X0206701Y0108588D01*
X0208920Y0109507D01*
X0210618Y0111205D01*
X0211537Y0113424D01*
X0211537Y0115826D01*
X0210618Y0118045D01*
X0208920Y0119743D01*
X0209775Y0118888D02*
X0212400Y0118888D01*
X0212400Y0117690D02*
X0210765Y0117690D01*
X0211261Y0116491D02*
X0212400Y0116491D01*
X0212400Y0115293D02*
X0211537Y0115293D01*
X0211537Y0114094D02*
X0212400Y0114094D01*
X0212400Y0112895D02*
X0211318Y0112895D01*
X0210822Y0111697D02*
X0212400Y0111697D01*
X0212400Y0110498D02*
X0209911Y0110498D01*
X0208420Y0109300D02*
X0212400Y0109300D01*
X0212400Y0108101D02*
X0117963Y0108101D01*
X0118700Y0106903D02*
X0212400Y0106903D01*
X0212400Y0105704D02*
X0118700Y0105704D01*
X0118700Y0104506D02*
X0212400Y0104506D01*
X0212400Y0103307D02*
X0118122Y0103307D01*
X0116924Y0102109D02*
X0212400Y0102109D01*
X0212400Y0100910D02*
X0112107Y0100910D01*
X0110908Y0099712D02*
X0212400Y0099712D01*
X0212400Y0098513D02*
X0109710Y0098513D01*
X0109063Y0102109D02*
X0106924Y0102109D01*
X0106240Y0101425D02*
X0108700Y0103885D01*
X0108700Y0107365D01*
X0106240Y0109825D01*
X0102760Y0109825D01*
X0100300Y0107365D01*
X0100300Y0103885D01*
X0102760Y0101425D01*
X0106240Y0101425D01*
X0108122Y0103307D02*
X0110261Y0103307D01*
X0110300Y0104506D02*
X0108700Y0104506D01*
X0108700Y0105704D02*
X0110300Y0105704D01*
X0110300Y0106903D02*
X0108700Y0106903D01*
X0107963Y0108101D02*
X0111037Y0108101D01*
X0112235Y0109300D02*
X0106765Y0109300D01*
X0106240Y0111425D02*
X0108700Y0113885D01*
X0108700Y0117365D01*
X0106240Y0119825D01*
X0102760Y0119825D01*
X0100300Y0117365D01*
X0100300Y0113885D01*
X0102760Y0111425D01*
X0106240Y0111425D01*
X0106512Y0111697D02*
X0112488Y0111697D01*
X0112760Y0111425D02*
X0116240Y0111425D01*
X0118700Y0113885D01*
X0118700Y0117365D01*
X0116240Y0119825D01*
X0112760Y0119825D01*
X0110300Y0117365D01*
X0110300Y0113885D01*
X0112760Y0111425D01*
X0111290Y0112895D02*
X0107710Y0112895D01*
X0108700Y0114094D02*
X0110300Y0114094D01*
X0110300Y0115293D02*
X0108700Y0115293D01*
X0108700Y0116491D02*
X0110300Y0116491D01*
X0110625Y0117690D02*
X0108375Y0117690D01*
X0107177Y0118888D02*
X0111823Y0118888D01*
X0116512Y0111697D02*
X0200178Y0111697D01*
X0199682Y0112895D02*
X0117710Y0112895D01*
X0118700Y0114094D02*
X0199463Y0114094D01*
X0199463Y0115293D02*
X0118700Y0115293D01*
X0118700Y0116491D02*
X0199739Y0116491D01*
X0200235Y0117690D02*
X0118375Y0117690D01*
X0117177Y0118888D02*
X0201225Y0118888D01*
X0202910Y0120087D02*
X0089400Y0120087D01*
X0089400Y0118888D02*
X0101823Y0118888D01*
X0100625Y0117690D02*
X0089400Y0117690D01*
X0089400Y0116491D02*
X0100300Y0116491D01*
X0100300Y0115293D02*
X0089400Y0115293D01*
X0089552Y0114094D02*
X0100300Y0114094D01*
X0101290Y0112895D02*
X0090751Y0112895D01*
X0091949Y0111697D02*
X0102488Y0111697D01*
X0102235Y0109300D02*
X0094346Y0109300D01*
X0093148Y0110498D02*
X0201089Y0110498D01*
X0202580Y0109300D02*
X0116765Y0109300D01*
X0117298Y0122484D02*
X0212400Y0122484D01*
X0212400Y0123682D02*
X0118497Y0123682D01*
X0118700Y0124881D02*
X0212400Y0124881D01*
X0212400Y0126079D02*
X0118700Y0126079D01*
X0118700Y0127278D02*
X0212400Y0127278D01*
X0212400Y0128476D02*
X0117589Y0128476D01*
X0116390Y0129675D02*
X0212400Y0129675D01*
X0212400Y0130873D02*
X0089554Y0130873D01*
X0095545Y0108101D02*
X0101037Y0108101D01*
X0100300Y0106903D02*
X0096743Y0106903D01*
X0097942Y0105704D02*
X0100300Y0105704D01*
X0100300Y0104506D02*
X0099140Y0104506D01*
X0100339Y0103307D02*
X0100878Y0103307D01*
X0101537Y0102109D02*
X0102076Y0102109D01*
X0116886Y0132072D02*
X0212400Y0132072D01*
X0212400Y0133270D02*
X0118085Y0133270D01*
X0118700Y0134469D02*
X0212400Y0134469D01*
X0212400Y0135667D02*
X0118700Y0135667D01*
X0118700Y0136866D02*
X0212400Y0136866D01*
X0212400Y0138064D02*
X0118000Y0138064D01*
X0116802Y0139263D02*
X0212400Y0139263D01*
X0212400Y0140461D02*
X0006600Y0140461D01*
X0006600Y0141660D02*
X0201928Y0141660D01*
X0202080Y0141507D02*
X0204299Y0140588D01*
X0206701Y0140588D01*
X0208920Y0141507D01*
X0210618Y0143205D01*
X0211537Y0145424D01*
X0211537Y0147826D01*
X0210618Y0150045D01*
X0208920Y0151743D01*
X0206701Y0152662D01*
X0204299Y0152662D01*
X0202080Y0151743D01*
X0200382Y0150045D01*
X0199463Y0147826D01*
X0199463Y0145424D01*
X0200382Y0143205D01*
X0202080Y0141507D01*
X0200729Y0142858D02*
X0006600Y0142858D01*
X0006600Y0144057D02*
X0200029Y0144057D01*
X0199533Y0145255D02*
X0006600Y0145255D01*
X0006600Y0146454D02*
X0199463Y0146454D01*
X0199463Y0147652D02*
X0006600Y0147652D01*
X0006600Y0148851D02*
X0199888Y0148851D01*
X0200387Y0150049D02*
X0006600Y0150049D01*
X0006600Y0151248D02*
X0201585Y0151248D01*
X0203779Y0152446D02*
X0006600Y0152446D01*
X0006600Y0153645D02*
X0212400Y0153645D01*
X0212400Y0154843D02*
X0006600Y0154843D01*
X0006600Y0156042D02*
X0212400Y0156042D01*
X0212400Y0157240D02*
X0006600Y0157240D01*
X0006600Y0158439D02*
X0212400Y0158439D01*
X0212400Y0152446D02*
X0207221Y0152446D01*
X0209415Y0151248D02*
X0212400Y0151248D01*
X0212400Y0150049D02*
X0210613Y0150049D01*
X0211112Y0148851D02*
X0212400Y0148851D01*
X0212400Y0147652D02*
X0211537Y0147652D01*
X0211537Y0146454D02*
X0212400Y0146454D01*
X0212400Y0145255D02*
X0211467Y0145255D01*
X0210971Y0144057D02*
X0212400Y0144057D01*
X0212400Y0142858D02*
X0210271Y0142858D01*
X0209072Y0141660D02*
X0212400Y0141660D01*
X0212400Y0051771D02*
X0197085Y0051771D01*
X0198140Y0050573D02*
X0212400Y0050573D01*
X0212400Y0049374D02*
X0198628Y0049374D01*
X0198628Y0048176D02*
X0212400Y0048176D01*
X0212400Y0046977D02*
X0198264Y0046977D01*
X0197385Y0045779D02*
X0212400Y0045779D01*
X0209627Y0033452D02*
X0209627Y0033452D01*
X0211112Y0032595D02*
X0212400Y0032595D01*
D12*
X0156900Y0046425D03*
X0139500Y0046425D03*
X0137700Y0054825D03*
X0109500Y0096825D03*
X0087900Y0132825D03*
X0076500Y0109425D03*
X0067500Y0136425D03*
X0211500Y0131025D03*
D13*
X0137700Y0052425D02*
X0139500Y0050625D01*
X0139500Y0046425D01*
X0137700Y0052425D02*
X0137700Y0054825D01*
X0108900Y0099825D02*
X0101700Y0099825D01*
X0087900Y0113625D01*
X0087900Y0132825D01*
X0114300Y0105225D02*
X0108900Y0099825D01*
X0114300Y0105225D02*
X0114500Y0105625D01*
M02*
