G75*
%MOIN*%
%OFA0B0*%
%FSLAX25Y25*%
%IPPOS*%
%LPD*%
%AMOC8*
5,1,8,0,0,1.08239X$1,22.5*
%
%ADD10R,0.08100X0.02400*%
%ADD11R,0.01378X0.09843*%
%ADD12R,0.09843X0.07874*%
%ADD13OC8,0.06000*%
%ADD14R,0.03937X0.04331*%
%ADD15R,0.04331X0.03937*%
%ADD16R,0.04921X0.03150*%
%ADD17C,0.00600*%
%ADD18C,0.02700*%
D10*
X0036000Y0106625D03*
X0036000Y0111625D03*
X0036000Y0116625D03*
X0036000Y0121625D03*
X0036000Y0126625D03*
X0036000Y0131625D03*
X0036000Y0136625D03*
X0036000Y0141625D03*
X0054900Y0141625D03*
X0054900Y0136625D03*
X0054900Y0131625D03*
X0054900Y0126625D03*
X0054900Y0121625D03*
X0054900Y0116625D03*
X0054900Y0111625D03*
X0054900Y0106625D03*
X0163600Y0114625D03*
X0163600Y0119625D03*
X0163600Y0124625D03*
X0163600Y0129625D03*
X0163600Y0134625D03*
X0163600Y0139625D03*
X0163600Y0144625D03*
X0163600Y0149625D03*
X0182500Y0149625D03*
X0182500Y0144625D03*
X0182500Y0139625D03*
X0182500Y0134625D03*
X0182500Y0129625D03*
X0182500Y0124625D03*
X0182500Y0119625D03*
X0182500Y0114625D03*
D11*
X0183250Y0057877D03*
X0185750Y0057877D03*
X0188250Y0057877D03*
X0180750Y0057877D03*
X0178250Y0057877D03*
X0175750Y0057877D03*
X0173250Y0057877D03*
X0170750Y0057877D03*
X0168250Y0057877D03*
X0165750Y0057877D03*
X0163250Y0057877D03*
X0160750Y0057877D03*
X0158250Y0057877D03*
X0155750Y0057877D03*
X0153250Y0057877D03*
X0150750Y0057877D03*
X0148250Y0057877D03*
X0145750Y0057877D03*
X0143250Y0057877D03*
X0140750Y0057877D03*
X0140750Y0039373D03*
X0143250Y0039373D03*
X0145750Y0039373D03*
X0148250Y0039373D03*
X0150750Y0039373D03*
X0153250Y0039373D03*
X0155750Y0039373D03*
X0158250Y0039373D03*
X0160750Y0039373D03*
X0163250Y0039373D03*
X0165750Y0039373D03*
X0168250Y0039373D03*
X0170750Y0039373D03*
X0173250Y0039373D03*
X0175750Y0039373D03*
X0178250Y0039373D03*
X0180750Y0039373D03*
X0183250Y0039373D03*
X0185750Y0039373D03*
X0188250Y0039373D03*
D12*
X0203220Y0048625D03*
X0125780Y0048625D03*
D13*
X0114500Y0105625D03*
X0114500Y0115625D03*
X0114500Y0125625D03*
X0114500Y0135625D03*
X0104500Y0135625D03*
X0104500Y0125625D03*
X0104500Y0115625D03*
X0104500Y0105625D03*
D14*
X0080500Y0102971D03*
X0080500Y0109279D03*
X0080500Y0115971D03*
X0080500Y0122279D03*
X0080500Y0128971D03*
X0080500Y0136279D03*
X0080500Y0142971D03*
X0080500Y0096279D03*
X0025500Y0106279D03*
X0025500Y0112971D03*
X0137500Y0110279D03*
X0137500Y0103971D03*
X0137500Y0097279D03*
X0137500Y0116971D03*
X0137500Y0143279D03*
X0137500Y0149971D03*
X0194300Y0149571D03*
X0194300Y0142879D03*
D15*
X0205500Y0133971D03*
X0205500Y0127279D03*
X0194500Y0123971D03*
X0194500Y0117279D03*
X0067500Y0111971D03*
X0067500Y0105279D03*
D16*
X0205500Y0107342D03*
X0205500Y0121908D03*
X0205500Y0139342D03*
X0205500Y0153908D03*
D17*
X0134100Y0099825D02*
X0054900Y0099825D01*
X0049500Y0105225D01*
X0049500Y0113025D01*
X0050700Y0114225D01*
X0059100Y0114225D01*
X0060300Y0115425D01*
X0060300Y0123225D01*
X0057300Y0126225D01*
X0054900Y0126225D01*
X0054900Y0126625D01*
X0057300Y0129225D02*
X0054900Y0131625D01*
X0057300Y0129225D02*
X0080100Y0129225D01*
X0080500Y0128971D01*
X0080700Y0129225D01*
X0089700Y0129225D01*
X0090300Y0129825D01*
X0104700Y0129825D01*
X0110100Y0135225D01*
X0114300Y0135225D01*
X0114500Y0135625D01*
X0108900Y0135825D02*
X0122700Y0149625D01*
X0137100Y0149625D01*
X0137500Y0149971D01*
X0137700Y0149625D01*
X0151500Y0149625D01*
X0161100Y0140025D01*
X0163500Y0140025D01*
X0163600Y0139625D01*
X0163600Y0134625D02*
X0165300Y0134625D01*
X0168900Y0138225D01*
X0168900Y0146025D01*
X0167700Y0147225D01*
X0159300Y0147225D01*
X0158100Y0148425D01*
X0158100Y0150825D01*
X0142500Y0150825D01*
X0140100Y0153225D01*
X0111900Y0153225D01*
X0089100Y0130425D01*
X0084900Y0130425D01*
X0082500Y0132825D01*
X0060300Y0132825D01*
X0059100Y0134025D01*
X0050100Y0134025D01*
X0045300Y0129225D01*
X0052500Y0122025D01*
X0054900Y0121625D01*
X0054900Y0122025D01*
X0052500Y0122025D01*
X0047100Y0116625D01*
X0047100Y0104025D01*
X0111300Y0039825D01*
X0139500Y0039825D01*
X0139500Y0046425D01*
X0140100Y0048825D02*
X0173700Y0048825D01*
X0177900Y0044625D01*
X0181500Y0048225D01*
X0185700Y0048225D01*
X0189900Y0052425D01*
X0189900Y0119025D01*
X0186900Y0122025D01*
X0178500Y0122025D01*
X0177300Y0123225D01*
X0177300Y0141225D01*
X0180300Y0144225D01*
X0182100Y0144225D01*
X0182500Y0144625D01*
X0182500Y0149625D02*
X0182100Y0149625D01*
X0179700Y0152025D01*
X0159300Y0152025D01*
X0158100Y0150825D01*
X0163600Y0149625D02*
X0167100Y0149625D01*
X0176100Y0140625D01*
X0176100Y0119025D01*
X0177900Y0117225D01*
X0186900Y0117225D01*
X0187500Y0116625D01*
X0187500Y0071625D01*
X0178500Y0062625D01*
X0178500Y0058425D01*
X0178250Y0057877D01*
X0175750Y0057877D02*
X0175500Y0057825D01*
X0175500Y0053025D01*
X0174300Y0051825D01*
X0169500Y0051825D01*
X0168300Y0053025D01*
X0168300Y0057825D01*
X0168250Y0057877D01*
X0167700Y0058425D01*
X0167700Y0063225D01*
X0167100Y0063825D01*
X0159300Y0063825D01*
X0158100Y0062625D01*
X0158250Y0057877D01*
X0158100Y0058425D01*
X0158100Y0062625D01*
X0156900Y0063825D01*
X0152100Y0063825D01*
X0152100Y0082425D01*
X0137700Y0096825D01*
X0137500Y0097279D01*
X0137100Y0096825D01*
X0109500Y0096825D01*
X0080700Y0096825D01*
X0080500Y0096279D01*
X0080500Y0102971D02*
X0080700Y0103425D01*
X0087300Y0110025D01*
X0104700Y0110025D01*
X0108900Y0114225D01*
X0108900Y0116025D01*
X0114300Y0121425D01*
X0114300Y0125625D01*
X0114500Y0125625D01*
X0114300Y0129825D02*
X0108900Y0129825D01*
X0104700Y0125625D01*
X0104500Y0125625D01*
X0104100Y0125625D01*
X0101100Y0122625D01*
X0080700Y0122625D01*
X0080500Y0122279D01*
X0080700Y0116025D02*
X0080500Y0115971D01*
X0080100Y0115425D01*
X0070500Y0115425D01*
X0067500Y0112425D01*
X0067500Y0111971D01*
X0067500Y0111825D01*
X0054900Y0111825D01*
X0054900Y0111625D01*
X0054900Y0116625D02*
X0051300Y0116625D01*
X0048300Y0113625D01*
X0048300Y0104625D01*
X0099300Y0053625D01*
X0135300Y0053625D01*
X0140100Y0048825D01*
X0137700Y0054825D02*
X0140700Y0057825D01*
X0140750Y0057877D01*
X0141300Y0057825D01*
X0143100Y0057825D01*
X0143250Y0057877D01*
X0148250Y0057877D02*
X0148500Y0057825D01*
X0150300Y0057825D01*
X0150750Y0057877D01*
X0150900Y0058425D01*
X0150900Y0062625D01*
X0152100Y0063825D01*
X0156900Y0046425D02*
X0156900Y0045225D01*
X0162300Y0045225D01*
X0171900Y0045225D01*
X0173100Y0044025D01*
X0173100Y0039825D01*
X0173250Y0039373D01*
X0175500Y0039225D02*
X0175500Y0034425D01*
X0174300Y0033225D01*
X0116100Y0033225D01*
X0045900Y0103425D01*
X0045900Y0123825D01*
X0038100Y0131625D01*
X0036000Y0131625D01*
X0035700Y0136425D02*
X0032100Y0136425D01*
X0036000Y0136625D01*
X0036300Y0137025D01*
X0054900Y0137025D01*
X0054900Y0136625D01*
X0054900Y0136425D01*
X0067500Y0136425D01*
X0080100Y0136425D01*
X0080500Y0136279D01*
X0080700Y0142425D02*
X0080500Y0142971D01*
X0080100Y0142425D01*
X0062700Y0142425D01*
X0059700Y0139425D01*
X0038100Y0139425D01*
X0036300Y0141225D01*
X0036000Y0141625D01*
X0036000Y0136625D02*
X0035700Y0136425D01*
X0032100Y0136425D02*
X0030900Y0137625D01*
X0030900Y0143625D01*
X0031500Y0144225D01*
X0040500Y0144225D01*
X0042900Y0141825D01*
X0054900Y0141825D01*
X0054900Y0141625D01*
X0045300Y0129225D02*
X0040500Y0134025D01*
X0031500Y0134025D01*
X0030900Y0133425D01*
X0030900Y0106425D01*
X0025500Y0106425D01*
X0025500Y0106279D01*
X0025500Y0112971D02*
X0025500Y0129825D01*
X0032100Y0136425D01*
X0030900Y0106425D02*
X0035700Y0106425D01*
X0036000Y0106625D01*
X0054900Y0106625D02*
X0054900Y0106425D01*
X0055500Y0105825D01*
X0067500Y0105825D01*
X0067500Y0105279D01*
X0067500Y0105225D01*
X0069300Y0103425D01*
X0080100Y0103425D01*
X0080500Y0102971D01*
X0080500Y0109279D02*
X0080100Y0109425D01*
X0076500Y0109425D01*
X0080700Y0116025D02*
X0104100Y0116025D01*
X0104500Y0115625D01*
X0104500Y0105625D02*
X0104700Y0105225D01*
X0108300Y0101625D01*
X0116100Y0101625D01*
X0117900Y0103425D01*
X0137100Y0103425D01*
X0137500Y0103971D01*
X0137700Y0104025D01*
X0158100Y0124425D01*
X0163500Y0124425D01*
X0163600Y0124625D01*
X0163500Y0129225D02*
X0163600Y0129625D01*
X0163500Y0129225D02*
X0149700Y0129225D01*
X0137700Y0117225D01*
X0137500Y0116971D01*
X0137100Y0116625D01*
X0115500Y0116625D01*
X0114500Y0115625D01*
X0114300Y0129825D02*
X0127500Y0143025D01*
X0137100Y0143025D01*
X0137500Y0143279D01*
X0137700Y0143025D01*
X0148500Y0132225D01*
X0167700Y0132225D01*
X0168900Y0131025D01*
X0168900Y0128025D01*
X0168300Y0127425D01*
X0168300Y0126825D01*
X0168900Y0126225D01*
X0168900Y0123225D01*
X0167700Y0122025D01*
X0159300Y0122025D01*
X0158100Y0120825D01*
X0158100Y0118425D01*
X0161700Y0114825D01*
X0163500Y0114825D01*
X0163600Y0114625D01*
X0163600Y0119625D02*
X0173700Y0119625D01*
X0178500Y0114825D01*
X0182500Y0114625D01*
X0182100Y0114825D01*
X0178500Y0114825D01*
X0173700Y0110025D01*
X0173700Y0058425D01*
X0173250Y0057877D01*
X0170750Y0057877D02*
X0170700Y0058425D01*
X0170700Y0069825D01*
X0140100Y0100425D01*
X0134700Y0100425D01*
X0134100Y0099825D01*
X0137500Y0110279D02*
X0137700Y0110625D01*
X0142500Y0110625D01*
X0158700Y0126825D01*
X0168300Y0126825D01*
X0182500Y0124625D02*
X0182700Y0124425D01*
X0194100Y0124425D01*
X0194500Y0123971D01*
X0194700Y0117825D02*
X0194500Y0117279D01*
X0194700Y0117825D02*
X0200100Y0117825D01*
X0203700Y0121425D01*
X0205500Y0121425D01*
X0205500Y0121908D01*
X0205500Y0127279D02*
X0205500Y0127425D01*
X0209100Y0131025D01*
X0209100Y0135825D01*
X0205500Y0139425D01*
X0205500Y0139342D01*
X0205500Y0134025D02*
X0205500Y0133971D01*
X0205500Y0134025D02*
X0183300Y0134025D01*
X0182700Y0134625D01*
X0182500Y0134625D01*
X0182500Y0149625D02*
X0194100Y0149625D01*
X0194300Y0149571D01*
X0194700Y0144225D02*
X0204300Y0153825D01*
X0205500Y0153825D01*
X0205500Y0153908D01*
X0205500Y0153825D02*
X0206700Y0153825D01*
X0211500Y0149025D01*
X0211500Y0131025D01*
X0211500Y0112425D01*
X0206700Y0107625D01*
X0205500Y0107625D01*
X0205500Y0107342D01*
X0205500Y0066225D01*
X0186300Y0047025D01*
X0183900Y0047025D01*
X0180900Y0044025D01*
X0180900Y0039825D01*
X0180750Y0039373D01*
X0178250Y0039373D02*
X0177900Y0039825D01*
X0177900Y0044625D01*
X0175750Y0039373D02*
X0175500Y0039225D01*
X0163250Y0039373D02*
X0162900Y0039825D01*
X0162900Y0044625D01*
X0162300Y0045225D01*
X0156900Y0045225D02*
X0156300Y0044625D01*
X0156300Y0039825D01*
X0155750Y0039373D01*
X0143250Y0039373D02*
X0143100Y0039225D01*
X0141300Y0039225D01*
X0140750Y0039373D01*
X0140700Y0039825D01*
X0139500Y0039825D01*
X0087900Y0132825D02*
X0087900Y0135225D01*
X0080700Y0142425D01*
X0104500Y0135625D02*
X0104700Y0135825D01*
X0108900Y0135825D01*
X0194300Y0142879D02*
X0194700Y0143025D01*
X0194700Y0144225D01*
D18*
X0211500Y0131025D03*
X0156900Y0046425D03*
X0139500Y0046425D03*
X0137700Y0054825D03*
X0109500Y0096825D03*
X0087900Y0132825D03*
X0076500Y0109425D03*
X0067500Y0136425D03*
M02*
